<svg width="622" height="622" viewBox="0 0 622 622" fill="none" xmlns="http://www.w3.org/2000/svg">
<path d="M621.039 311.255C621.039 372.66 602.83 432.686 568.715 483.743C534.6 534.8 486.111 574.594 429.38 598.092C372.649 621.591 310.224 627.739 249.999 615.76C189.773 603.78 134.453 574.211 91.0325 530.791C47.6124 487.371 18.043 432.05 6.0634 371.825C-5.91618 311.599 0.23218 249.174 23.731 192.443C47.2297 135.712 87.0235 87.223 138.08 53.108C189.137 18.9931 249.163 0.784304 310.568 0.784304C351.341 0.779153 391.716 8.8062 429.386 24.407C467.057 40.0078 501.285 62.8767 530.116 91.7075C558.947 120.538 581.816 154.767 597.416 192.437C613.017 230.107 621.044 270.482 621.039 311.255ZM349.431 471.412C349.431 463.634 347.125 456.031 342.805 449.563C338.485 443.096 332.344 438.054 325.159 435.076C317.974 432.098 310.067 431.317 302.439 432.831C294.81 434.346 287.801 438.088 282.299 443.585C276.796 449.082 273.047 456.087 271.525 463.714C270.003 471.342 270.776 479.249 273.747 486.437C276.718 493.625 281.754 499.77 288.217 504.097C294.68 508.424 302.281 510.737 310.059 510.745C315.227 510.75 320.346 509.737 325.123 507.762C329.9 505.788 334.24 502.891 337.897 499.238C341.553 495.586 344.454 491.248 346.433 486.473C348.412 481.698 349.431 476.58 349.431 471.412ZM279.51 360.157C279.795 368.198 283.191 375.814 288.981 381.402C294.77 386.99 302.503 390.112 310.549 390.112C318.595 390.112 326.327 386.99 332.117 381.402C337.907 375.814 341.302 368.198 341.588 360.157V114.353C341.302 106.312 337.907 98.6953 332.117 93.1078C326.327 87.5202 318.595 84.3976 310.549 84.3976C302.503 84.3976 294.77 87.5202 288.981 93.1078C283.191 98.6953 279.795 106.312 279.51 114.353V360.157Z" fill="#D49F00"/>
</svg>
