<svg width="57" height="55" viewBox="0 0 57 55" fill="none" xmlns="http://www.w3.org/2000/svg">
<path d="M30.2875 21.5273C26.1443 21.5273 21.3831 21.642 18.2136 24.5865C16.4251 26.2482 17.9369 30.2569 18.5307 32.1325C20.1409 37.2185 26.0007 40.2904 31.3852 40.2904C34.108 40.2904 33.4937 37.7509 34.678 35.8942C36.4443 33.1252 35.9952 29.7598 35.9952 26.6487C35.9952 24.64 35.4522 22.4732 33.8975 21.0288C32.2918 19.537 30.3052 20.7116 28.5313 20.7116" stroke="black" stroke-width="3" stroke-linecap="round"/>
<path d="M30.2881 19.8952C25.1267 15.5797 17.7917 10.2786 25.2634 4.59925C29.0769 1.70048 34.0463 0.618204 37.5324 4.57659C39.5124 6.82491 42.7543 11.3198 39.0691 13.4596C37.6401 14.2893 37.2824 16.6353 35.7518 17.4479C34.4456 18.1413 33.3874 19.2713 32.0443 19.8952" stroke="black" stroke-width="3" stroke-linecap="round"/>
<path d="M35.1159 20.3026C35.1159 18.3499 36.7766 15.7092 37.9453 14.003C39.2541 12.0923 41.7677 10.4428 43.6774 9.06293C45.3367 7.86397 47.7817 7.596 49.385 9.08559C51.6278 11.1692 51.6769 11.9784 52.4584 14.5921C53.1805 17.0074 53.7038 19.3221 51.2632 20.8918C49.156 22.2471 47.4836 24.3816 44.775 24.3816C42.3197 24.3816 40.8478 22.9791 38.6283 22.75C37.3871 22.6219 34.7642 21.6886 34.2378 20.7105" stroke="black" stroke-width="3" stroke-linecap="round"/>
<path d="M36.4341 26.4218C36.9385 22.2042 44.424 20.7113 47.8738 20.7113C50.2101 20.7113 52.9439 20.1417 54.3376 22.3428C55.1019 23.5499 55.2534 25.8986 54.5327 27.2375C52.6312 30.7706 46.696 34.2282 42.3613 33.3333C39.7244 32.7889 40.2379 30.0233 39.166 28.7785C38.2482 27.7127 37.0945 26.0172 36.4341 24.7902" stroke="black" stroke-width="3" stroke-linecap="round"/>
<path d="M37.312 32.1318C39.6755 32.1318 41.2203 30.5131 43.2391 29.5032C44.3216 28.9617 48.2594 28.8887 49.1663 29.6845C52.8433 32.9107 51.5979 37.6228 48.2882 40.6976C44.7272 44.0059 38.8288 45.092 36.5314 40.2897C35.2079 37.5231 37.7334 34.5629 35.1167 32.1318" stroke="black" stroke-width="3" stroke-linecap="round"/>
<path d="M32.9209 39.4744C32.9209 40.7049 33.623 41.6559 34.1405 42.7375C34.7123 43.933 34.6771 46.3118 34.6771 47.6096C34.6771 51.9364 29.6663 54.0028 25.5546 52.5269C20.3122 50.6452 19.9901 46.2667 23.0422 42.171C23.6578 41.345 24.8509 40.088 25.6765 39.4744C26.5532 38.8228 26.6316 37.4296 27.2132 36.6191" stroke="black" stroke-width="3" stroke-linecap="round"/>
<path d="M21.9451 36.619C21.9451 39.4407 21.1387 44.1446 19.5303 46.635C18.1189 48.8205 17.7176 49.4541 14.6763 49.6489C12.1219 49.8126 9.73129 49.8117 8.55403 47.4055C4.96305 40.066 13.848 32.948 21.067 32.948" stroke="black" stroke-width="3" stroke-linecap="round"/>
<path d="M18.4316 29.6849C13.9975 29.6849 10.6373 32.3781 6.1382 32.1322C4.70143 32.0537 4.4753 29.3133 4.3576 28.4385C3.95382 25.4375 3.97305 23.8731 5.45523 21.1191C6.58344 19.0228 11.883 16.7724 14.2606 18.4905C16.0084 19.7534 17.1145 22.8321 17.1145 24.7901" stroke="black" stroke-width="3" stroke-linecap="round"/>
<path d="M25.4563 20.7115C21.3793 20.7115 16.8739 21.1378 12.9433 20.3263C10.4625 19.8141 10.9676 18.3996 10.9676 16.2247C10.9676 12.6832 13.0876 11.3312 16.5777 10.1063C19.3964 9.11705 28.5296 7.68247 28.5296 12.3724C28.5296 14.0416 28.9678 16.3293 28.432 17.9469C27.9142 19.5105 27.2125 20.6812 27.2125 22.3431" stroke="black" stroke-width="3" stroke-linecap="round"/>
<path d="M18.4326 27.2375C14.2305 27.2375 9.99548 27.6454 5.91968 27.6454C5.02686 27.6454 2.18775 27.1971 2.18775 28.2573C2.18775 29.0752 1.70631 31.8518 2.28532 32.4495C4.6974 34.9394 6.1985 36.2112 9.87114 36.2112C12.3084 36.2112 14.3116 35.6866 16.6764 35.3727C18.5577 35.1231 18.9015 33.3143 19.7498 32.1323" stroke="black" stroke-width="3" stroke-linecap="round"/>
<path d="M26.3429 26.9621C24.8595 26.9621 24.8507 28.0922 25.6191 29.2059C26.8256 30.9545 30.0146 30.7852 31.2397 29.1784C31.6331 28.6624 32.4042 27.1274 31.8379 26.523C31.0584 25.6909 29.0234 25.9741 27.9678 25.9741C26.9221 25.9741 26.5986 25.9475 26.5054 27.0445C26.3874 28.4335 26.4722 29.7733 27.4065 30.9144C28.9484 32.7979 31.0617 30.4421 30.9738 28.7667C30.9269 27.8735 29.9984 27.7032 29.2086 27.7032C28.162 27.7032 28.2612 29.2164 28.2041 29.9058C28.1769 30.2339 27.8158 31.3241 28.2632 31.532C28.6611 31.7168 30.0166 31.8582 30.2721 31.4084C31.1955 29.7831 26.6645 28.5564 25.8702 30.2008C25.6745 30.606 25.4085 31.8418 25.9145 32.1426C26.5729 32.5341 28.1223 32.6183 28.5956 31.9368C30.0174 29.8893 27.5826 26.6993 25.0873 26.8592C24.0066 26.9284 24.0623 28.7298 24.1124 29.4049C24.2002 30.5876 24.5015 31.3922 25.9145 31.4084C27.1835 31.423 27.6743 30.6767 27.7757 29.5558C27.9206 27.9561 26.8989 27.0888 25.2794 26.7426C24.2921 26.5314 23.063 26.3304 22.0444 26.4818C21.4235 26.5741 21.4002 27.7557 21.4314 28.1904C21.5162 29.3719 24.6285 29.9196 24.7402 28.6226C24.7775 28.1892 24.9127 27.3582 24.4226 27.1131C23.7834 26.7933 22.7376 26.6097 22.0149 26.5916C21.2455 26.5723 21.4021 27.8142 21.6603 28.3207C22.0981 29.1793 22.6205 27.9054 22.6205 27.5179C22.6205 26.5929 21.9676 25.9422 20.9587 25.7339C20.2275 25.583 19.1914 26.5397 19.0015 27.1131C18.6769 28.0929 18.682 28.824 19.2304 29.7411C19.4228 30.0628 19.3779 30.4481 19.5332 30.7909C19.6694 31.0913 19.9424 31.7226 19.9616 32.026C19.9959 32.5674 20.7268 34.1964 21.3649 34.3658C22.3729 34.6334 23.4119 35.3359 24.1863 36.0057C25.126 36.8186 25.6594 37.4604 27.015 37.4604C27.8384 37.4604 28.3598 37.475 29.0756 37.8378C30.0036 38.308 30.0653 38.8808 30.0653 37.33C30.0653 35.9672 30.2294 34.5118 29.7994 33.1925C29.5831 32.5287 29.3612 31.4903 28.4995 31.3124C27.3978 31.0849 26.9533 32.0134 26.7713 32.8768C26.5816 33.7766 26.5135 34.72 26.4832 35.6352C26.4693 36.0555 26.3705 36.6967 26.6679 37.0624C27.2996 37.8392 29.1526 36.4764 28.5069 35.7381C28.127 35.3037 24.8638 34.9494 25.0282 35.4842C25.1569 35.9025 26.3304 35.9863 26.7122 35.9783C27.6598 35.9583 26.2347 34.3129 26.077 34.1531C25.3466 33.4128 24.2338 32.5027 23.1818 32.1769C23.0129 32.1246 23.4463 32.3683 23.684 32.2456C24.3301 31.9121 22.6252 29.2668 22.4875 28.6913C22.3134 27.9634 22.4937 27.5793 22.6279 26.8935C22.9556 25.2189 24.9768 24.7389 26.4758 24.341C27.5486 24.0563 28.4625 23.595 29.5336 23.3186C30.2703 23.1285 30.4986 23.1557 30.9959 22.6393C31.2267 22.3997 31.9783 21.9037 31.764 21.5277C31.3554 20.8107 29.429 21.4699 28.8688 21.5277C28.375 21.5787 27.4538 22.1598 27.0667 22.4541C26.4788 22.9009 25.4456 22.9726 24.7402 23.202C23.8546 23.4899 23.0506 23.7137 22.2217 24.1214C21.053 24.6962 21.3627 25.6859 21.4535 26.8386C21.5716 28.3373 22.2365 29.5069 23.0784 30.736C23.2677 31.0123 23.3974 31.2629 23.6249 31.532C24.2057 32.2187 25.8592 32.387 26.7196 32.5132C28.2626 32.7395 28.77 32.3232 29.637 31.1065C30.5512 29.8235 31.9265 28.3573 31.9265 26.7563C31.9265 25.5888 31.7114 24.7992 30.3903 24.5537C29.6768 24.4211 28.599 24.0407 28.3961 24.8213C27.6413 27.7268 27.6723 30.756 27.6723 33.7277C27.6723 34.551 27.8337 35.0826 28.0712 35.8548C28.3211 36.6673 30.1472 36.4168 30.7153 36.2116C32.0667 35.7233 32.6616 34.849 33.0492 33.563C33.372 32.4919 33.3889 31.3442 33.3889 30.242C33.3889 29.6233 33.4019 28.8047 33.5514 28.1972C33.8025 27.1765 33.6548 26.0346 33.6548 24.986C33.6548 24.5773 33.7939 23.6468 33.4406 23.3186C32.9064 22.8223 32.0361 22.7628 31.3357 22.7628C29.8827 22.7628 29.6566 24.3995 29.3711 25.48C28.9367 27.1241 28.8688 28.7334 28.8688 30.4204C28.8688 31.8072 28.7809 33.2148 28.9722 34.5922C29.089 35.4327 29.8426 35.6581 30.6636 35.0931C31.737 34.3544 32.8807 32.6399 32.9827 31.3604C33.0729 30.2296 33.0445 29.0702 33.2264 27.9502C33.3644 27.1011 33.6212 26.1042 33.6548 25.2604C33.6757 24.7365 33.8056 24.2193 33.3151 23.9293C32.4707 23.4301 31.2827 23.5039 30.3312 23.5039C29.0559 23.5039 27.7807 23.5039 26.5054 23.5039C26.1159 23.5039 25.6646 23.5656 25.2794 23.5039C24.4693 23.3741 23.8146 22.7912 22.9898 22.7628C21.8931 22.7251 21.0036 22.4971 20.0281 23.202C18.7095 24.1548 17.8659 25.3574 17.8345 26.9621C17.7949 28.9861 17.8304 31.2811 19.4889 32.8219C20.4656 33.7293 21.491 34.5934 22.458 35.5117C23.2933 36.305 24.2695 37.3369 25.5748 37.3369C26.1918 37.3369 26.2567 37.2334 26.7417 37.5839C27.1922 37.9094 27.6711 38.1905 28.1303 38.5033C28.6836 38.8804 29.3794 38.9072 30.0062 38.6955C30.8561 38.4084 31.7846 37.5701 32.4288 36.9938C33.0696 36.4205 33.5648 36.0816 33.8173 35.2372C34.1971 33.9671 35.3807 32.9199 35.6416 31.5868C35.9594 29.963 35.9148 28.2734 35.9148 26.619C35.9148 26.263 36.1413 24.9071 35.8853 24.6429C35.4848 24.2295 34.9738 23.8202 34.482 23.5039C33.1584 22.6526 30.8364 22.8339 29.408 23.3804C27.2863 24.192 26.2448 25.4772 25.8407 27.5797C25.6024 28.8191 25.6226 30.1508 25.6782 31.4084C25.7532 33.1036 28.4582 33.1681 29.7699 33.2336C30.7832 33.2842 32.0376 33.4251 33.0492 33.2542C33.4303 33.1898 33.4089 32.1524 33.4628 31.9093C33.5752 31.4022 33.7102 30.9451 33.6474 30.4204C33.5613 29.7003 32.456 29.2887 31.8453 29.0618C30.8635 28.6969 29.826 28.4564 28.7654 28.4442C28.1414 28.4371 27.1716 28.279 26.5792 28.4991C25.5411 28.8849 25.0447 30.1626 24.6737 31.0242C24.3019 31.8879 24.067 32.7288 24.0829 33.6591C24.095 34.3681 24.3847 34.8886 25.0799 35.2235C25.5199 35.4354 26.5417 35.7019 26.8008 35.1549C28.0363 32.5462 26.8986 29.6868 24.2232 28.3962C23.1489 27.878 21.9641 27.641 20.7593 27.7032C19.8063 27.7524 20.1852 29.4291 20.257 30.0224C20.5886 32.7608 23.1268 34.9916 25.5969 36.2665C26.1821 36.5685 27.4314 37.0491 27.9308 36.3762C28.3441 35.8195 28.3864 35.0189 28.47 34.3727C28.5799 33.524 28.7409 32.6497 28.7137 31.7927C28.6212 28.8687 24.4631 27.2645 21.7785 27.0925C20.8885 27.0355 20.3437 27.6663 20.5672 28.5266C21.0185 30.2634 23.7414 32.5048 25.6782 31.2575C27.7569 29.9188 28.1594 25.4942 25.0135 25.1369C24.5942 25.0893 23.2661 24.8954 22.9528 25.2536C22.3956 25.8908 22.2604 26.9209 22.1552 27.7032C21.836 30.0755 23.4339 31.1772 25.693 32.1152C28.0201 33.0814 30.531 33.4075 33.0492 33.6042C34.3199 33.7034 35.7364 33.8858 37.0079 33.6728C39.2448 33.298 39.3323 29.4031 37.4068 28.5952C36.0564 28.0286 34.0585 27.9317 32.7242 28.5403C29.8701 29.842 33.0379 32.5238 34.7479 33.3571C35.2492 33.6014 36.1807 34.1432 36.1807 33.3434C36.1807 31.2591 35.75 29.381 34.5189 27.6071C33.9653 26.8093 33.1193 25.714 32.089 25.384C31.774 25.283 31.3493 25.324 31.0255 25.281C30.213 25.1732 29.4228 24.9509 28.6029 24.8899C27.1076 24.7788 25.887 24.9004 24.8805 26.0289C24.2101 26.7807 23.3913 28.2194 23.7136 29.2539C24.0533 30.3442 27.6006 28.7698 28.049 28.5472C29.1475 28.0017 30.1675 27.326 31.1732 26.6465C31.3607 26.5198 31.8694 26.2829 31.9192 26.0289C32.0438 25.3919 30.7115 24.9364 30.2574 24.739C28.9895 24.1876 27.729 23.919 26.3577 23.696C26.0391 23.6442 25.4148 23.4877 25.1464 23.7509C24.4771 24.4073 24.6879 26.0989 24.8362 26.8661C25.2579 29.0469 27.5431 30.0953 29.6813 30.5439C30.8639 30.792 30.4666 30.0405 29.9767 29.2539C28.2446 26.4726 25.2421 24.8143 21.8228 24.986C20.9984 25.0274 21.291 26.6738 21.291 27.2091" stroke="#FFF204" stroke-width="3" stroke-linecap="round"/>
<path d="M33.6258 10.9266C33.6258 12.176 33.4422 13.4109 32.8122 14.4189C32.602 14.7553 32.0138 14.9976 31.7357 15.3452C31.5259 15.6075 31.7073 16.1445 31.573 16.4467C31.4161 16.7998 31.4854 16.3808 31.4854 16.2089C31.4854 15.4649 31.4676 14.7313 31.573 13.9933C31.6829 13.2244 31.7107 12.4891 31.7107 11.7152C31.7107 11.4748 31.8384 10.2657 31.6356 10.1756C30.6607 9.74228 30.0085 8.77378 29.2886 8.05389C28.8561 7.62135 28.6064 7.40865 28.0431 7.15265C27.7389 7.01435 27.3047 7.10536 26.9792 7.09632C26.636 7.08679 26.3179 6.98367 25.9653 6.98367C25.8747 6.98367 25.4008 7.04504 25.3394 6.98367C25.2359 6.88013 25.9964 6.4843 26.0279 6.47046C26.8299 6.11757 27.6503 5.43238 28.5564 5.40649C29.3242 5.38455 30.1041 5.29384 30.8971 5.29384C31.6062 5.29384 32.4052 5.35112 33.0876 5.15615C33.6423 4.99767 34.2643 5.06853 34.84 5.06853C35.7574 5.06853 36.3033 5.67043 36.8428 6.36406C37.4498 7.14455 37.8992 8.5724 37.7878 9.57474C37.6521 10.7963 36.4842 10.8477 35.541 11.2145C34.7847 11.5086 34.217 12.0057 33.7886 12.679C33.3086 13.4333 33.0747 14.2888 32.5556 15.0385C32.0359 15.7892 31.59 16.4789 30.8721 17.0663C30.6832 17.2208 30.3979 17.6528 30.8595 17.348C31.8054 16.7234 32.7045 16.0105 33.5633 15.2701C34.0545 14.8467 35.0726 14.3721 35.2906 13.718C35.7528 12.3315 35.9339 10.806 35.0403 9.54971C34.4491 8.71856 33.9119 7.90634 33.4569 6.99619C33.3097 6.7018 33.1293 6.44251 32.8122 6.33277C32.1485 6.10301 31.4037 6.06165 31.1725 6.87101C31.0023 7.46643 31.6154 8.4035 31.9423 8.95514C32.361 9.66171 32.9189 10.157 33.4882 10.7263C33.8233 11.0614 33.7461 11.1519 33.3317 11.1519C32.301 11.1519 31.4382 9.99763 30.6968 9.3995C30.2282 9.02146 29.7469 8.65925 29.2824 8.2792C28.5264 7.66073 24.7261 8.23106 24.7261 7.54694" stroke="white" stroke-width="3" stroke-linecap="round"/>
<path d="M19.6562 13.0669C18.5651 13.0669 17.474 13.0669 16.3829 13.0669C15.9701 13.0669 14.8427 12.8424 14.5366 13.2359C14.2575 13.5948 14.1921 14.321 14.1298 14.7567C14.0385 15.3959 13.8424 15.5499 14.593 15.7706C15.0588 15.9076 15.794 15.8719 16.1639 16.2212C16.6178 16.6499 17.1477 17.1327 17.4031 17.7108C17.4706 17.8636 17.7175 18.9178 17.8537 18.925C19.0081 18.9857 20.1205 18.9453 21.2334 18.6746C22.7873 18.2966 24.5323 18.1204 25.9649 17.4041C26.6691 17.052 26.8207 16.3353 26.572 15.5891C26.3641 14.9654 25.9909 13.9686 25.5706 13.4549C25.2659 13.0825 25.188 12.5896 24.976 12.1656C24.7013 11.6162 23.8002 11.5946 23.2612 11.5147C21.5584 11.2625 19.5695 11.4407 17.8537 11.4897C17.2343 11.5074 17.1778 12.2614 17.1778 12.7289C17.1778 13.8131 17.2083 14.3257 18.0728 15.0822C18.6416 15.5799 19.7995 15.5453 20.5074 15.5453C21.3502 15.5453 22.193 15.5453 23.0358 15.5453C23.6176 15.5453 24.181 15.6182 24.7194 15.3826C25.0616 15.2329 25.5722 14.7637 25.7145 14.3937C26.03 13.5736 25.2017 13.4601 24.5004 13.2922C23.6497 13.0885 22.3747 12.9917 21.5713 13.4049C21.1733 13.6095 20.4066 14.1975 20.2445 14.619C19.9933 15.2722 19.7688 16.1347 19.7688 16.8408C19.7688 16.9375 19.7154 17.2737 19.8189 17.3228C20.1504 17.4798 20.9424 17.3807 21.2834 17.2852C22.0691 17.0652 22.1243 16.4299 22.41 15.7769C23.1437 14.0998 25.197 13.814 25.9649 12.2783" stroke="white" stroke-width="3" stroke-linecap="round"/>
<path d="M11.4327 22.0793C10.8307 22.0793 9.61835 20.517 8.95428 21.3471C8.70226 21.6621 8.38597 21.8801 8.16569 22.217C7.91963 22.5933 7.8008 23.0246 7.43343 23.3185C7.20626 23.5003 7.13216 23.9542 7.01411 24.2198C6.78713 24.7305 6.92659 24.8957 7.43343 24.8957C8.40978 24.8957 9.38613 24.8957 10.3625 24.8957C11.4256 24.8957 12.5082 24.6704 13.5481 24.6704C13.9508 24.6704 14.3534 24.6704 14.756 24.6704C15.3229 24.6704 14.9579 23.8822 14.8374 23.5689C14.7154 23.2517 14.4307 22.6016 14.0801 22.5237C13.4164 22.3762 12.6882 22.3809 11.996 22.4173C10.9703 22.4713 9.28838 22.2697 8.391 22.8679" stroke="white" stroke-width="3" stroke-linecap="round"/>
<path d="M6.47579 25.0083C6.38933 25.9595 5.91252 26.8956 5.91252 27.8497C5.91252 28.1381 5.85601 28.4998 5.91878 28.7823C6.02284 29.2505 6.51431 28.8867 6.7011 29.1202C6.88877 29.3548 8.20673 29.1765 8.50359 29.1765C9.20252 29.1765 9.75794 28.8875 10.3749 28.6133C11.1541 28.267 11.799 27.7813 12.6093 27.4867C13.5341 27.1504 13.7712 26.5983 14.249 25.8219C14.7015 25.0867 12.7461 25.3463 12.4027 25.3463C10.9455 25.3463 9.611 25.5838 8.23447 26.0723C7.77698 26.2346 7.13295 26.3477 6.90138 26.8108C6.80497 27.0036 6.66231 27.5957 6.47579 27.0361" stroke="white" stroke-width="3" stroke-linecap="round"/>
<path d="M5.68701 32.8942C6.39349 32.8942 7.00021 33.3926 7.671 33.5639C8.28157 33.7198 9.05703 33.6418 9.62995 33.8831C10.4421 34.225 11.8549 33.4113 12.6716 33.2071C13.3143 33.0465 13.8624 32.8879 14.3865 32.4686C14.7343 32.1904 15.0797 31.6339 15.488 31.4297" stroke="white" stroke-width="3" stroke-linecap="round"/>
<path d="M18.9804 36.3867C18.4363 36.3867 17.9135 36.3856 17.3782 36.4994C16.4515 36.6963 15.5605 36.6746 14.6244 36.781C13.818 36.8727 13.0335 37.161 12.3963 37.6823C12.0127 37.9962 11.2726 38.2292 11.0069 38.6398C10.7791 38.9919 10.6241 39.4039 10.5062 39.8164C10.2123 40.8451 9.74268 41.8561 9.74268 42.9771C9.74268 44.0606 10.3184 44.4102 11.032 45.1238C11.3908 45.4826 11.5137 46.1528 12.1084 46.1877C12.4068 46.2053 12.5178 46.5257 12.8407 46.5257C13.3036 46.5257 13.7267 46.6384 14.1926 46.6384C14.6167 46.6384 15.207 46.7496 15.5757 46.5257C16.1808 46.1583 16.612 45.7582 17.0903 45.2615C18.0691 44.245 18.8124 42.6152 19.431 41.3436C20.0074 40.1589 20.4185 38.7407 18.9241 38.0765C18.2933 37.7962 17.4096 37.9639 16.7273 37.9639C15.7516 37.9639 14.9954 38.6834 14.2489 39.2281C13.6049 39.6981 12.8535 39.9225 12.2837 40.4924C11.8483 40.9277 11.8474 41.6413 11.6015 42.1822C11.3914 42.6444 11.7235 43.1516 11.9395 43.5403C12.1362 43.8945 13.2992 43.7521 13.6919 43.7031C14.4687 43.606 15.3476 43.0538 16.0514 42.7205C16.4342 42.5391 16.6414 42.0478 16.8149 41.6815C16.936 41.4259 17.1413 40.9054 17.059 40.6176C16.9216 40.1367 15.5065 40.1882 15.1564 40.2233C14.1684 40.3221 13.1877 42.1436 13.8233 43.0334C14.0419 43.3394 14.3733 43.5386 14.4992 43.822C14.6189 44.0912 14.6587 44.5902 14.9248 44.7232" stroke="white" stroke-width="3" stroke-linecap="round"/>
<path d="M29.9082 42.47C28.812 42.3604 28.0237 41.4561 26.8603 41.4561C26.5197 41.4561 26.1002 41.3477 25.909 41.6877C25.5442 42.3362 25.2736 42.9163 24.7511 43.4589C24.3427 43.883 24.0482 44.4459 23.7122 44.9234C23.4738 45.2621 23.0819 45.4071 22.8673 45.7934C22.5213 46.4161 22.3741 47.883 22.7609 48.4908C23.0359 48.9231 23.5028 49.4472 23.8999 49.7426C24.2877 50.0309 26.1739 51.4597 26.6663 51.0569C27.1539 50.6579 27.9828 50.7013 28.5313 50.3559C28.9883 50.0682 29.5593 50.0417 30.071 49.9053C30.9066 49.6824 31.4661 48.9801 31.8484 48.2155C32.154 47.6043 31.936 46.5337 31.936 45.8497C31.936 45.0732 31.8917 43.7981 30.8595 43.7155C30.0363 43.6496 29.1973 43.3713 28.3811 43.3713C27.1183 43.3713 26.1744 43.8162 25.1141 44.4978C24.3546 44.9861 24.0787 45.4073 23.9625 46.3253C23.8984 46.8317 23.5272 48.274 24.0251 48.6723C25.2274 49.6342 26.8321 49.5941 28.281 49.5673C28.7812 49.5581 29.007 49.2522 29.007 48.7662C29.007 48.1075 29.1147 47.5195 28.4875 47.1014C27.8368 46.6676 26.0815 46.3683 25.3144 46.6633C24.9767 46.7932 24.9384 48.1891 24.9514 48.5284C24.9764 49.178 28.6302 48.2219 29.0445 48.0402C29.7907 47.7129 30.4715 47.2854 30.4715 46.413C30.4715 46.0744 30.6513 45.2295 30.2212 45.0861C29.5977 44.8783 28.7179 45.0742 28.1558 45.3365C27.8649 45.4722 27.1159 45.5763 26.9792 45.8497" stroke="white" stroke-width="3" stroke-linecap="round"/>
<path d="M47.4822 22.4173C45.0545 22.4173 42.4875 22.2403 40.2722 23.4062C39.944 23.579 39.3701 24.0257 39.2646 24.3951C39.1482 24.8023 39.5092 25.1516 39.59 25.5153C39.9281 27.0367 40.4828 28.8191 41.9621 29.6022C42.6861 29.9855 43.317 30.4168 44.1275 30.6662C45.7919 31.1783 47.3647 29.6466 48.5587 28.6697C49.1167 28.2132 49.5253 27.6201 50.1859 27.2615C50.6471 27.0112 51.3675 26.8447 51.7005 26.4166C51.9135 26.1428 52.3779 25.8847 52.1887 25.459C52.0017 25.0383 51.7881 24.6204 51.3375 24.4702C50.6186 24.2305 49.967 23.7614 49.1783 23.6628C48.4533 23.5722 47.7182 23.6019 46.9815 23.5188C45.5299 23.3553 44.3219 23.5049 42.9259 23.9382C42.3593 24.114 41.621 24.2318 41.2361 24.7268C40.8549 25.2168 43.4473 27.683 43.8271 27.9938C44.3767 28.4434 45.1208 28.6631 45.8174 28.6134C46.5508 28.561 47.3242 27.3665 47.7576 26.8735C48.3106 26.2442 48.8741 25.7094 49.6226 25.3213C50.2571 24.9923 50.6557 24.5511 51.1435 24.0633C51.4791 23.7277 52.4719 23.3186 51.375 23.3186C49.8935 23.3186 48.5157 23.4616 47.0879 23.8318C46.0802 24.093 45.052 24.3268 44.6032 25.3526C44.3025 26.0399 43.9115 26.6176 45.0038 26.8985C45.7839 27.0991 46.7384 26.8724 47.4759 26.6419C48.0589 26.4597 49.0134 26.2292 49.51 26.6982C49.8714 27.0396 50.474 27.45 50.6365 27.9374" stroke="white" stroke-width="3" stroke-linecap="round"/>
<path d="M50.0735 13.1796C48.757 12.4174 48.2395 10.6601 46.5812 10.4759C46.0884 10.4211 45.8175 10.2882 45.342 10.526C44.7228 10.8355 44.206 11.2786 43.6522 11.6901C42.4776 12.5626 41.1869 13.5045 40.1599 14.5315C39.7747 14.9166 39.3169 15.2854 38.9832 15.7144C38.5931 16.2159 38.3873 16.9003 38.0757 17.4543C37.6972 18.1271 37.1182 18.7821 37.1182 19.5446C37.1182 20.3718 37.7996 20.6149 38.5201 20.6149C39.143 20.6149 39.6455 20.0718 40.0222 19.601C40.5589 18.93 41.3559 18.6008 42.0813 18.1928C43.7009 17.2817 45.7984 17.5732 47.5951 17.5732C48.3628 17.5732 49.2561 17.4422 50.0109 17.5794C50.5575 17.6788 51.1073 17.9717 51.6507 18.1114C52.1952 18.2514 52.0046 17.9359 51.8698 17.5481C51.5391 16.5974 51.1797 15.5098 50.6368 14.6566C50.4828 14.4147 50.0778 13.5556 49.7356 13.5176C48.3145 13.3597 46.8428 13.35 45.4046 13.4112C44.3787 13.4548 43.2181 13.5581 42.3253 14.1059C41.8152 14.419 40.7357 15.5399 40.7357 16.1775C40.7357 17.6718 44.2891 16.826 44.8351 16.6093C45.5995 16.306 46.3698 15.8242 47.1695 15.633C47.7992 15.4824 48.4209 15.4035 49.0596 15.295C49.2957 15.2549 49.4891 15.1571 49.6855 15.101C49.9923 15.0134 49.0756 16.0425 48.9908 16.1087C47.9922 16.888 46.8661 17.5377 45.8177 18.2491C45.2876 18.6088 44.7355 18.5344 44.1591 18.7561C43.7619 18.9088 42.8636 19.4952 42.8636 18.8124C42.8636 17.8299 42.5323 16.893 43.0576 15.9397C43.4508 15.2261 44.1069 14.6069 44.6661 14.0183C44.9278 13.7428 44.8709 14.1671 44.7287 14.3312C43.857 15.3369 42.1259 15.9531 40.9234 16.4466C40.1299 16.7723 39.313 17.2919 38.47 17.4605" stroke="white" stroke-width="3" stroke-linecap="round"/>
<path d="M36.8926 9.4621C36.8158 8.69494 35.9421 7.59571 35.2653 7.20899C34.8006 6.94346 34.3973 6.28838 34.0762 5.83209C33.7618 5.38531 33.4145 4.73692 32.8933 4.50526C32.2884 4.23643 32.0026 4.54584 31.4851 4.81819C30.754 5.20296 30.4018 6.07571 29.6263 6.4204C28.8389 6.77034 29.0067 8.8664 29.0067 9.54972C29.0067 10.2887 29.4573 10.9209 29.4573 11.7152C29.4573 12.4719 29.7953 13.2227 29.7953 13.9683" stroke="white" stroke-width="3" stroke-linecap="round"/>
<path d="M40.1597 33.6831C40.1357 33.8745 39.7478 34.1372 39.5964 34.2213C39.1077 34.4928 38.5575 35.0071 38.207 35.4355C37.6303 36.1404 37.7939 37.2023 37.7939 38.0767C37.7939 38.8884 37.6619 40.1023 38.5199 40.5551C40.0082 41.3406 41.5137 41.7314 42.9698 40.7303C44.9457 39.3719 46.3107 37.4232 47.9329 35.7109C48.1063 35.5279 48.5801 34.9414 48.6088 34.697C48.6141 34.6518 48.7982 34.4126 48.6088 34.4967C48.3041 34.6322 48.0084 34.8282 47.7076 34.9786C46.6969 35.484 45.4079 35.7147 44.3029 35.9112C43.6866 36.0207 42.9496 35.9577 42.3252 35.9362C41.8015 35.9182 41.6717 35.4781 41.2862 35.2853C41.2373 35.2609 40.5036 36.5616 40.41 36.6747C40.025 37.1403 39.5824 37.6582 39.3711 38.2394C39.2824 38.4832 39.0145 38.8976 39.2084 39.1469C39.5889 39.6362 40.2883 39.6736 40.8606 39.6538C41.1957 39.6423 41.5544 39.4357 41.8495 39.2908C42.5557 38.9441 43.2846 38.6513 43.9899 38.302C44.966 37.8185 46.2386 37.3229 47.088 36.6622C47.2195 36.5599 48.4077 35.8606 48.4899 36.2304C48.6238 36.8329 48.4613 37.5963 48.1582 38.1267C48.0555 38.3065 47.0217 38.5123 46.8001 38.5899C46.2211 38.7925 45.6266 39.0906 45.0038 39.0906C43.9366 39.0906 43.1547 37.7999 42.5755 37.0628C42.2334 36.6274 41.142 36.4815 40.9483 37.0628" stroke="white" stroke-width="3" stroke-linecap="round"/>
</svg>
