<svg width="46" height="52" viewBox="0 0 46 52" fill="none" xmlns="http://www.w3.org/2000/svg">
<path d="M19.724 24.0142C17.0445 24.2993 13.8303 25.7446 11.5851 27.5879C8.7565 29.9103 8.39531 33.5721 8.72768 37.6046C8.98378 40.7118 10.4493 43.8516 12.3537 45.8092C13.8674 47.3652 16.1744 46.9709 17.9504 46.6649C19.5982 46.381 20.9149 46.1606 21.7537 44.1607C22.643 42.0409 23.0038 39.6068 23.2712 37.2523C23.5455 34.8363 23.7224 32.3492 23.616 29.9034C23.5672 28.782 23.0806 28.0073 22.9164 26.9588" stroke="black" stroke-width="3" stroke-linecap="round"/>
<path d="M23.6265 16.3133C23.2782 15.9179 22.5286 15.8688 22.0894 15.8603C20.6286 15.832 19.1657 15.8603 17.7047 15.8603C16.1395 15.8603 15.2149 17.3039 15.5074 19.3585C16.3818 25.5008 22.6965 28.5813 26.8978 27.8148C29.011 27.4293 30.2031 26.9777 30.3563 24.1404C30.4411 22.5699 30.0204 19.236 29.1247 18.0247C28.255 16.8487 26.8386 15.9534 25.5873 15.6338C24.7964 15.4317 24.1068 14.5012 23.2718 14.5012" stroke="black" stroke-width="3" stroke-linecap="round"/>
<path d="M29.124 16.0867C30.4156 15.7061 31.6621 14.2907 32.888 13.6455C34.3652 12.8679 36.5151 11.7874 38.1694 12.0222C39.221 12.1714 40.197 14.0424 40.7115 15.0423C41.3459 16.2751 41.9124 17.3194 41.6771 18.8552C41.3256 21.1498 40.2988 21.5229 38.6325 21.5229C37.6946 21.5229 36.5083 20.5451 35.6765 20.038C34.4162 19.2698 33.3279 19.0541 31.9618 18.8048" stroke="black" stroke-width="3" stroke-linecap="round"/>
<path d="M28.7695 15.86C29.9566 14.6938 31.1089 14.2109 31.8832 12.4875C32.5913 10.9113 32.7723 8.85225 32.8389 7.06395C32.8868 5.78056 32.7943 5.04822 32.3167 3.98093C32.0097 3.29487 29.4807 3.58872 28.9863 3.67892C26.6518 4.10483 25.5281 7.46585 25.1534 10.0715C24.8129 12.4387 25.2223 14.4223 25.2223 16.766" stroke="black" stroke-width="3" stroke-linecap="round"/>
<path d="M21.4978 14.7273C22.9342 12.8929 24.0847 11.1866 25.183 8.98911C25.7734 7.80786 26.6413 6.43518 26.6413 4.93714C26.6413 0.765903 22.9422 1.96951 20.9264 2.94891C17.9504 4.39479 16.8834 7.84356 17.7733 11.6317C17.9954 12.5771 19.8569 16.0489 20.611 15.4068" stroke="black" stroke-width="3" stroke-linecap="round"/>
<path d="M16.355 15.6337C17.4187 13.4761 18.9561 8.43551 17.2418 6.24623C15.0528 3.45056 10.2665 6.61533 8.49208 8.72522C7.40824 10.0139 7.13232 11.4457 7.13232 13.2302C7.13232 14.8121 8.97822 15.5254 9.97008 15.9609C11.5071 16.6356 14.0844 16.5854 15.4682 15.4072" stroke="black" stroke-width="3" stroke-linecap="round"/>
<path d="M15.1969 21.8795C15.1969 18.9365 11.2587 15.6898 9.17648 15.5498C6.17978 15.3484 1.30858 16.2092 2.0821 21.3132C2.9727 27.1897 9.24246 27.5563 12.6744 25.7301C13.5959 25.2397 14.1102 23.8496 14.5268 22.7855C14.809 22.0649 15.3742 21.3686 15.3742 20.5204" stroke="black" stroke-width="3" stroke-linecap="round"/>
<path d="M27.8836 27.412C25.8888 28.0296 24.3716 30.3717 23.2722 32.4958C21.8036 35.3334 19.8731 38.2875 20.3655 41.9211C20.6438 43.9744 21.5757 45.9736 22.3854 47.7599C22.7238 48.5064 23.2115 49.5283 23.9127 49.723C25.2276 50.088 26.7431 49.7809 28.0215 49.3455C29.2894 48.9137 31.5765 48.212 31.9629 46.2876C32.2909 44.6536 32.2677 42.98 32.4949 41.3296C32.6476 40.2209 32.8999 38.9606 32.8102 37.8313C32.645 35.7506 32.0228 33.7215 31.5293 31.7408C30.9111 29.2594 29.7075 26.959 27.5289 26.959" stroke="black" stroke-width="3" stroke-linecap="round"/>
<path d="M30.7201 24.2411C29.9493 24.3641 31.7374 29.2784 32.001 29.8282C33.4297 32.8084 34.7927 35.7665 37.243 37.5547C38.7748 38.6726 41.3387 40.2879 42.9973 38.4104C44.4533 36.7623 44.4248 33.1662 43.8053 31.0363C42.6484 27.0584 39.0797 24.1558 36.1197 22.7058C34.51 21.9173 33.2707 21.7151 31.5478 21.7495C30.8077 21.7642 30.062 21.8275 29.4392 22.3283C29.1894 22.5292 28.8837 22.6555 28.5918 22.6555" stroke="black" stroke-width="3" stroke-linecap="round"/>
<path d="M21.0162 19.88C20.6029 19.836 19.8498 19.4498 19.6909 20.1881C19.5873 20.669 19.5448 21.5444 19.8319 21.9393C20.2006 22.4465 20.8995 22.3411 21.2914 21.9523C22.2261 21.0254 23.0492 18.4718 21.599 17.6666C21.3122 17.5074 20.6934 17.2777 20.4487 17.6493C20.2666 17.9257 20.2544 18.3666 20.2618 18.706C20.2768 19.4027 20.4764 20.0067 20.8497 20.518C21.3606 21.2179 22.3036 21.9793 23.101 21.7397C23.6169 21.5847 23.7406 20.624 23.5615 20.084C23.2492 19.1421 22.2032 18.8682 21.4987 18.8145C20.7426 18.757 20.1277 19.0045 19.8761 19.9842C19.7819 20.3508 19.7444 20.7239 19.735 21.1082C19.7272 21.4319 19.6801 21.9176 19.888 22.1672C20.2489 22.6006 20.8913 22.3777 21.2507 22.0717C21.5979 21.776 21.4135 21.4463 21.1453 21.1343C20.4816 20.3619 19.5531 19.6887 18.6578 19.4981C18.3607 19.4348 18.1376 19.4075 18.0699 19.8475C18.0345 20.0774 17.9766 20.6556 18.1684 20.8088C18.4196 21.0093 18.7756 20.8298 18.9602 20.5809C19.3341 20.0769 18.9295 19.3857 18.6493 18.999C18.2474 18.4445 17.7641 17.9375 17.2067 17.6623C17.0815 17.6004 16.954 17.6183 16.8227 17.595C16.5952 17.5546 16.2726 17.515 16.0615 17.6536C15.8846 17.7698 15.8499 18.1316 15.8474 18.3567C15.842 18.8546 15.8027 19.4089 15.895 19.8974C15.9451 20.1628 16.1055 20.3746 16.2586 20.5527C16.4942 20.8267 16.8058 21.2295 17.1388 21.2862C18.1019 21.4502 19.0952 21.5986 20.0681 21.5986" stroke="#FFB327" stroke-width="3" stroke-linecap="round"/>
<path d="M25.2985 20.4268C24.9005 20.4268 24.5086 20.3538 24.1125 20.3487C23.9 20.346 23.767 20.3601 23.6487 20.6135C23.4547 21.0287 23.3832 21.5474 23.3734 22.0239C23.3679 22.2901 23.331 22.6816 23.5077 22.8789C23.6982 23.0919 24.0195 23.062 24.2434 22.9766C25.0045 22.6862 25.3076 21.5632 24.5815 20.9433C24.1733 20.5947 23.184 20.0761 22.8348 20.7957C22.6231 21.2321 22.5828 21.9111 22.619 22.4102C22.6729 23.154 23.2406 23.3938 23.7472 23.4453C24.0786 23.479 24.4507 23.4336 24.6053 22.9961C24.792 22.4675 24.3644 21.8977 24.104 21.5574C23.6459 20.9585 23.0535 20.4243 22.4202 20.1795C22.1996 20.0942 21.7277 19.9366 21.5434 20.2098C21.3681 20.4699 21.38 20.9879 21.3905 21.3057C21.4095 21.8805 21.6751 22.2565 22.1144 22.3842C22.4601 22.4847 23.0282 22.5645 23.3615 22.3516C23.7198 22.1228 23.6043 21.3672 23.4754 21.0084C23.1699 20.1585 22.3342 19.4293 21.642 19.1943C21.2923 19.0755 20.8972 19.0442 20.5359 19.0619C20.4771 19.0648 20.4124 19.0674 20.3574 19.0988C20.3475 19.1045 20.3135 19.1477 20.3133 19.1422C20.3017 18.8319 20.3275 18.5192 20.3065 18.2091C20.26 17.5237 19.7163 17.2984 19.2666 17.1458C18.8903 17.0182 18.6243 17.3154 18.5564 17.7968C18.481 18.3303 18.5167 19.1033 19.0593 19.1726C19.5124 19.2305 19.5968 18.7335 19.4433 18.2785C19.2349 17.6607 18.7135 17.3477 18.2097 17.3411C17.9612 17.3379 17.6222 17.2573 17.7068 17.7187C17.7694 18.0602 18.0218 18.2686 18.2505 18.4174C18.3302 18.4693 18.4908 18.5952 18.5852 18.5303C18.9464 18.2819 18.6024 17.5398 18.3864 17.3498C18.1077 17.1045 17.7598 17.1458 17.4383 17.1458C17.2186 17.1458 16.9448 17.0902 16.7366 17.2066C16.5793 17.2945 16.595 17.6977 16.582 17.8684C16.5478 18.3153 16.5514 18.7582 16.5514 19.2073C16.5514 19.6594 16.5514 20.1115 16.5514 20.5635C16.5514 20.6717 16.6431 20.6341 16.6431 20.7437C16.6431 21.0066 16.7396 21.2667 16.7893 21.5205C16.8653 21.909 17.0063 22.1796 17.2259 22.4601C17.3299 22.5929 17.4758 22.7067 17.5607 22.8572C17.6838 23.0757 17.8106 23.2656 17.9905 23.4149C18.197 23.5863 18.428 23.6437 18.6005 23.8641C18.7281 24.027 18.9274 24.1138 19.0967 24.1766C19.2785 24.244 19.4838 24.3822 19.671 24.4088C20.1176 24.4721 20.5587 24.6214 20.9929 24.7798C21.1356 24.8319 21.2535 24.9231 21.382 25.012C21.5857 25.1529 21.9065 25.141 22.128 25.2095C22.6673 25.3762 23.2057 25.5455 23.754 25.6587C24.0254 25.7147 24.4467 25.8713 24.7157 25.7281C24.9985 25.5776 25.0799 25.0607 25.0369 24.7147C24.965 24.136 24.3477 23.7517 23.9834 23.5191C23.6355 23.2969 23.2503 23.0933 22.8586 23.0525C22.6399 23.0298 22.3909 23.006 22.2775 23.2956C22.0122 23.9732 22.2383 24.9637 22.8382 25.1661C22.9604 25.2073 23.1456 25.2326 23.2154 25.0641C23.384 24.6575 23.0785 24.2058 22.8705 23.94C22.2927 23.2021 21.507 22.7928 20.6905 22.8507C20.6541 22.8533 20.5615 22.8593 20.5579 22.9267C20.5471 23.1339 20.4215 22.5494 20.3507 22.3625C20.1976 21.9588 19.9335 21.5928 19.5487 21.7332C19.3753 21.7964 19.2648 22.0625 19.2173 22.267C19.1655 22.4902 19.117 22.9933 19.2683 23.174C19.4246 23.3607 19.7477 23.3739 19.9361 23.2782C20.1071 23.1913 20.0985 22.8472 20.0737 22.6598C19.9375 21.6298 19.0151 20.6774 18.2709 20.3661C18.2426 20.3542 17.908 20.2425 17.9753 20.3205C18.2106 20.5937 18.5762 20.702 18.8792 20.7697C18.9244 20.7798 19.3042 20.886 19.3312 20.7914C19.4101 20.5142 19.1502 20.1289 19.0219 19.9603C18.7639 19.621 18.4435 19.3361 18.101 19.1552C18.0057 19.1049 17.815 18.9821 17.7034 19.0229C17.6756 19.033 17.7482 19.0711 17.7748 19.0858C18.0733 19.2517 18.3904 19.3742 18.7025 19.4894C19.6158 19.8266 20.5991 20.145 21.557 20.1361C22.2875 20.1292 22.8696 19.3689 23.2732 18.6561C23.3657 18.4927 23.4293 18.3744 23.2647 18.2612C23.0641 18.1233 23.0233 18.2766 23.2188 18.4326C23.3794 18.5608 23.582 18.7061 23.511 18.348C23.4084 17.83 22.9706 17.4027 22.5765 17.3021C22.2876 17.2283 21.8907 17.1953 21.6165 17.3628C21.4672 17.454 21.5179 17.5993 21.3446 17.5538C21.1893 17.5129 21.0236 17.4545 20.8638 17.4583C20.6615 17.4631 20.7407 17.9116 20.7618 18.0659C20.8757 18.8981 21.3733 19.5786 21.941 19.9711C22.3038 20.2219 22.884 20.4207 23.2919 20.238C23.7564 20.03 24.5076 18.7686 24.0072 18.1787C23.8975 18.0494 23.3907 17.8327 23.3411 18.1266C23.2867 18.45 23.157 19.5434 23.5909 19.4851C24.0755 19.4199 24.5264 18.4162 24.3878 17.838C24.3527 17.6917 23.842 17.129 23.8067 17.4843C23.7439 18.1162 24.2151 18.5829 24.6801 18.5737C25.0541 18.5662 25.1056 17.7292 25.0675 17.4019C25.0445 17.2051 24.9893 16.8724 24.7939 16.8724C24.6246 16.8724 24.6919 17.4278 24.7242 17.5364C24.7555 17.6415 25.0226 18.0461 25.1456 17.8706C25.2081 17.7814 25.1762 17.5657 25.1762 17.4583C25.1762 17.1819 25.073 16.9957 24.8772 16.8637C24.8627 16.854 24.7103 16.745 24.6937 16.7639C24.6445 16.8197 24.6873 17.1887 24.6886 17.2521C24.6986 17.7462 24.823 18.1017 25.0845 18.4652C25.2572 18.7053 25.5124 19.0911 25.7879 19.1292C26.0517 19.1656 26.0881 18.8333 26.109 18.578C26.1466 18.1191 26.1896 17.629 26.1175 17.1719C26.0829 16.9522 25.998 16.7596 25.8049 16.7596C25.5564 16.7596 25.552 17.3688 25.5483 17.5776C25.5385 18.1286 25.674 18.5477 26.0156 18.8948C26.3307 19.2151 26.7211 19.5142 27.0996 19.6956C27.1815 19.7348 27.4899 19.9052 27.5312 19.7194C27.6324 19.2638 27.5946 18.694 27.4632 18.2568C27.4033 18.0572 27.2642 17.7255 27.0572 17.7426C26.7318 17.7694 26.6306 18.6877 26.5967 18.9599C26.5104 19.6527 26.4597 20.5521 26.7428 21.1885C26.884 21.5058 27.2932 21.9184 27.6026 21.8069C27.8527 21.7169 27.8244 21.057 27.8371 20.8131C27.8681 20.2135 27.8923 19.544 27.7589 18.9599C27.7231 18.8033 27.6633 18.5578 27.5006 18.5693C27.2233 18.589 27.1485 19.2762 27.1234 19.5198C27.075 19.9892 27.0522 20.6424 27.2933 21.0366C27.4569 21.3039 27.7285 21.4559 27.9764 21.5509C28.4014 21.7137 28.4102 21.1006 28.2737 20.7198C28.1754 20.4455 27.9879 20.1838 27.7453 20.1317C27.4179 20.0614 27.2454 20.3731 27.1523 20.7328C26.9589 21.4799 26.9404 22.3236 26.9501 23.1046C26.9577 23.7139 27.1135 24.1406 27.606 24.2764C27.9516 24.3717 28.8758 24.5895 28.9857 23.9249C29.0882 23.3046 28.8299 22.7967 28.4318 22.4775C28.3118 22.3813 28.1893 22.2626 28.0511 22.2149C27.8921 22.16 27.8608 22.3547 27.8252 22.5296C27.7416 22.9397 27.7248 23.5253 27.888 23.9075C28.0015 24.1732 28.2897 24.3972 28.5337 24.3155C28.7531 24.2419 28.8267 23.8056 28.8582 23.5668C28.9172 23.1209 28.9305 22.6385 28.8633 22.1932C28.7593 21.5032 28.3906 20.9144 27.8727 20.6829C27.7669 20.6356 27.7585 20.7296 27.7453 20.8608C27.6912 21.4005 27.6986 22.0461 27.9696 22.4927C28.1774 22.8352 28.317 22.4724 28.4776 22.2843C28.5402 22.2111 28.6025 22.1603 28.6764 22.1064C28.8257 21.9975 28.7546 21.516 28.7546 21.3556C28.7546 20.8412 28.7963 20.2873 28.707 19.7823C28.5435 18.8573 28.1911 17.1952 27.2492 17.1849C26.936 17.1815 26.6227 17.1849 26.3095 17.1849C26.0626 17.1849 25.7928 17.1421 25.5602 17.2717C24.9065 17.636 24.5823 18.7434 24.3079 19.522C24.2193 19.7735 24.1894 20.0942 24.1533 20.3639C24.0779 20.9279 24.0793 21.7134 24.3402 22.1845C24.6192 22.6882 25.019 23.0949 25.4124 23.4431C25.5927 23.6027 25.7735 23.7496 25.9884 23.8164C26.2797 23.9069 26.337 22.4734 26.3486 22.3017C26.3868 21.7367 26.144 21.3636 25.8049 21.0518C25.6683 20.9262 25.4789 20.6006 25.4141 20.9563C25.2947 21.6115 25.2756 22.2826 25.2697 22.9527C25.2653 23.4462 25.1828 24.1382 25.4192 24.5759C25.7298 25.1511 26.7322 22.6911 26.8074 22.3972C26.9475 21.8491 26.9002 21.5506 26.5338 21.2124C26.2893 20.9866 26.0127 20.7875 25.7267 20.6612C25.5006 20.5613 24.8854 20.3179 24.6886 20.6069C24.2512 21.2493 24.291 22.3674 24.3419 23.1437C24.3981 23.999 24.6498 24.7598 25.0369 25.4569C25.3314 25.9873 25.7167 26.5421 26.2229 26.7372C26.4733 26.8337 26.5292 26.6452 26.5984 26.3726C26.695 25.9918 26.7731 25.5713 26.7904 25.1704C26.8226 24.4236 25.9699 24.3719 25.55 24.3719C25.4261 24.3719 25.4371 24.4979 25.4226 24.6366C25.3732 25.1094 25.4069 25.6357 25.5058 26.0905C25.5612 26.3452 25.6894 26.3592 25.8729 26.4507C26.2004 26.6141 26.6202 26.5879 26.9637 26.5375C27.3729 26.4775 27.6605 26.4331 27.9526 26.0601C28.1822 25.7669 28.4236 25.4144 28.447 24.9795C28.4688 24.5775 28.3879 24.3649 28.0511 24.2721C27.9203 24.236 27.7572 24.1985 27.623 24.22C27.4352 24.25 27.2983 24.5241 27.1982 24.7039C27.1125 24.8578 26.8893 25.4382 26.9994 25.6413C27.1432 25.9066 27.6383 25.8952 27.8608 25.8952C28.1324 25.8952 28.3689 25.9188 28.617 25.778C28.6905 25.7363 28.7743 25.6747 28.8311 25.6023C28.8728 25.5489 28.8967 25.4794 28.9381 25.4265C28.9865 25.3647 29.0643 25.346 29.1216 25.2616C29.2595 25.0584 29.458 24.7175 29.458 24.4305C29.458 24.1115 29.458 23.7925 29.458 23.4735C29.458 23.0814 29.5125 22.5843 29.441 22.2062C29.3655 21.8065 29.0452 21.4485 28.8446 21.1451C28.3975 20.4688 27.9717 19.8019 27.2933 19.4981C27.103 19.4128 26.9137 19.3191 26.7224 19.2377C26.1503 18.9941 25.6461 18.6192 25.1422 18.1917C24.4937 17.6416 23.9016 16.9056 23.1457 16.5838C23.0694 16.5513 23.0441 16.5589 22.9979 16.4818C22.938 16.3817 22.6614 16.4427 22.5782 16.4427C22.0938 16.4427 21.6191 16.4138 21.1391 16.3256C20.6992 16.2447 20.2655 16.1896 19.8239 16.1389C19.6881 16.1234 19.5507 16.1303 19.4144 16.1303C19.3583 16.1303 19.3222 16.0807 19.27 16.0955C19.1132 16.14 18.9519 16.3027 18.8146 16.4037C18.6244 16.5436 18.4121 16.6592 18.2046 16.7509C17.9554 16.8611 17.6984 16.9666 17.4451 17.059C17.1791 17.1561 17.1123 17.1412 17.0543 17.5429C16.9757 18.0878 16.945 18.7635 17.1478 19.2702C17.292 19.6307 17.3791 20.0856 17.4315 20.4876C17.5563 21.4438 17.9592 22.515 18.6515 23.0178C18.7825 23.1129 19.0613 23.1209 19.0967 23.3433C19.1117 23.4376 19.1104 23.5389 19.1358 23.6297C19.1695 23.7503 19.1681 23.8469 19.2428 23.9422C19.5068 24.2793 19.7003 24.7591 19.9836 25.0749C20.2177 25.3359 20.4493 25.4808 20.7415 25.574C21.0017 25.6571 21.2828 25.6768 21.535 25.7976C21.7227 25.8875 21.8702 25.8952 22.0702 25.8952C22.3368 25.8952 22.5015 26.1084 22.7226 26.2684C22.9341 26.4214 23.2823 26.4254 23.5178 26.4724C23.6856 26.5059 23.8471 26.5789 24.0157 26.6004C24.281 26.6343 24.5129 26.7456 24.7633 26.8522C25.0382 26.9692 25.2829 26.9889 25.5738 26.9889C25.7148 26.9889 25.8559 26.9889 25.9969 26.9889C26.1162 26.9889 26.048 26.9509 25.968 26.876C25.5653 26.4992 25.1437 26.1568 24.7412 25.7802C24.3683 25.4313 24.0419 24.9995 23.6283 24.7256C23.1187 24.3881 22.5628 24.1498 22.0736 23.7643C21.9451 23.663 21.7991 23.5351 21.7202 23.365C21.6866 23.2926 22.4381 23.4003 22.5018 23.4214C22.871 23.5442 23.1155 23.8345 23.4244 24.0898C23.5417 24.1867 23.5041 24.2336 23.3921 24.1332C22.9074 23.6985 22.4663 23.1685 22.0158 22.6793C21.5601 22.1844 21.1286 21.6303 20.6565 21.1625C20.63 21.1362 20.324 20.9373 20.3269 20.8869C20.3284 20.8593 20.3884 20.7742 20.3948 20.761C20.4892 20.5682 20.5556 20.3531 20.6208 20.1426C20.8857 19.2878 21.5094 17.2569 20.4798 16.8507C20.2418 16.7568 20.0908 16.808 20.0448 17.148C19.913 18.122 20.5128 19.019 21.0303 19.6239C21.5192 20.1954 22.1403 20.7563 22.8093 20.9064C23.1661 20.9864 23.1743 20.7228 23.2018 20.327C23.225 19.9927 23.257 19.5512 23.0523 19.2898C22.8736 19.0615 22.5098 19.0154 22.2758 19.0901C21.9756 19.186 21.8001 19.6862 21.7405 20.0362C21.5763 21.0009 22.3887 21.7362 22.9537 22.1324C23.208 22.3107 23.4787 22.4532 23.7557 22.5621C23.9361 22.633 24.1873 22.75 24.381 22.6966C24.6647 22.6185 24.5643 21.614 24.5577 21.3773C24.5371 20.634 24.4476 19.8634 24.1193 19.2312C23.9722 18.9477 23.6131 18.4243 23.3139 18.7299C23.011 19.0394 22.9955 19.879 23.1135 20.301C23.3102 21.0052 23.9965 21.3658 24.5203 21.5248C24.7102 21.5825 25.1661 21.715 25.3461 21.5335C25.5457 21.3323 25.4868 20.811 25.4311 20.5527C25.3352 20.1082 25.0769 19.7527 24.7361 19.6001C24.54 19.5123 24.1867 19.4459 24.0276 19.6717C23.8679 19.8983 23.8482 20.3793 23.9664 20.6352C24.1332 20.9961 24.5623 21.0971 24.8636 21.1256C25.5287 21.1885 25.1276 19.9869 24.9383 19.6131C24.724 19.1897 24.4115 18.7405 24.014 18.6084C23.4388 18.4172 23.097 18.7881 22.8416 19.433C22.489 20.3232 22.097 21.6489 22.5255 22.612C22.785 23.1951 23.3632 23.5684 23.8713 23.6514C24.1356 23.6946 24.3447 23.7137 24.4099 23.339C24.6002 22.245 24.1742 20.9295 23.7982 19.9798C23.3798 18.9229 22.8013 17.7487 22.0158 17.072C21.7796 16.8685 21.2998 16.5774 21.0235 16.829C20.7041 17.1198 20.5578 17.7488 20.4883 18.2091C20.3134 19.3673 20.6134 20.2581 21.2478 21.0995C21.7918 21.8211 22.4823 22.4197 23.2154 22.7834C23.4414 22.8956 23.5765 22.9942 23.5841 22.6272C23.6143 21.1621 23.0532 19.6848 21.9342 19.1552C21.7567 19.0712 21.5205 19.0051 21.3379 19.1075C21.054 19.2666 20.9224 19.7882 20.8468 20.1317C20.6411 21.0661 20.5264 22.8129 21.4381 23.2131C21.5426 23.259 21.5858 23.2331 21.5095 23.0959C21.268 22.6622 20.8832 22.3118 20.5325 22.037C20.3824 21.9194 20.0869 21.6486 19.8919 21.7809C19.767 21.8656 19.7143 22.1285 19.671 22.28C19.5934 22.5514 19.5333 22.8305 19.4875 23.1133C19.4302 23.4666 19.3397 24.0275 19.5775 24.3089C19.7488 24.5116 20.0059 24.5974 20.2249 24.667C20.6321 24.7963 21.0536 24.8521 21.4721 24.871C21.6442 24.8787 22.2328 24.9848 22.3556 24.7321C22.5298 24.3737 22.1776 23.8732 21.9886 23.6731C21.7064 23.3742 21.3531 23.1156 20.9997 22.9831C20.8919 22.9426 20.6447 22.8517 20.5596 22.9983C20.4173 23.2437 20.4253 23.6836 20.4118 23.9726C20.4029 24.1631 20.3394 24.615 20.4424 24.7842C20.527 24.9231 20.788 24.8218 20.8774 24.7538C21.0634 24.6122 21.2012 24.3777 21.1798 24.0898C21.1523 23.7186 20.899 23.4434 20.6854 23.2283C20.6692 23.212 20.3877 22.9386 20.3761 23.0786C20.3359 23.5665 20.5625 24.0957 20.772 24.476C20.953 24.8045 21.2559 25.2534 21.574 25.3766C21.8176 25.4708 21.5991 24.6454 21.5808 24.5759C21.2653 23.3749 20.6859 22.1436 19.9666 21.2688C19.6579 20.8932 19.3098 20.5838 18.8843 20.4898C18.8421 20.4804 18.6661 20.4201 18.6311 20.4919C18.5429 20.6734 18.5619 20.9916 18.575 21.1907C18.6158 21.8061 19.1931 22.006 19.5843 22.1585C19.6144 22.1702 20.1081 22.3948 20.0788 22.2279C20.0076 21.8225 19.6004 21.3596 19.3668 21.1039C19.1784 20.8976 18.9522 20.7027 18.7059 20.6308C18.6642 20.6187 18.7739 20.7012 18.8146 20.7176C19.346 20.9317 19.9523 20.969 20.5036 20.9824C21.3373 21.0025 22.3156 20.8844 23.0047 20.2163C23.155 20.0707 23.3996 19.8119 23.4499 19.5588C23.5675 18.9676 22.2901 18.9816 22.0498 18.9816C21.9292 18.9816 21.8295 18.9918 21.7202 19.0597C21.6978 19.0736 21.5769 19.1757 21.5689 19.1097C21.5284 18.7733 21.7126 18.3895 21.4517 18.1397C21.4271 18.1161 21.7947 18.1408 21.8323 18.144C22.5459 18.2053 23.2622 18.299 23.9664 18.4608C24.9697 18.6913 25.9427 19.1208 26.8685 19.6608C27.2099 19.8599 27.5428 20.079 27.8608 20.3335C27.942 20.3985 28.0651 20.4743 28.1225 20.5809C28.1869 20.7005 27.9565 20.7303 27.9084 20.748C27.6731 20.8347 27.4474 20.9708 27.2288 21.1104C27.0231 21.2417 26.8733 21.4233 26.7122 21.629C26.6333 21.7298 26.4662 22.034 26.3452 21.8373C26.1869 21.5801 26.193 21.1068 26.1872 20.8001C26.1807 20.4545 26.1535 20.072 26.2467 19.7411C26.2608 19.691 26.3516 19.4049 26.3163 19.6348C26.195 20.4266 26.0027 21.2056 25.8525 21.9892C25.7817 22.3585 25.7363 22.7975 25.6044 23.1437C25.5682 23.2387 25.5738 23.0512 25.5738 23.0243C25.5738 22.8342 25.519 23.1726 25.5126 23.2044C25.3728 23.9034 25.2855 24.6346 25.2374 25.3527C25.2226 25.573 25.2124 25.7935 25.2085 26.0146C25.2072 26.0854 25.1799 26.3071 25.2238 26.3791C25.2861 26.4814 25.441 26.3926 25.5058 26.3574C26.0395 26.0674 26.4969 25.6423 26.9739 25.2312C27.4187 24.8478 27.7256 24.3023 28.1888 23.9422C28.5488 23.6624 28.5711 23.356 28.5711 22.8485C28.5711 22.7199 28.5794 22.627 28.4589 22.6164C28.2819 22.6008 28.0948 22.6101 27.922 22.6619C27.3857 22.8227 27.1176 23.3966 26.7836 23.8966C26.4337 24.4206 25.7486 24.2029 25.55 24.9274C25.4671 25.2299 25.3098 25.9027 25.6792 25.995C26.022 26.0807 26.3863 25.9212 26.7037 25.7759C27.0657 25.6102 27.4251 25.4162 27.7691 25.1965C27.8971 25.1148 27.9983 24.9622 28.1276 24.9013C28.2302 24.8531 28.3261 24.7588 28.3876 24.6366C28.5353 24.3432 28.6849 23.9729 28.7699 23.6471C28.815 23.4741 28.7739 23.461 28.792 23.378C28.8688 23.025 29.1078 22.6804 29.2864 22.4015C29.4053 22.216 29.3786 21.8582 29.3051 21.6594C29.2149 21.4153 29.1489 21.198 29.1284 20.9259C29.1038 20.6006 29.1059 20.2675 29.091 19.9408C29.0867 19.8449 29.1102 19.1726 29.0468 19.127C28.9869 19.084 28.8185 19.1434 28.7682 19.1552C28.3548 19.2522 28.0572 19.458 27.7181 19.7889C27.2688 20.2274 26.7896 20.7133 26.4404 21.2883C26.2941 21.5291 26.2846 21.8017 26.2467 22.089C26.1497 22.8234 26.0443 23.5685 25.9102 24.2938C25.8377 24.686 25.8121 25.113 25.7284 25.4872C25.7007 25.6112 25.4342 25.6064 25.3461 25.6413C25.1851 25.7051 25.0241 25.7599 24.8636 25.8258C24.5035 25.9736 24.0543 25.9733 23.681 25.9733C23.6134 25.9733 23.622 25.9978 23.579 26.0428C23.5332 26.0906 23.3644 26.0514 23.3106 26.0514C22.9149 26.0514 22.6012 25.9826 22.2469 25.739C21.7582 25.4029 21.1351 25.4117 20.6803 24.9968" stroke="#4912FF" stroke-width="8" stroke-linecap="round"/>
</svg>
