<svg width="57" height="55" viewBox="0 0 57 55" fill="none" xmlns="http://www.w3.org/2000/svg">
<path d="M30.2875 21.5273C26.1443 21.5273 21.3831 21.642 18.2136 24.5865C16.4251 26.2482 17.9369 30.2569 18.5307 32.1325C20.1409 37.2185 26.0007 40.2904 31.3852 40.2904C34.108 40.2904 33.4937 37.7509 34.678 35.8942C36.4443 33.1252 35.9952 29.7598 35.9952 26.6487C35.9952 24.64 35.4522 22.4732 33.8975 21.0288C32.2918 19.537 30.3052 20.7116 28.5313 20.7116" stroke="black" stroke-width="3" stroke-linecap="round"/>
<path d="M30.2881 19.8952C25.1267 15.5797 17.7917 10.2786 25.2634 4.59925C29.0769 1.70048 34.0463 0.618204 37.5324 4.57659C39.5124 6.82491 42.7543 11.3198 39.0691 13.4596C37.6401 14.2893 37.2824 16.6353 35.7518 17.4479C34.4456 18.1413 33.3874 19.2713 32.0443 19.8952" stroke="#F6A0E8" stroke-width="3" stroke-linecap="round"/>
<path d="M35.1159 20.3026C35.1159 18.3499 36.7766 15.7092 37.9453 14.003C39.2541 12.0923 41.7677 10.4428 43.6774 9.06293C45.3367 7.86397 47.7817 7.596 49.385 9.08559C51.6278 11.1692 51.6769 11.9784 52.4584 14.5921C53.1805 17.0074 53.7038 19.3221 51.2632 20.8918C49.156 22.2471 47.4836 24.3816 44.775 24.3816C42.3197 24.3816 40.8478 22.9791 38.6283 22.75C37.3871 22.6219 34.7642 21.6886 34.2378 20.7105" stroke="#F6A0E8" stroke-width="3" stroke-linecap="round"/>
<path d="M36.4341 26.4218C36.9385 22.2042 44.424 20.7113 47.8738 20.7113C50.2101 20.7113 52.9439 20.1417 54.3376 22.3428C55.1019 23.5499 55.2534 25.8986 54.5327 27.2375C52.6312 30.7706 46.696 34.2282 42.3613 33.3333C39.7244 32.7889 40.2379 30.0233 39.166 28.7785C38.2482 27.7127 37.0945 26.0172 36.4341 24.7902" stroke="#F6A0E8" stroke-width="3" stroke-linecap="round"/>
<path d="M37.312 32.1318C39.6755 32.1318 41.2203 30.5131 43.2391 29.5032C44.3216 28.9617 48.2594 28.8887 49.1663 29.6845C52.8433 32.9107 51.5979 37.6228 48.2882 40.6976C44.7272 44.0059 38.8288 45.092 36.5314 40.2897C35.2079 37.5231 37.7334 34.5629 35.1167 32.1318" stroke="#F6A0E8" stroke-width="3" stroke-linecap="round"/>
<path d="M32.9209 39.4744C32.9209 40.7049 33.623 41.6559 34.1405 42.7375C34.7123 43.933 34.6771 46.3118 34.6771 47.6096C34.6771 51.9364 29.6663 54.0028 25.5546 52.5269C20.3122 50.6452 19.9901 46.2667 23.0422 42.171C23.6578 41.345 24.8509 40.088 25.6765 39.4744C26.5532 38.8228 26.6316 37.4296 27.2132 36.6191" stroke="#F6A0E8" stroke-width="3" stroke-linecap="round"/>
<path d="M21.9451 36.619C21.9451 39.4407 21.1387 44.1446 19.5303 46.635C18.1189 48.8205 17.7176 49.4541 14.6763 49.6489C12.1219 49.8126 9.73129 49.8117 8.55403 47.4055C4.96305 40.066 13.848 32.948 21.067 32.948" stroke="#F6A0E8" stroke-width="3" stroke-linecap="round"/>
<path d="M18.4316 29.6849C13.9975 29.6849 10.6373 32.3781 6.1382 32.1322C4.70143 32.0537 4.4753 29.3133 4.3576 28.4385C3.95382 25.4375 3.97305 23.8731 5.45523 21.1191C6.58344 19.0228 11.883 16.7724 14.2606 18.4905C16.0084 19.7534 17.1145 22.8321 17.1145 24.7901" stroke="#F6A0E8" stroke-width="3" stroke-linecap="round"/>
<path d="M25.4563 20.7115C21.3793 20.7115 16.8739 21.1378 12.9433 20.3263C10.4625 19.8141 10.9676 18.3996 10.9676 16.2247C10.9676 12.6832 13.0876 11.3312 16.5777 10.1063C19.3964 9.11705 28.5296 7.68247 28.5296 12.3724C28.5296 14.0416 28.9678 16.3293 28.432 17.9469C27.9142 19.5105 27.2125 20.6812 27.2125 22.3431" stroke="#F6A0E8" stroke-width="3" stroke-linecap="round"/>
<path d="M18.4326 27.2375C14.2305 27.2375 9.99548 27.6454 5.91968 27.6454C5.02686 27.6454 2.18775 27.1971 2.18775 28.2573C2.18775 29.0752 1.70631 31.8518 2.28532 32.4495C4.6974 34.9394 6.1985 36.2112 9.87114 36.2112C12.3084 36.2112 14.3116 35.6866 16.6764 35.3727C18.5577 35.1231 18.9015 33.3143 19.7498 32.1323" stroke="#F6A0E8" stroke-width="3" stroke-linecap="round"/>
<path d="M26.3429 26.9621C24.8595 26.9621 24.8507 28.0922 25.6191 29.2059C26.8256 30.9545 30.0146 30.7852 31.2397 29.1784C31.6331 28.6624 32.4042 27.1274 31.8379 26.523C31.0584 25.6909 29.0234 25.9741 27.9678 25.9741C26.9221 25.9741 26.5986 25.9475 26.5054 27.0445C26.3874 28.4335 26.4722 29.7733 27.4065 30.9144C28.9484 32.7979 31.0617 30.4421 30.9738 28.7667C30.9269 27.8735 29.9984 27.7032 29.2086 27.7032C28.162 27.7032 28.2612 29.2164 28.2041 29.9058C28.1769 30.2339 27.8158 31.3241 28.2632 31.532C28.6611 31.7168 30.0166 31.8582 30.2721 31.4084C31.1955 29.7831 26.6645 28.5564 25.8702 30.2008C25.6745 30.606 25.4085 31.8418 25.9145 32.1426C26.5729 32.5341 28.1223 32.6183 28.5956 31.9368C30.0174 29.8893 27.5826 26.6993 25.0873 26.8592C24.0066 26.9284 24.0623 28.7298 24.1124 29.4049C24.2002 30.5876 24.5015 31.3922 25.9145 31.4084C27.1835 31.423 27.6743 30.6767 27.7757 29.5558C27.9206 27.9561 26.8989 27.0888 25.2794 26.7426C24.2921 26.5314 23.063 26.3304 22.0444 26.4818C21.4235 26.5741 21.4002 27.7557 21.4314 28.1904C21.5162 29.3719 24.6285 29.9196 24.7402 28.6226C24.7775 28.1892 24.9127 27.3582 24.4226 27.1131C23.7834 26.7933 22.7376 26.6097 22.0149 26.5916C21.2455 26.5723 21.4021 27.8142 21.6603 28.3207C22.0981 29.1793 22.6205 27.9054 22.6205 27.5179C22.6205 26.5929 21.9676 25.9422 20.9587 25.7339C20.2275 25.583 19.1914 26.5397 19.0015 27.1131C18.6769 28.0929 18.682 28.824 19.2304 29.7411C19.4228 30.0628 19.3779 30.4481 19.5332 30.7909C19.6694 31.0913 19.9424 31.7226 19.9616 32.026C19.9959 32.5674 20.7268 34.1964 21.3649 34.3658C22.3729 34.6334 23.4119 35.3359 24.1863 36.0057C25.126 36.8186 25.6594 37.4604 27.015 37.4604C27.8384 37.4604 28.3598 37.475 29.0756 37.8378C30.0036 38.308 30.0653 38.8808 30.0653 37.33C30.0653 35.9672 30.2294 34.5118 29.7994 33.1925C29.5831 32.5287 29.3612 31.4903 28.4995 31.3124C27.3978 31.0849 26.9533 32.0134 26.7713 32.8768C26.5816 33.7766 26.5135 34.72 26.4832 35.6352C26.4693 36.0555 26.3705 36.6967 26.6679 37.0624C27.2996 37.8392 29.1526 36.4764 28.5069 35.7381C28.127 35.3037 24.8638 34.9494 25.0282 35.4842C25.1569 35.9025 26.3304 35.9863 26.7122 35.9783C27.6598 35.9583 26.2347 34.3129 26.077 34.1531C25.3466 33.4128 24.2338 32.5027 23.1818 32.1769C23.0129 32.1246 23.4463 32.3683 23.684 32.2456C24.3301 31.9121 22.6252 29.2668 22.4875 28.6913C22.3134 27.9634 22.4937 27.5793 22.6279 26.8935C22.9556 25.2189 24.9768 24.7389 26.4758 24.341C27.5486 24.0563 28.4625 23.595 29.5336 23.3186C30.2703 23.1285 30.4986 23.1557 30.9959 22.6393C31.2267 22.3997 31.9783 21.9037 31.764 21.5277C31.3554 20.8107 29.429 21.4699 28.8688 21.5277C28.375 21.5787 27.4538 22.1598 27.0667 22.4541C26.4788 22.9009 25.4456 22.9726 24.7402 23.202C23.8546 23.4899 23.0506 23.7137 22.2217 24.1214C21.053 24.6962 21.3627 25.6859 21.4535 26.8386C21.5716 28.3373 22.2365 29.5069 23.0784 30.736C23.2677 31.0123 23.3974 31.2629 23.6249 31.532C24.2057 32.2187 25.8592 32.387 26.7196 32.5132C28.2626 32.7395 28.77 32.3232 29.637 31.1065C30.5512 29.8235 31.9265 28.3573 31.9265 26.7563C31.9265 25.5888 31.7114 24.7992 30.3903 24.5537C29.6768 24.4211 28.599 24.0407 28.3961 24.8213C27.6413 27.7268 27.6723 30.756 27.6723 33.7277C27.6723 34.551 27.8337 35.0826 28.0712 35.8548C28.3211 36.6673 30.1472 36.4168 30.7153 36.2116C32.0667 35.7233 32.6616 34.849 33.0492 33.563C33.372 32.4919 33.3889 31.3442 33.3889 30.242C33.3889 29.6233 33.4019 28.8047 33.5514 28.1972C33.8025 27.1765 33.6548 26.0346 33.6548 24.986C33.6548 24.5773 33.7939 23.6468 33.4406 23.3186C32.9064 22.8223 32.0361 22.7628 31.3357 22.7628C29.8827 22.7628 29.6566 24.3995 29.3711 25.48C28.9367 27.1241 28.8688 28.7334 28.8688 30.4204C28.8688 31.8072 28.7809 33.2148 28.9722 34.5922C29.089 35.4327 29.8426 35.6581 30.6636 35.0931C31.737 34.3544 32.8807 32.6399 32.9827 31.3604C33.0729 30.2296 33.0445 29.0702 33.2264 27.9502C33.3644 27.1011 33.6212 26.1042 33.6548 25.2604C33.6757 24.7365 33.8056 24.2193 33.3151 23.9293C32.4707 23.4301 31.2827 23.5039 30.3312 23.5039C29.0559 23.5039 27.7807 23.5039 26.5054 23.5039C26.1159 23.5039 25.6646 23.5656 25.2794 23.5039C24.4693 23.3741 23.8146 22.7912 22.9898 22.7628C21.8931 22.7251 21.0036 22.4971 20.0281 23.202C18.7095 24.1548 17.8659 25.3574 17.8345 26.9621C17.7949 28.9861 17.8304 31.2811 19.4889 32.8219C20.4656 33.7293 21.491 34.5934 22.458 35.5117C23.2933 36.305 24.2695 37.3369 25.5748 37.3369C26.1918 37.3369 26.2567 37.2334 26.7417 37.5839C27.1922 37.9094 27.6711 38.1905 28.1303 38.5033C28.6836 38.8804 29.3794 38.9072 30.0062 38.6955C30.8561 38.4084 31.7846 37.5701 32.4288 36.9938C33.0696 36.4205 33.5648 36.0816 33.8173 35.2372C34.1971 33.9671 35.3807 32.9199 35.6416 31.5868C35.9594 29.963 35.9148 28.2734 35.9148 26.619C35.9148 26.263 36.1413 24.9071 35.8853 24.6429C35.4848 24.2295 34.9738 23.8202 34.482 23.5039C33.1584 22.6526 30.8364 22.8339 29.408 23.3804C27.2863 24.192 26.2448 25.4772 25.8407 27.5797C25.6024 28.8191 25.6226 30.1508 25.6782 31.4084C25.7532 33.1036 28.4582 33.1681 29.7699 33.2336C30.7832 33.2842 32.0376 33.4251 33.0492 33.2542C33.4303 33.1898 33.4089 32.1524 33.4628 31.9093C33.5752 31.4022 33.7102 30.9451 33.6474 30.4204C33.5613 29.7003 32.456 29.2887 31.8453 29.0618C30.8635 28.6969 29.826 28.4564 28.7654 28.4442C28.1414 28.4371 27.1716 28.279 26.5792 28.4991C25.5411 28.8849 25.0447 30.1626 24.6737 31.0242C24.3019 31.8879 24.067 32.7288 24.0829 33.6591C24.095 34.3681 24.3847 34.8886 25.0799 35.2235C25.5199 35.4354 26.5417 35.7019 26.8008 35.1549C28.0363 32.5462 26.8986 29.6868 24.2232 28.3962C23.1489 27.878 21.9641 27.641 20.7593 27.7032C19.8063 27.7524 20.1852 29.4291 20.257 30.0224C20.5886 32.7608 23.1268 34.9916 25.5969 36.2665C26.1821 36.5685 27.4314 37.0491 27.9308 36.3762C28.3441 35.8195 28.3864 35.0189 28.47 34.3727C28.5799 33.524 28.7409 32.6497 28.7137 31.7927C28.6212 28.8687 24.4631 27.2645 21.7785 27.0925C20.8885 27.0355 20.3437 27.6663 20.5672 28.5266C21.0185 30.2634 23.7414 32.5048 25.6782 31.2575C27.7569 29.9188 28.1594 25.4942 25.0135 25.1369C24.5942 25.0893 23.2661 24.8954 22.9528 25.2536C22.3956 25.8908 22.2604 26.9209 22.1552 27.7032C21.836 30.0755 23.4339 31.1772 25.693 32.1152C28.0201 33.0814 30.531 33.4075 33.0492 33.6042C34.3199 33.7034 35.7364 33.8858 37.0079 33.6728C39.2448 33.298 39.3323 29.4031 37.4068 28.5952C36.0564 28.0286 34.0585 27.9317 32.7242 28.5403C29.8701 29.842 33.0379 32.5238 34.7479 33.3571C35.2492 33.6014 36.1807 34.1432 36.1807 33.3434C36.1807 31.2591 35.75 29.381 34.5189 27.6071C33.9653 26.8093 33.1193 25.714 32.089 25.384C31.774 25.283 31.3493 25.324 31.0255 25.281C30.213 25.1732 29.4228 24.9509 28.6029 24.8899C27.1076 24.7788 25.887 24.9004 24.8805 26.0289C24.2101 26.7807 23.3913 28.2194 23.7136 29.2539C24.0533 30.3442 27.6006 28.7698 28.049 28.5472C29.1475 28.0017 30.1675 27.326 31.1732 26.6465C31.3607 26.5198 31.8694 26.2829 31.9192 26.0289C32.0438 25.3919 30.7115 24.9364 30.2574 24.739C28.9895 24.1876 27.729 23.919 26.3577 23.696C26.0391 23.6442 25.4148 23.4877 25.1464 23.7509C24.4771 24.4073 24.6879 26.0989 24.8362 26.8661C25.2579 29.0469 27.5431 30.0953 29.6813 30.5439C30.8639 30.792 30.4666 30.0405 29.9767 29.2539C28.2446 26.4726 25.2421 24.8143 21.8228 24.986C20.9984 25.0274 21.291 26.6738 21.291 27.2091" stroke="#FE33F4" stroke-width="3" stroke-linecap="round"/>
<path d="M45.3765 12.5841C44.326 12.7008 42.9141 13.1186 42.1196 13.8248C41.7259 14.1748 41.2569 14.4244 40.9996 14.9104C40.8249 15.2404 40.5892 15.755 40.2586 15.9616C39.8727 16.2027 38.3975 17.3157 38.3975 17.702C38.3975 17.9814 38.2383 19.0247 38.432 19.2185C38.6505 19.437 39.8985 19.2659 40.2241 19.2529C42.0767 19.1788 45.1591 19.5509 46.7378 18.2879C47.3785 17.7754 48.7339 18.0122 49.5639 18.0122C50.6295 18.0122 50.0178 17.2263 49.719 16.4958C49.3788 15.6643 48.9605 14.8962 48.5127 14.135C47.9495 13.1776 47.5477 12.8451 47.5477 11.6536C47.5477 11.437 47.1594 10.13 46.8067 10.4474C46.3971 10.8161 46.5184 11.6915 45.9968 11.9982C45.4337 12.3295 44.9922 13.0073 44.5666 13.4802C43.9698 14.1432 43.2497 14.7572 42.74 15.4963C42.6721 15.5948 41.615 17.0018 41.6888 17.0472C42.3987 17.4841 44.0801 16.933 44.8423 16.806C45.1418 16.7561 45.4055 16.6164 45.6867 16.6164C46.4705 16.6164 47.6762 16.1501 48.2025 15.5653C48.7541 14.9524 49.4405 13.586 49.0641 12.7392C48.8313 12.2153 48.3344 11.8312 48.0475 11.3434C47.7667 10.8662 47.2041 10.9495 46.7723 10.7575C45.9916 10.4105 44.5023 10.272 44.1358 11.1883" stroke="#FE33F4" stroke-width="3" stroke-linecap="round"/>
<path d="M31.2635 10.8782C31.2635 11.3407 31.2906 11.8124 31.2635 12.274C31.2407 12.6608 30.9533 13.062 30.9533 13.5147C30.9533 14.4398 31.0076 15.3831 30.9533 16.3063C30.9511 16.3429 30.6691 16.7777 30.8844 16.6854C31.1451 16.5736 31.3386 16.4725 31.5392 16.2718C31.7718 16.0392 31.9958 15.798 32.2285 15.5653C32.8604 14.9333 33.309 13.9804 34.124 13.5147C34.8711 13.0878 35.3111 12.1156 35.9937 11.5847C36.2782 11.3634 37.9292 10.5036 37.2344 9.94769C36.635 9.46818 36.3093 8.47028 35.8299 7.854C35.4945 7.42271 35.1324 6.99273 34.7529 6.61329C34.3771 6.23743 34.4276 5.69586 34.0206 5.3295C32.619 4.06806 30.252 4.68069 28.782 5.41566C27.8783 5.86754 27.3046 6.48437 26.5763 7.12163C26.3828 7.29097 27.0471 6.90054 27.3001 6.85454C27.561 6.80711 27.8635 6.84592 28.1272 6.84592C28.9074 6.84592 29.0485 6.9239 29.635 7.38011C29.9087 7.593 30.2641 7.81586 30.3415 8.16417C30.4385 8.60032 30.6297 9.02696 31.0308 9.24979C31.7784 9.66511 32.55 10.568 33.5122 10.568C33.8074 10.568 34.5558 10.7154 34.6668 10.3268C34.79 9.89566 34.9996 9.49647 34.5979 9.0947C33.7425 8.23938 32.6425 7.22527 31.5736 6.69083" stroke="#FE33F4" stroke-width="3" stroke-linecap="round"/>
<path d="M23.6639 16.9266C23.6639 16.1404 24.7495 15.5134 24.7495 14.6778C24.7495 14.1867 24.7495 13.6956 24.7495 13.2045C24.7495 12.5792 24.4076 12.5588 24.0085 12.2395C23.4235 11.7714 21.8643 11.6536 21.1049 11.6536C20.0701 11.6536 19.2766 11.6154 18.3909 12.0844C18.0523 12.2636 17.6112 12.6454 17.2277 12.7306C17.0054 12.78 16.0213 12.987 15.9094 13.1269C15.7875 13.2794 15.465 13.1941 15.2891 13.2045C15.1138 13.2148 14.9733 13.4612 14.8238 13.5491C14.3098 13.8515 14.1472 14.4167 13.9278 14.9104C13.854 15.0763 13.6169 16.2383 13.8244 16.2976C14.3075 16.4356 14.8644 16.3289 15.358 16.4699C15.6647 16.5575 16.0727 16.8268 16.3747 16.961C16.8749 17.1833 17.4254 16.98 17.9256 17.2023C18.9092 17.6395 19.8857 17.9222 20.9498 18.1587C21.3657 18.2511 23.5292 18.6778 23.7845 18.1673C24.272 17.1923 22.8009 15.6586 22.3542 14.9277C21.9561 14.2763 21.1521 13.9808 20.7172 13.4371C20.5447 13.2215 19.4621 13.3431 19.1663 13.3595C18.7312 13.3837 18.1049 14.01 18.0807 14.4452C18.0545 14.9168 17.9256 15.3872 17.9256 15.9185C17.9256 16.6644 19.3327 16.6164 19.8642 16.6164C20.4041 16.6164 20.8401 16.7175 21.2169 16.3407C21.8029 15.7547 22.9435 15.4377 23.6983 15.1861C24.426 14.9436 25.478 14.6977 25.9902 14.0574C26.2936 13.6781 26.4555 13.676 26.4555 13.0494C26.4555 12.6515 26.6559 11.8087 26.1453 11.8087" stroke="#FE33F4" stroke-width="3" stroke-linecap="round"/>
<path d="M13.7383 24.0608C13.0801 24.0608 12.6242 24.081 12.0323 23.7851C11.6385 23.5882 10.567 23.3535 10.3263 23.0527C10.0765 22.7404 9.24301 22.665 8.85298 22.665C8.30611 22.665 7.9907 23.1526 7.53473 23.406C7.07134 23.6634 6.78537 23.8731 6.48358 24.2503C6.3801 24.3797 6.42516 25.7495 6.52666 25.7495C6.82236 25.7495 7.74174 24.2136 7.93107 23.9401C8.24692 23.4839 8.58453 22.6936 9.00807 22.3548C9.23027 22.177 9.07319 20.932 9.63704 21.6569C9.96852 22.0831 10.6498 22.3947 11.1362 22.5444C12.3199 22.9086 13.273 22.634 14.2811 23.4404C14.5285 23.6383 14.3586 24.7701 14.3586 25.0688C14.3586 25.8651 13.8885 25.7667 13.2041 25.7667C11.8606 25.7667 10.5493 25.6117 9.2407 25.6117" stroke="#FE33F4" stroke-width="3" stroke-linecap="round"/>
<path d="M11.102 29.4887C10.6972 29.4887 7.37988 29.6903 7.37988 29.2561C7.37988 28.6544 7.281 27.9776 7.3885 27.3864C7.51738 26.6775 7.35302 25.6227 7.72452 24.9911C8.03037 24.4712 9.49301 24.681 9.98192 24.681C11.0614 24.681 11.5055 24.7835 12.4116 25.3013C13.524 25.9369 13.4192 27.4764 12.9286 28.4031C12.4021 29.3976 10.0745 29.4887 9.10308 29.4887C8.71312 29.4887 7.81907 29.6428 7.69867 29.101C7.49223 28.172 7.57041 27.5453 7.81068 26.611C8.19524 25.1154 8.24326 24.5259 9.93884 24.5259C10.8094 24.5259 10.6367 27.4178 10.6367 28.0929" stroke="#FE33F4" stroke-width="3" stroke-linecap="round"/>
<path d="M15.7543 32.4355C14.1869 32.4355 12.6686 32.8886 11.1792 33.2196C10.4474 33.3822 8.92993 33.7503 8.34458 34.176C8.13468 34.3286 7.04813 34.2966 7.7673 34.2966C8.64383 34.2966 9.60924 34.1799 10.4641 34.3742C11.0369 34.5043 11.7715 34.7302 12.3424 34.7619C12.8044 34.7875 13.186 34.7184 13.5831 34.917" stroke="#FE33F4" stroke-width="3" stroke-linecap="round"/>
<path d="M19.942 36.1577C18.9979 36.1577 17.8479 37.0454 17.0729 37.476C16.3285 37.8895 15.5066 38.4375 14.669 38.484C12.7671 38.5897 11.1713 40.4305 10.361 42.0511C9.90058 42.9719 9.396 43.8792 9.396 44.9202C9.396 46.0549 10.1536 46.4718 11.102 46.8933C12.1038 47.3385 13.2395 46.9427 14.1262 46.5486C15.2149 46.0647 16.2631 45.5841 17.3055 45.0322C18.8903 44.1932 19.1666 41.7207 19.1666 40.19C19.1666 39.6989 19.1666 39.2078 19.1666 38.7167C19.1666 38.1714 18.1603 38.9431 17.9259 39.0268C16.7875 39.4334 15.2831 40.6091 14.3588 41.4307C13.6401 42.0696 13.3577 42.9846 12.8855 43.8346C12.6363 44.283 12.4978 44.7946 12.4978 45.3079C12.4978 46.0249 12.8118 46.0411 13.5317 45.8938C15.1421 45.5644 16.3169 44.1433 17.2193 42.9127C17.8476 42.0559 18.6577 40.8104 17.1504 40.8104" stroke="#FE33F4" stroke-width="3" stroke-linecap="round"/>
<path d="M30.3327 40.6553C28.881 40.6553 27.8526 40.6367 26.8346 41.6548C26.1435 42.3458 25.7276 43.3489 25.5163 44.2999C25.2723 45.3979 24.4393 46.585 24.4393 47.7118C24.4393 48.7996 25.5859 49.2762 26.533 49.4867C27.7942 49.767 29.4006 49.4953 30.7118 49.4953C31.3019 49.4953 31.8177 49.4852 32.3488 49.2196C33.1378 48.8251 32.1523 47.2 31.9611 46.6262C31.6244 45.6163 31.0317 44.5435 30.953 43.4813C30.9185 43.0157 30.4194 42.2062 29.9449 42.2062C28.0246 42.2062 27.0642 42.6201 26.533 44.5325C26.4456 44.847 26.242 46.4709 26.533 46.7037C27.0821 47.143 27.2773 47.3241 28.127 47.3241C28.8844 47.3241 29.3216 47.1803 29.7037 46.4797C29.9021 46.116 30.0272 45.3312 29.7123 44.9978C29.3576 44.6222 28.7956 44.2295 28.2476 44.386C28.0912 44.4307 28.0841 45.782 28.1959 45.8938C28.3673 46.0653 29.5598 46.0535 29.1609 45.5406C28.772 45.0406 27.7199 44.5664 27.0758 44.5325C25.9304 44.4722 25.4145 44.7119 24.6289 45.4975C23.717 46.4093 24.4415 46.9435 24.939 47.7894C25.1992 48.2316 25.4246 48.6906 25.7489 49.1076C26.018 49.4535 26.4224 49.5312 26.7312 49.84C27.0487 50.1575 29.5572 50.1174 29.5572 49.6504" stroke="#FE33F4" stroke-width="3" stroke-linecap="round"/>
<path d="M45.0662 35.0718C43.4913 35.0718 42.0848 34.2964 40.6031 34.2964C39.798 34.2964 39.483 34.1246 39.483 34.9943C39.483 35.4987 39.1729 36.1563 39.1729 36.7003C39.1729 37.8596 39.3074 39.4143 40.7237 39.4143C41.9023 39.4143 43.3653 39.6822 44.3769 39.1041C45.2072 38.6297 46.527 38.0751 46.7636 37.0104C47.0274 35.8232 47.0824 34.76 47.0824 33.521C47.0824 32.8716 47.1171 32.4246 46.7032 31.8925C46.4661 31.5876 45.7527 31.2616 45.3678 31.5824C44.5056 32.3008 43.4543 32.6732 42.6537 33.521C41.9517 34.2643 41.0339 35.4547 41.0339 36.4676C41.0339 37.2501 40.6505 39.7307 42.1971 38.8715C43.0237 38.4123 44.0046 37.8262 44.1357 36.7778C44.2295 36.0268 46.3945 35.5371 47.0048 35.5371C47.5497 35.5371 47.6816 35.317 48.0473 34.9512C48.0904 34.9082 48.5643 34.594 48.5643 34.7961C48.5643 34.8807 47.6046 35.3463 47.4701 35.451C47.0808 35.7537 46.6776 35.9735 46.3414 36.347C46.0027 36.7233 45.9524 37.3402 45.6521 37.6739C44.9561 38.4472 44.2962 39.1258 43.4378 39.7934C42.5732 40.4659 41.1367 40.1898 40.1034 40.1898" stroke="#FE33F4" stroke-width="3" stroke-linecap="round"/>
<path d="M47.7028 21.4243C46.6919 21.4243 45.681 21.4243 44.67 21.4243C43.673 21.4243 42.9522 22.0592 42.1197 22.4755C41.0949 22.9879 40.7052 23.531 40.5774 24.6812C40.507 25.3143 40.199 27.6278 41.1116 27.6278C43.21 27.6278 45.2176 27.7829 47.3151 27.7829C48.5637 27.7829 52.2004 27.7298 52.2004 25.9219C52.2004 24.9588 52.0562 24.0498 51.58 23.2164C51.2053 22.5606 49.1796 22.2367 48.4783 22.1998C46.386 22.0896 43.2709 22.5637 42.7486 24.9138C42.5357 25.872 45.0193 25.959 45.6867 25.9219C46.1876 25.894 46.6101 25.4566 47.1514 25.4566C47.9701 25.4566 48.8611 25.3015 49.719 25.3015C49.9604 25.3015 51.05 25.4525 51.2354 25.2671C51.7546 24.7479 48.9987 24.3704 48.754 24.3365C47.1692 24.1171 45.4205 24.0608 43.8256 24.0608" stroke="#FE33F4" stroke-width="3" stroke-linecap="round"/>
<path d="M48.3229 13.98C47.1597 13.98 45.9966 13.98 44.8334 13.98C43.7679 13.98 43.2923 14.6789 42.5071 15.2896C41.7894 15.8478 40.8761 16.4361 40.0257 16.6251C39.3759 16.7695 38.6056 16.9971 38.2421 17.6332C37.8787 18.2692 37.1875 18.5631 37.0101 19.1841C36.7608 20.0566 37.3711 20.9088 38.3111 20.6402C40.2906 20.0746 41.0445 17.0334 41.8953 15.4533C42.2048 14.8787 42.6469 14.421 42.9293 13.8249C43.2471 13.1539 43.0103 13.4429 42.5502 13.7388C41.5988 14.3503 40.0301 15.2207 38.8625 15.2207C38.327 15.2207 38.1768 15.237 38.4317 14.7554C38.6767 14.2926 38.9562 13.8863 39.3278 13.5147C40.0284 12.8141 40.7813 11.84 41.6541 11.378C43.1266 10.5984 45.1129 10.1268 46.772 10.9127C47.5183 11.2662 47.8037 12.0434 48.1333 12.7393C48.4046 13.312 48.8308 13.9289 49.2534 14.3763C49.4639 14.5992 49.7863 15.0994 50.0289 15.2207" stroke="#FE33F4" stroke-width="3" stroke-linecap="round"/>
<path d="M29.8673 18.3224C30.5348 17.7217 31.325 17.3472 31.9697 16.7026C32.6021 16.0701 33.5754 16.1298 34.2012 15.6083C34.9555 14.9797 35.354 14.0337 36.0364 13.3251C36.586 12.7543 37.1565 11.7734 37.1565 10.9988C37.1565 9.53671 36.6731 7.52224 35.3127 6.64767C35.102 6.51222 34.266 6.52171 33.9341 6.41504C33.5793 6.30098 33.0499 6.16696 32.7365 5.99285C32.225 5.70871 31.1392 5.91531 30.5652 5.91531C29.8156 5.91531 29.0661 5.91531 28.3165 5.91531C27.7881 5.91531 26.7518 5.92631 26.3348 6.25995C26.095 6.45181 25.966 7.72602 26.2228 7.93146C26.6689 8.28836 27.1673 9.02879 27.7737 9.16355C28.6999 9.36939 29.5098 9.48234 30.4877 9.48234C31.2204 9.48234 32.0098 9.43029 32.6589 9.82698C33.3095 10.2245 33.0046 12.2562 32.9691 12.8943C32.9057 14.0354 31.7284 15.1282 31.7284 16.3062" stroke="#FE33F4" stroke-width="3" stroke-linecap="round"/>
<path d="M25.5249 17.0818C25.5249 17.8274 25.902 19.0979 24.9821 19.0979C24.3456 19.0979 23.1999 19.3227 22.6558 19.0204C21.9002 18.6006 21.0872 18.3558 20.3294 17.9348C19.7153 17.5936 18.9785 17.0659 18.3133 16.9181C17.1166 16.6521 14.739 14.5773 16.6159 13.5837C17.7112 13.0039 18.1981 13.2473 19.2007 13.98C19.8238 14.4353 20.8449 15.7279 19.7866 16.1512" stroke="#FE33F4" stroke-width="3" stroke-linecap="round"/>
</svg>
