<svg width="115" height="92" viewBox="0 0 115 92" fill="none" xmlns="http://www.w3.org/2000/svg">
<path d="M48.9327 42.6167C42.1402 43.1169 33.9923 45.6523 28.3006 48.8858C21.13 52.9596 20.2144 59.3832 21.0569 66.457C21.7062 71.9076 25.4212 77.4155 30.2489 80.8495C34.0861 83.579 39.9344 82.8874 44.4366 82.3506L44.48 82.3454C48.6369 81.8498 51.959 81.4537 54.0782 77.9578C56.3324 74.2392 57.247 69.9692 57.9249 65.839C58.6204 61.6008 59.0688 57.2379 58.7991 52.9475C58.6754 50.9804 57.4419 49.6214 57.0257 47.7821M58.8248 29.1072C57.9419 28.4136 56.0416 28.3274 54.9282 28.3125C51.225 28.2629 47.5167 28.3125 43.8129 28.3125C39.8452 28.3125 37.5012 30.8449 38.2427 34.4492C40.4595 45.2238 56.4673 50.6278 67.1176 49.2832C72.4747 48.6068 75.4966 47.8146 75.885 42.8374C76.1 40.0825 75.0335 34.2341 72.7627 32.1093C70.5582 30.0464 66.9676 28.4758 63.7955 27.9152C61.7906 27.5608 60.0424 25.9285 57.9256 25.9285M72.7613 28.7094C76.0355 28.0417 79.1955 25.5589 82.303 24.427C86.0479 23.063 91.4979 21.1676 95.6914 21.5794C98.3572 21.8412 100.832 25.1233 102.136 26.8773C103.744 29.0399 105.18 30.8719 104.584 33.5658C103.693 37.5911 101.09 38.2456 96.8654 38.2456C94.4878 38.2456 91.4806 36.5302 89.3719 35.6408C86.177 34.2933 83.4183 33.9147 79.9551 33.4775M71.8615 28.3117C74.8707 26.2659 77.7918 25.4188 79.7546 22.3957C81.5498 19.6307 82.0084 16.0187 82.1775 12.8817C82.2988 10.6303 82.0642 9.34566 80.8536 7.47343C80.0755 6.26994 73.6643 6.78541 72.411 6.94364C66.4931 7.69077 63.6444 13.5867 62.6944 18.1574C61.8314 22.31 62.8693 25.7897 62.8693 29.901M53.4234 26.3262C57.0646 23.1083 59.981 20.1152 62.7653 16.2603C64.2619 14.1881 66.462 11.7802 66.462 9.15233C66.462 1.83515 57.0848 3.94651 51.9746 5.66457C44.4306 8.20093 41.7258 14.2508 43.9816 20.8959C44.5446 22.5544 49.2635 28.6446 51.1753 27.5182M40.3916 27.9148C43.0881 24.1299 46.9853 15.2877 42.6396 11.4473C37.0903 6.54315 24.9572 12.0948 20.4589 15.7959C17.7113 18.0566 17.0119 20.5682 17.0119 23.6986C17.0119 26.4735 21.6913 27.7249 24.2056 28.4887C28.102 29.6724 34.6356 29.5842 38.1435 27.5175M37.4542 38.8719C37.4542 38.6201 37.4305 38.367 37.3847 38.1134M37.3847 38.1134C36.4916 33.1667 27.2136 28.002 22.1925 27.7685C14.5958 27.4151 2.24724 28.9251 4.20813 37.8785C6.46582 48.1872 22.3597 48.8302 31.0598 45.6266C33.3958 44.7664 34.6996 42.3279 35.7557 40.4612C36.1941 39.6863 36.9023 38.9274 37.3847 38.1134ZM37.3847 38.1134C37.6892 37.5995 37.9038 37.0636 37.9038 36.4878M69.6128 48.5781C64.556 49.6615 60.71 53.7701 57.923 57.4962C54.1998 62.4738 49.306 67.6559 50.5544 74.0299C51.2598 77.6319 53.6221 81.1388 55.6749 84.2724C56.5327 85.5819 57.7689 87.3745 59.5466 87.716C62.8799 88.3564 66.7215 87.8176 69.9625 87.0538C73.1766 86.2963 78.9744 85.0654 79.9538 81.6897C80.7854 78.8234 80.7266 75.8875 81.3026 72.9924C81.6896 71.0474 82.3293 68.8366 82.1019 66.8557C81.6829 63.2058 80.1057 59.6462 78.8548 56.1717C77.2876 51.8189 74.2364 47.7834 68.7136 47.7834M76.8085 43.0143C74.8545 43.2301 79.3874 51.8507 80.0557 52.8153C83.6775 58.0432 87.1325 63.2321 93.3441 66.369C97.2274 68.33 103.727 71.1636 107.931 67.8701C111.622 64.979 111.55 58.6708 109.98 54.9345C107.047 47.9564 98.0003 42.8647 90.4966 40.3212C86.4159 38.938 83.2742 38.5833 78.9067 38.6436C77.0305 38.6695 75.1401 38.7805 73.5613 39.659C72.9282 40.0113 72.1533 40.2329 71.4132 40.2329M52.2092 35.3644C51.811 35.335 51.2883 35.219 50.7712 35.1575M50.7712 35.1575C50.2909 35.1004 49.8154 35.0903 49.4488 35.2406M50.7712 35.1575C50.6003 34.8266 50.4748 34.4794 50.3956 34.116M50.7712 35.1575C51.0168 35.6332 51.3564 36.0752 51.7871 36.4835C52.358 37.0246 53.1416 37.5867 54.0127 38.0102M49.4488 35.2406C49.301 35.3012 49.1709 35.3879 49.0653 35.5081M49.4488 35.2406C49.6835 34.7523 50.0048 34.3851 50.3956 34.116M49.4488 35.2406C49.4021 35.3379 49.3588 35.44 49.319 35.5471C49.3115 35.5672 49.3042 35.5874 49.297 35.6076M49.0653 35.5081C48.9731 35.6131 48.8997 35.7438 48.8495 35.9049C48.649 36.5494 48.5386 37.598 48.8225 38.366M49.0653 35.5081C49.1428 35.5406 49.2201 35.5737 49.297 35.6076M49.0653 35.5081C48.4173 35.2368 47.7494 35.0142 47.0806 34.8573M48.8225 38.366C48.8651 38.4813 48.9166 38.5903 48.9781 38.6907M48.8225 38.366C46.6732 38.3096 44.4978 38.0806 42.3799 37.831C41.5359 37.7316 40.746 37.0251 40.1487 36.5444C39.7605 36.232 39.3541 35.8604 39.2269 35.3948C38.9929 34.5379 39.0926 33.5656 39.1063 32.6921C39.1125 32.2973 39.2006 31.6626 39.649 31.4588C40.1841 31.2156 41.0019 31.2852 41.5787 31.356C41.9116 31.3969 42.2347 31.3655 42.5522 31.474C43.9652 31.9569 45.1903 32.8462 46.2091 33.8189C46.499 34.0956 46.8413 34.4613 47.0806 34.8573M48.8225 38.366C48.8619 38.367 48.9013 38.368 48.9407 38.3689M48.9781 38.6907C49.0429 38.7966 49.1188 38.8929 49.207 38.9768C50.1418 39.8665 51.9133 39.6816 52.907 38.9997C53.0259 38.9181 53.1441 38.8293 53.2609 38.734M48.9781 38.6907C48.9579 38.5858 48.9464 38.4776 48.9407 38.3689M48.9781 38.6907C49.0293 38.9561 49.1367 39.2 49.3492 39.3765C50.2642 40.1368 51.8927 39.7457 52.8036 39.209C53.0648 39.0552 53.2073 38.8961 53.2609 38.734M53.2609 38.734C53.521 38.5219 53.7742 38.2779 54.0127 38.0102M53.2609 38.734C53.3879 38.35 53.0148 37.9496 52.5366 37.5646C51.6164 36.8235 50.4953 36.1345 49.297 35.6076M54.0127 38.0102C55.0625 36.832 55.8291 35.1952 55.66 33.8048M54.0127 38.0102C55.1179 38.5475 56.3638 38.8617 57.4943 38.6266C58.802 38.3547 59.1155 36.6696 58.6616 35.7222C58.1665 34.6887 56.9435 34.1136 55.66 33.8048M55.66 33.8048C55.541 32.8267 54.9589 31.9705 53.6867 31.4816C52.9598 31.2023 51.391 30.7993 50.7706 31.4512C50.3091 31.936 50.2782 32.7095 50.2968 33.305C50.3055 33.5838 50.3385 33.8541 50.3956 34.116M55.66 33.8048C54.8915 33.62 54.1013 33.5306 53.4325 33.4953C52.2346 33.4322 51.1765 33.5781 50.3956 34.116M49.297 35.6076C49.0744 36.2312 48.9844 36.8658 48.9615 37.5189C48.9528 37.7673 48.925 38.0702 48.9407 38.3689M48.9407 38.3689C49.2296 38.3756 49.518 38.3792 49.8057 38.3792M47.0806 34.8573C46.797 34.7907 46.5131 34.736 46.2306 34.6944C45.4775 34.5835 44.9119 34.5354 44.7403 35.3073C44.6506 35.7106 44.5038 36.725 44.9901 36.9936C45.6269 37.3453 46.5293 37.0305 46.9974 36.5939C47.5585 36.0705 47.4279 35.4319 47.0806 34.8573ZM63.0613 36.3233C62.9824 36.3233 62.9036 36.3225 62.8249 36.321M62.8249 36.321C62.202 36.3096 61.5843 36.2565 60.9657 36.2203M62.8249 36.321C62.8348 36.36 62.8438 36.3988 62.8518 36.4373M62.8249 36.321C62.7244 35.9266 62.5283 35.512 62.3462 35.2014M60.9657 36.2203C60.6985 36.2047 60.4311 36.1922 60.163 36.1876M60.9657 36.2203C61.0366 36.5269 61.0867 36.8382 61.1216 37.1503M60.9657 36.2203C60.8589 35.7587 60.7046 35.3079 60.4831 34.8811M60.163 36.1876C60.1269 36.187 60.0909 36.1865 60.0548 36.1862C59.8942 36.1848 59.7515 36.186 59.6224 36.2001M60.163 36.1876C60.2426 35.7707 60.3125 35.288 60.4831 34.8811M60.163 36.1876C60.1614 36.1961 60.1598 36.2045 60.1582 36.2129C60.1286 36.3657 60.1037 36.5279 60.0852 36.6958M59.6224 36.2001C59.5843 36.2043 59.5473 36.2096 59.5115 36.2163M59.6224 36.2001C59.6932 36.3341 59.7636 36.4708 59.8328 36.6099M59.6224 36.2001C59.5791 36.1183 59.5356 36.0374 59.4921 35.9577M59.5115 36.2163C59.3498 36.2465 59.2098 36.3051 59.0813 36.4164M59.5115 36.2163C59.4983 36.1322 59.4918 36.0453 59.4921 35.9577M59.5115 36.2163C59.5296 36.3318 59.5605 36.4419 59.604 36.5408M59.0813 36.4164C59.0109 36.4774 58.944 36.5541 58.8789 36.6506C58.7644 36.8202 58.6668 36.9996 58.584 37.1857M59.0813 36.4164C59.2565 36.4497 59.4317 36.492 59.604 36.5408M59.0813 36.4164C58.6151 36.3278 58.1496 36.3031 57.7449 36.3902M58.584 37.1857C58.5716 37.2137 58.5594 37.2418 58.5476 37.2701M58.584 37.1857C58.8178 37.3391 59.0445 37.4999 59.2628 37.6664M58.584 37.1857C58.4567 37.1021 58.3273 37.0208 58.1959 36.942M58.5476 37.2701C58.5252 37.3241 58.5039 37.3785 58.4838 37.4334M58.5476 37.2701C58.4571 37.2093 58.37 37.1456 58.2869 37.079M58.5476 37.2701C58.769 37.4188 59.0108 37.5503 59.2628 37.6664M58.4838 37.4334C58.4351 37.5663 58.3931 37.7017 58.3573 37.8385M58.4838 37.4334C58.6975 37.8918 58.8727 38.6256 58.6661 39.1581M58.4838 37.4334C58.4692 37.4021 58.4544 37.372 58.4395 37.3434C58.3933 37.2545 58.3423 37.1663 58.2869 37.079M58.3573 37.8385C58.2458 38.2643 58.1936 38.704 58.1811 39.1249C58.176 39.2945 58.1605 39.493 58.1642 39.6937M58.3573 37.8385C58.5062 38.2659 58.6093 38.7088 58.6661 39.1581M58.3573 37.8385C58.2252 37.4595 58.057 37.0928 57.8531 36.7447M58.1642 39.6937C58.1646 39.715 58.1652 39.7363 58.166 39.7575M58.1642 39.6937C58.1598 39.6958 58.1554 39.6977 58.1509 39.6997C58.1292 39.7093 58.107 39.7186 58.0845 39.7275M58.1642 39.6937C58.4193 39.577 58.5777 39.386 58.6661 39.1581M58.166 39.7575C58.1793 40.0877 58.2531 40.4161 58.5196 40.6233M58.166 39.7575C58.1388 39.7476 58.1116 39.7376 58.0845 39.7275M58.166 39.7575C58.3482 39.8237 58.5323 39.8856 58.718 39.9432M58.5196 40.6233L58.5214 40.6247C59.0045 40.9983 59.819 40.9458 60.3865 40.796C60.461 40.7763 60.5338 40.7545 60.6047 40.7306M58.5196 40.6233C58.36 40.6743 58.1079 40.5696 57.7805 40.4572C57.3362 40.3046 56.898 40.1285 56.4696 39.9315M58.5196 40.6233C58.6393 40.5851 58.707 40.4592 58.7152 40.1831C58.7176 40.1032 58.7185 40.0232 58.718 39.9432M60.6047 40.7306C60.7157 40.6932 60.8223 40.6509 60.9241 40.604M60.6047 40.7306C60.5942 40.5989 60.5848 40.4634 60.5773 40.3249M60.6047 40.7306C60.6146 40.8538 60.6253 40.9736 60.6363 41.0891C60.6471 41.2026 60.6607 41.3152 60.677 41.4268M60.9241 40.604C61.1048 40.5208 61.2705 40.4236 61.4194 40.315M60.9241 40.604C60.9144 40.8553 60.8839 41.1028 60.8294 41.3444M60.9241 40.604C60.929 40.4762 60.9285 40.3475 60.9232 40.218M61.4194 40.315C61.4376 40.3018 61.4556 40.2883 61.4733 40.2747M61.4194 40.315C61.4252 40.4873 61.3908 40.66 61.3039 40.8303C61.1882 41.0569 61.0244 41.2236 60.8294 41.3444M61.4194 40.315C61.4183 40.2836 61.4159 40.2521 61.4122 40.2207M61.4733 40.2747C62.1102 39.7854 62.4182 39.0855 62.2452 38.4209M61.4733 40.2747C61.4528 40.2568 61.4325 40.2388 61.4122 40.2207M61.4733 40.2747C61.9325 40.6769 62.4441 41.0395 62.9626 41.3719M62.2452 38.4209C62.163 38.1049 61.9722 37.797 61.6563 37.5234M62.2452 38.4209C61.8663 38.4005 61.4721 38.328 61.204 38.2733M62.2452 38.4209C62.5953 38.4397 62.9324 38.4139 63.1452 38.2882M61.6563 37.5234C61.5369 37.4199 61.3996 37.3214 61.2436 37.2292C61.2053 37.2066 61.1649 37.1835 61.1227 37.1602M61.6563 37.5234C61.4929 37.5062 61.3219 37.4825 61.1506 37.4497M61.6563 37.5234C61.7609 37.5344 61.8623 37.5427 61.9586 37.549C62.8357 37.6064 62.9814 37.0636 62.8518 36.4373M61.1227 37.1602C61.1209 37.1592 61.1192 37.1582 61.1174 37.1573M61.1227 37.1602C61.1334 37.2566 61.1426 37.3532 61.1506 37.4497M61.1227 37.1602C61.1223 37.1569 61.1219 37.1536 61.1216 37.1503M61.1174 37.1573C60.8387 37.0036 60.4798 36.8379 60.0852 36.6958M61.1174 37.1573C61.1188 37.1549 61.1202 37.1526 61.1216 37.1503M61.1174 37.1573C61.0678 37.2405 61.0223 37.3262 60.9806 37.4141M60.0852 36.6958C60.0025 36.6661 59.9182 36.6373 59.8328 36.6099M60.0852 36.6958C60.0725 36.8111 60.0628 36.9291 60.0566 37.0487M59.8328 36.6099C59.7573 36.5858 59.6809 36.5627 59.604 36.5408M59.8328 36.6099C59.9022 36.7495 59.9705 36.8914 60.0369 37.0354M59.604 36.5408C59.6272 36.5936 59.654 36.6432 59.6844 36.6887C59.7747 36.824 59.8954 36.9385 60.0369 37.0354M57.7449 36.3902C57.7368 36.3919 57.7286 36.3937 57.7206 36.3956M57.7449 36.3902C57.913 36.5685 58.0646 36.753 58.1959 36.942M57.7449 36.3902C57.7379 36.3827 57.7308 36.3752 57.7237 36.3678M57.7206 36.3956C57.7057 36.399 57.6909 36.4025 57.6762 36.4062M57.7206 36.3956C57.7179 36.4185 57.7153 36.441 57.7124 36.4631M57.7206 36.3956C57.7216 36.3864 57.7226 36.3771 57.7237 36.3678M57.6762 36.4062C57.6657 36.4089 57.6553 36.4116 57.6449 36.4144M57.6762 36.4062C57.6377 36.3437 57.6025 36.2795 57.5709 36.2135M57.6762 36.4062C57.6879 36.4253 57.7 36.4443 57.7124 36.4631M57.6449 36.4144C57.5563 36.4382 57.4711 36.4679 57.3899 36.504M57.6449 36.4144C57.6657 36.4452 57.6863 36.4761 57.7065 36.5073M57.6449 36.4144C57.5725 36.3074 57.4965 36.2026 57.4169 36.1M57.3899 36.504C57.162 36.6052 56.9656 36.7566 56.8157 36.9704C56.774 37.0298 56.7349 37.0919 56.6983 37.1561M57.3899 36.504C57.488 36.5519 57.5854 36.6014 57.682 36.6524M57.3899 36.504C57.1911 36.4069 56.989 36.3164 56.7843 36.2332M56.6983 37.1561C56.4204 37.6445 56.2876 38.2612 56.2501 38.8537M56.6983 37.1561C56.3906 37.1055 56.087 37.0314 55.7887 36.938M56.6983 37.1561C56.7159 37.159 56.7335 37.1618 56.7511 37.1645C57.4113 37.267 57.6007 37.0481 57.682 36.6524M56.2501 38.8537C56.2291 39.1866 56.2382 39.5119 56.2686 39.8025C56.2699 39.8148 56.2713 39.8271 56.2729 39.8392M56.2501 38.8537C56.0161 38.7163 55.7813 38.5663 55.5562 38.4044M56.2501 38.8537C56.5476 39.0283 56.8438 39.1826 57.1172 39.3152C57.4308 39.4674 57.7542 39.6047 58.0845 39.7275M56.2729 39.8392C56.2764 39.8677 56.2806 39.8957 56.2854 39.9232M56.2729 39.8392C56.0947 39.7541 55.9184 39.6653 55.7441 39.5731M56.2729 39.8392C56.3382 39.8705 56.4038 39.9012 56.4696 39.9315M56.2854 39.9232C56.3605 40.3551 56.5857 40.6834 56.9008 40.9311M56.2854 39.9232C56.1485 39.9155 56.0128 39.9045 55.8803 39.8909M56.2854 39.9232C56.3466 39.9267 56.4081 39.9295 56.4696 39.9315M56.9008 40.9311C57.4687 41.3775 58.3287 41.5619 59.1287 41.6182C59.2388 41.626 59.3506 41.6313 59.4627 41.6331M56.9008 40.9311C57.7869 40.9991 58.6594 41.2931 59.4627 41.6331M56.9008 40.9311C56.8925 40.9304 56.8842 40.9298 56.876 40.9292C56.8327 40.9261 56.789 40.923 56.7451 40.9201M59.4627 41.6331C59.8904 41.6398 60.3224 41.5938 60.677 41.4268M59.4627 41.6331C59.5518 41.6708 59.6401 41.7091 59.7274 41.7477C59.892 41.8204 60.0769 41.9015 60.2707 41.9915M60.677 41.4268C60.7296 41.4021 60.7805 41.3747 60.8294 41.3444M60.677 41.4268C60.689 41.5086 60.7025 41.5898 60.7174 41.6705M60.8294 41.3444C60.8228 41.3736 60.8159 41.4027 60.8086 41.4317C60.7853 41.5245 60.7547 41.6035 60.7174 41.6705M61.4122 40.2207C61.3882 40.0156 61.3101 39.812 61.1987 39.6148M61.4122 40.2207C61.3095 40.129 61.2096 40.0352 61.1129 39.9393M61.1987 39.6148C61.0775 39.4003 60.917 39.1935 60.7439 39.0007M61.1987 39.6148C61.179 39.7329 61.1512 39.843 61.1129 39.9393M61.1987 39.6148C61.2717 39.1767 61.2326 38.6294 61.204 38.2733M60.7439 39.0007C60.6976 38.9492 60.6505 38.8987 60.6029 38.8493M60.7439 39.0007C60.7996 39.2312 60.8443 39.462 60.8757 39.6917M60.7439 39.0007C60.7114 38.8664 60.6752 38.7322 60.6357 38.5983M60.6029 38.8493C60.4585 38.6993 60.3105 38.5597 60.1734 38.434M60.6029 38.8493C60.6121 38.7653 60.623 38.6816 60.6357 38.5983M60.6029 38.8493C60.5858 39.0062 60.5743 39.1641 60.5675 39.3214M60.1734 38.434C60.1251 38.3897 60.0782 38.3472 60.0332 38.3065C59.7906 38.087 59.533 37.8724 59.2628 37.6664M60.1734 38.434C60.1365 38.288 60.1087 38.1378 60.0888 37.9855M60.1734 38.434C60.2556 38.7595 60.3829 39.0637 60.5675 39.3214M59.2628 37.6664C59.5306 37.7897 59.81 37.8954 60.0888 37.9855M58.1959 36.942C58.1373 36.9069 58.0783 36.8722 58.019 36.8381M58.1959 36.942C58.2275 36.9874 58.2578 37.0331 58.2869 37.079M58.019 36.8381C57.964 36.8065 57.9087 36.7754 57.8531 36.7447M58.019 36.8381C57.9034 36.7211 57.8003 36.5962 57.7124 36.4631M58.019 36.8381C58.1022 36.9224 58.1918 37.0026 58.2869 37.079M57.8531 36.7447C57.7964 36.7134 57.7393 36.6826 57.682 36.6524M57.8531 36.7447C57.8062 36.6646 57.7573 36.5854 57.7065 36.5073M57.682 36.6524C57.6914 36.6063 57.6994 36.5579 57.7065 36.5073M56.7843 36.2332C56.6309 36.1708 56.476 36.1127 56.3198 36.059M56.7843 36.2332C56.4973 36.3891 56.1952 36.5236 55.8819 36.6393M56.7843 36.2332C56.8537 36.1954 56.9223 36.1564 56.9899 36.1161M56.3198 36.059C56.2553 36.0368 56.1905 36.0154 56.1255 35.9948M56.3198 36.059C56.2508 36.0487 56.1818 36.0371 56.1132 36.0244M56.3198 36.059C56.5442 36.0925 56.7696 36.1127 56.9899 36.1161M56.1255 35.9948C56.0059 35.9569 55.8856 35.9217 55.7647 35.8893C55.5775 35.8392 55.319 35.775 55.0403 35.7296M56.1255 35.9948C56.2232 35.7623 56.3285 35.5357 56.4372 35.3176M56.1255 35.9948C56.1214 36.0047 56.1173 36.0146 56.1132 36.0244M55.0403 35.7296C54.8879 35.7048 54.7296 35.6856 54.5736 35.6775M55.0403 35.7296C54.9456 35.6948 54.8539 35.6585 54.766 35.6212M55.0403 35.7296C55.3706 35.8511 55.7378 35.955 56.1132 36.0244M54.5736 35.6775C54.3824 35.6675 54.1947 35.6742 54.026 35.7073M54.5736 35.6775C54.3906 35.7263 54.2032 35.7631 54.0114 35.7859M54.5736 35.6775C54.6383 35.6602 54.7024 35.6414 54.766 35.6212M54.026 35.7073C53.9155 35.7291 53.8131 35.7622 53.7232 35.8095M54.026 35.7073C54.0308 35.6843 54.036 35.6612 54.0417 35.6381C54.067 35.5354 54.1005 35.4253 54.1423 35.3125M54.026 35.7073C54.0206 35.7336 54.0157 35.7598 54.0114 35.7859M53.7232 35.8095C53.6776 35.8335 53.6351 35.8611 53.5965 35.8928M53.7232 35.8095C53.6746 35.8116 53.6257 35.8129 53.5765 35.8132C53.542 35.8134 53.5074 35.8135 53.4728 35.8135M53.7232 35.8095C53.8204 35.8052 53.9164 35.7972 54.0114 35.7859M53.5965 35.8928C53.5774 35.9084 53.5593 35.925 53.5421 35.9426C53.2455 36.247 53.1603 36.7528 53.1443 37.2214M53.5965 35.8928C53.555 35.8665 53.5138 35.8401 53.4728 35.8135M53.5965 35.8928C53.7249 35.974 53.8554 36.0531 53.9879 36.1298M53.1443 37.2214C53.137 37.4371 53.1443 37.6449 53.1524 37.8214M53.1443 37.2214C52.9439 37.2405 52.7434 37.2556 52.5436 37.2674M53.1443 37.2214C53.5195 37.1857 53.8945 37.1362 54.2642 37.0696M53.1524 37.8214C53.1531 37.8362 53.1537 37.8507 53.1544 37.8649C53.2025 38.8733 53.8758 39.5328 54.9894 39.7568C55.2473 39.8087 55.5542 39.8575 55.8803 39.8909M53.1524 37.8214C53.0299 37.717 52.9099 37.6109 52.7926 37.5033C52.7072 37.4249 52.6242 37.3463 52.5436 37.2674M53.1524 37.8214C53.9287 38.4831 54.8064 39.0772 55.7441 39.5731M55.8803 39.8909C55.8281 39.7869 55.7829 39.6809 55.7441 39.5731M55.8803 39.8909C55.9254 39.981 55.9758 40.0696 56.0317 40.1565C56.2143 40.4404 56.4591 40.6959 56.7451 40.9201M56.4696 39.9315C57.0526 39.9508 57.6411 39.9035 58.0845 39.7275M58.6661 39.1581C58.699 39.4183 58.7163 39.6806 58.718 39.9432M57.7237 36.3678C57.6741 36.3158 57.6232 36.2644 57.5709 36.2135M57.7237 36.3678C57.7314 36.2977 57.7384 36.2243 57.7461 36.1482L57.7471 36.1374C57.75 36.1083 57.753 36.0787 57.756 36.0487M57.5709 36.2135C57.5307 36.1743 57.4897 36.1354 57.448 36.0969M57.5709 36.2135C57.5535 36.177 57.5372 36.14 57.5221 36.1025C57.5203 36.098 57.5185 36.0935 57.5167 36.089M57.448 36.0969C57.4091 36.061 57.3695 36.0254 57.3294 35.9901M57.448 36.0969C57.4377 36.098 57.4273 36.0991 57.4169 36.1M57.448 36.0969C57.471 36.0945 57.4939 36.0918 57.5167 36.089M57.3294 35.9901C57.3097 35.9727 57.2898 35.9555 57.2698 35.9383M57.3294 35.9901C57.359 36.0264 57.3882 36.0631 57.4169 36.1M57.3294 35.9901C57.3133 35.9703 57.297 35.9506 57.2806 35.931M57.2698 35.9383C57.0125 35.7173 56.732 35.5092 56.4372 35.3176M57.2698 35.9383C57.2619 35.9436 57.2541 35.9489 57.2464 35.954C57.1626 36.0103 57.077 36.0643 56.9899 36.1161M57.2698 35.9383C57.2734 35.9359 57.2769 35.9334 57.2806 35.931M56.4372 35.3176C56.2866 35.2197 56.1323 35.1261 55.9755 35.0372M56.4372 35.3176C56.462 35.2678 56.487 35.2185 56.5122 35.1696M55.9755 35.0372C55.5493 34.7956 55.1044 34.589 54.6645 34.4264M55.9755 35.0372C55.5989 35.282 55.1953 35.4845 54.766 35.6212M55.9755 35.0372C56.0403 34.995 56.1043 34.9517 56.1675 34.9072M54.6645 34.4264C54.369 34.3172 54.0757 34.2278 53.7919 34.1611C53.5358 34.1009 53.2701 34.0536 52.9996 34.0173M54.6645 34.4264C54.7339 34.3512 54.8086 34.2818 54.8888 34.2207M54.6645 34.4264C54.4285 34.6827 54.2551 35.0078 54.1423 35.3125M52.9996 34.0173C52.8217 33.9935 52.6418 33.9745 52.4611 33.9599M52.9996 34.0173C53.0067 34.0145 53.0138 34.0116 53.0209 34.0089C53.1977 33.9403 53.3943 33.9148 53.5949 33.9177M52.9996 34.0173C52.8844 34.0645 52.7792 34.1282 52.6831 34.2042M52.4611 33.9599C52.2925 33.9463 52.1232 33.9365 51.9545 33.9301M52.4611 33.9599C52.3255 33.8008 52.2013 33.6348 52.0904 33.4625M52.4611 33.9599C52.5321 34.0432 52.6062 34.1247 52.6831 34.2042M51.9545 33.9301C51.6828 33.9198 51.4125 33.9184 51.1482 33.9244M51.9545 33.9301C51.8923 34.1261 51.8249 34.3185 51.7556 34.5043M51.9545 33.9301C52.0035 33.776 52.0493 33.6196 52.0904 33.4625M51.1482 33.9244C51.0945 33.9256 51.041 33.9271 50.9878 33.9289L50.9792 33.9292C50.9081 33.9316 50.8337 33.9341 50.7604 33.9423M51.1482 33.9244C51.0077 33.7788 50.8717 33.6282 50.7429 33.4732M51.1482 33.9244C51.3445 34.1279 51.5495 34.3217 51.7556 34.5043M50.7604 33.9423C50.6826 33.9509 50.6059 33.9658 50.5356 33.9936C50.5103 34.0036 50.4241 34.0795 50.4236 34.0698C50.4055 33.7347 50.4234 33.3981 50.4273 33.0619M50.7604 33.9423C50.7465 33.7886 50.7406 33.6323 50.7429 33.4732M50.7604 33.9423C50.8151 34.547 50.9935 35.1106 51.2823 35.6474M50.4273 33.0619C50.4298 32.8519 50.4269 32.6421 50.4063 32.4329C50.3571 31.9305 50.0878 31.569 49.7077 31.2989M50.4273 33.0619C50.0418 32.5137 49.7662 31.9195 49.7077 31.2989M50.4273 33.0619C50.5259 33.2021 50.6317 33.3393 50.7429 33.4732M49.7077 31.2989C49.1783 30.9225 48.4339 30.7235 47.7702 30.5677C47.0921 30.4085 46.5553 30.626 46.2397 31.0684M49.7077 31.2989C49.6853 31.06 49.695 30.8171 49.743 30.5715C49.8597 29.975 50.2424 29.8853 50.8457 30.05C51.2035 30.1477 51.4825 30.2989 51.6959 30.491M46.2397 31.0684C46.164 31.1745 46.1011 31.2936 46.0519 31.4234M46.2397 31.0684C47.0955 31.3032 47.8497 31.799 48.2182 32.5547C48.6073 33.3528 48.3934 34.2246 47.2447 34.1231C46.4624 34.0539 46.0958 33.5854 45.9602 33.0221M46.2397 31.0684C46.0183 31.0077 45.7901 30.9644 45.56 30.9386M46.0519 31.4234C46.0177 31.5138 45.9902 31.6095 45.9698 31.7097C45.8874 32.1132 45.8574 32.5949 45.9602 33.0221M46.0519 31.4234C46.4445 31.9489 46.6896 32.6886 46.043 32.9963C46.0172 33.0086 45.9894 33.017 45.9602 33.0221M46.0519 31.4234C45.8957 31.2143 45.7161 31.0391 45.56 30.9386M45.9602 33.0221C45.7183 33.0641 45.3748 32.8795 45.1945 32.7984C44.6146 32.5373 43.9747 32.1716 43.8161 31.5726C43.6017 30.7632 44.461 30.9046 45.0911 30.9103C45.2472 30.9117 45.404 30.9212 45.56 30.9386M45.56 30.9386C45.5529 30.9341 45.546 30.9297 45.539 30.9255C44.8324 30.4953 43.9504 30.5677 43.1355 30.5677C42.9767 30.5677 42.8068 30.5598 42.6327 30.5532M42.6327 30.5532C42.1962 30.5366 41.7339 30.5284 41.3566 30.6743C40.9578 30.8285 40.9977 31.5358 40.9646 31.8353C40.8781 32.6192 40.8871 33.3962 40.8871 34.184V36.5631C40.8871 36.7528 41.1197 36.6869 41.1197 36.879C41.1197 37.3404 41.3642 37.7966 41.4901 38.2418C41.6829 38.9233 42.0404 39.398 42.5971 39.89C42.8607 40.123 43.2306 40.3226 43.4457 40.5866C43.7579 40.9699 44.0794 41.303 44.5354 41.5649C45.0589 41.8656 45.6443 41.9663 46.0818 42.3529C46.405 42.6386 46.9103 42.7909 47.3395 42.901C47.6789 42.9881 48.0505 43.1425 48.4123 43.2365M42.6327 30.5532C42.7626 30.5064 42.9302 30.4716 43.1528 30.4154C43.7947 30.2533 44.4464 30.0682 45.0782 29.8749C45.604 29.714 46.1423 29.5114 46.6245 29.2659C46.9726 29.0886 47.3813 28.8034 47.7789 28.7253C47.9113 28.6993 48.0026 28.7862 48.145 28.7862C48.4903 28.7862 48.8388 28.7741 49.1831 28.8014C50.3025 28.8904 51.4018 28.9869 52.5169 29.1288C53.7338 29.2837 54.9371 29.3344 56.1653 29.3344C56.3762 29.3344 57.0772 29.2273 57.2292 29.4029C57.3462 29.5381 57.4103 29.5248 57.6039 29.5818C59.157 30.0393 60.4371 30.9741 61.7419 31.8258M42.6327 30.5532C42.369 30.6481 42.2605 30.7922 42.1621 31.2643C41.9629 32.2201 41.8849 33.4055 42.399 34.2944C42.7647 34.9267 42.9853 35.7246 43.1183 36.4298C43.4347 38.1072 44.4559 39.9864 46.211 40.8683C46.5431 41.0352 47.2497 41.0493 47.3395 41.4393C47.3776 41.6047 47.3742 41.7825 47.4386 41.9418C47.5241 42.1534 47.5207 42.3227 47.7099 42.4899C47.9621 42.7128 48.189 42.9713 48.4123 43.2365M48.4123 43.2365C48.5419 43.2701 48.6702 43.2961 48.7954 43.3083C48.8036 43.3092 48.8119 43.31 48.8201 43.3108M48.4123 43.2365C48.7813 43.6749 49.1405 44.1317 49.5879 44.477C50.1812 44.9347 50.7685 45.1889 51.509 45.3525C52.1688 45.4983 52.8814 45.5327 53.5205 45.7446C53.9964 45.9023 54.3705 45.9159 54.8774 45.9159C55.5533 45.9159 55.9706 46.2898 56.5314 46.5706C57.0673 46.839 57.9502 46.846 58.5472 46.9284C58.9726 46.9871 59.382 47.1152 59.8093 47.153C60.4819 47.2124 61.0697 47.4076 61.7045 47.5946C62.4014 47.7999 63.0215 47.8344 63.7591 47.8344H64.8316C65.134 47.8344 64.9611 47.7677 64.7584 47.6364C64.3117 47.3472 63.8558 47.0695 63.3988 46.7933M48.8201 43.3108C49.4227 43.3711 50.0214 43.4739 50.6156 43.5988M48.8201 43.3108C48.7268 43.2579 48.6389 43.1991 48.5585 43.1332C48.0543 42.7205 48.1322 41.9649 48.2561 41.3661M48.8201 43.3108C49.2308 43.5436 49.7471 43.6619 50.1996 43.7613C50.3595 43.7965 50.5203 43.8285 50.6818 43.8577M50.6156 43.5988C51.0423 43.6885 51.4668 43.7896 51.8888 43.8946M50.6156 43.5988C50.5728 43.2419 50.6575 42.7787 50.6734 42.5432C50.6855 42.3634 50.6908 42.1503 50.7087 41.9309M50.6156 43.5988C50.6271 43.695 50.6479 43.7835 50.6818 43.8577M51.8888 43.8946C51.9342 43.906 51.9797 43.9173 52.025 43.9287M51.8888 43.8946C51.8771 43.9011 51.8654 43.9074 51.8536 43.9136C51.802 43.9408 51.7278 43.971 51.6414 43.9985M51.8888 43.8946C51.9116 43.8821 51.9341 43.8691 51.9562 43.8558M52.025 43.9287C52.0656 43.9389 52.106 43.9491 52.1465 43.9593C52.2731 43.9912 52.392 44.0316 52.507 44.0773M52.025 43.9287C52.0017 43.9044 51.9788 43.8801 51.9562 43.8558M52.025 43.9287C52.0636 43.9689 52.1031 44.0091 52.1435 44.0492M52.507 44.0773C52.7206 44.1621 52.921 44.2652 53.1329 44.3666C53.35 44.4705 53.6196 44.5271 53.9008 44.5666M52.507 44.0773C52.3858 44.069 52.2646 44.0597 52.1435 44.0492M52.507 44.0773C52.7917 44.0967 53.0767 44.1103 53.3612 44.1192C53.4639 44.1224 53.6251 44.1351 53.8156 44.147M53.9008 44.5666C54.2885 44.6211 54.6984 44.6434 55.0238 44.713C56.3912 45.0054 57.7559 45.3024 59.1459 45.5009C59.8176 45.5969 60.8519 45.861 61.5351 45.6396M53.9008 44.5666C53.9331 44.8543 53.8826 45.0765 53.6196 45.0061C53.0841 44.8627 52.5657 44.4673 52.1435 44.0492M53.9008 44.5666C53.8859 44.4333 53.8532 44.2859 53.8156 44.147M61.5351 45.6396C61.5516 45.6343 61.5678 45.6287 61.5839 45.6228C61.9045 45.5047 62.123 45.258 62.2568 44.9671M61.5351 45.6396C61.5727 45.6647 61.6105 45.6895 61.6485 45.7141C61.708 45.7527 61.7677 45.791 61.8275 45.8291M61.5351 45.6396C60.6363 45.0416 59.8336 44.3253 58.8272 43.8641C58.462 43.6968 58.0875 43.5434 57.7101 43.394M62.2568 44.9671C62.4221 44.6076 62.4582 44.1805 62.398 43.8451C62.2804 43.1899 61.5869 42.6768 60.8617 42.2855M62.2568 44.9671C61.6151 44.1313 61.1343 43.243 60.8617 42.2855M62.2568 44.9671C62.303 45.0273 62.3501 45.0872 62.398 45.1469C62.514 45.2915 62.6356 45.4371 62.763 45.5812M60.8617 42.2855C60.6633 42.1786 60.4627 42.0807 60.2707 41.9915M60.8617 42.2855C60.8042 42.0837 60.756 41.8787 60.7174 41.6705M60.2707 41.9915C60.0412 42.0416 59.7576 42.0154 59.4431 41.9799C58.5126 41.8747 57.4894 41.5036 56.7451 40.9201M60.2707 41.9915C60.4613 41.95 60.6147 41.8557 60.7174 41.6705M56.7451 40.9201C56.3907 40.897 56.0189 40.8901 55.7342 41.0364M55.7342 41.0364C55.6012 41.1047 55.4872 41.2064 55.4029 41.3556C55.3884 41.3811 55.3746 41.4068 55.3613 41.4328M55.7342 41.0364C56.1138 41.3294 56.4952 41.6227 56.8832 41.9073M55.7342 41.0364C55.4025 40.7803 55.072 40.5243 54.7395 40.2745C53.6261 39.4378 52.5699 38.5047 51.4234 37.7035M55.3613 41.4328C55.3495 41.4558 55.3383 41.4789 55.3274 41.5022M55.3613 41.4328C55.4177 41.4619 55.4738 41.4916 55.5294 41.522M55.3613 41.4328C54.682 41.0834 53.9453 40.8319 53.177 40.6925M55.3274 41.5022C55.2095 41.7557 55.1439 42.0291 55.1281 42.3056M55.3274 41.5022C54.7256 41.4461 53.9345 41.3946 53.99 41.4774C54.0351 41.5446 54.0887 41.608 54.1486 41.668M55.3274 41.5022C55.3979 41.5088 55.4658 41.5155 55.5294 41.522M55.1281 42.3056C55.1261 42.3411 55.1249 42.3766 55.1245 42.4121M55.1281 42.3056C55.9512 42.7265 56.8384 43.0493 57.7101 43.394M55.1281 42.3056C55.0468 42.264 54.966 42.2214 54.886 42.1778C54.8729 42.1707 54.8598 42.1635 54.8466 42.1562M55.1245 42.4121C55.1188 42.9299 55.2858 43.4508 55.6084 43.8647M55.1245 42.4121C55.5372 42.8307 55.9148 43.4109 55.6084 43.8647M55.1245 42.4121C55.0312 42.3174 54.936 42.231 54.8466 42.1562M55.6084 43.8647C55.8949 44.2323 56.3042 44.5154 56.8243 44.6368C57.1341 44.7092 57.6035 44.7534 57.7805 44.4579C57.9911 44.1063 57.9098 43.7355 57.7101 43.394M55.6084 43.8647C55.606 43.8683 55.6035 43.8719 55.601 43.8755C55.3629 44.2145 54.4345 44.1855 53.8156 44.147M57.7101 43.394C57.5045 43.0428 57.1736 42.7225 56.9061 42.4861C56.4869 42.1156 56.0244 41.7923 55.5294 41.522M55.5294 41.522C55.7554 41.545 55.9276 41.5663 55.9714 41.5764C56.309 41.654 56.6054 41.7699 56.8832 41.9073M53.177 40.6925C52.863 40.6356 52.5438 40.5973 52.2212 40.5788M53.177 40.6925C53.2763 40.7939 53.3697 40.8982 53.4559 41.0054C53.6398 41.2339 53.5501 41.2863 53.3137 41.2221M53.177 40.6925C52.7349 40.2414 52.1749 39.8469 51.6078 39.5057M52.2212 40.5788C52.1585 40.5752 52.0957 40.5723 52.0328 40.5702M52.2212 40.5788C51.9334 40.279 51.7357 39.9105 51.6078 39.5057M52.2212 40.5788C52.3742 40.7382 52.5527 40.8782 52.7598 40.9938M52.0328 40.5702C51.8164 40.5629 51.5985 40.5645 51.3798 40.5752L51.3776 40.5753C51.2838 40.5799 51.0527 40.5913 51.0438 40.7085C51.0164 41.0721 50.6981 40.0467 50.5183 39.7187C50.274 39.2728 49.9181 38.8532 49.4445 38.6649M52.0328 40.5702C52.0891 40.6519 52.1445 40.7341 52.199 40.8167M52.0328 40.5702C51.6763 40.0525 51.2852 39.5533 50.865 39.0845M49.4445 38.6649C49.3938 38.6448 49.3418 38.6273 49.2884 38.6128M49.4445 38.6649C49.8879 38.5351 50.4887 38.8743 50.865 39.0845M49.4445 38.6649C49.4163 38.6732 49.3888 38.6833 49.362 38.6955M49.2884 38.6128C49.1772 38.5823 49.0601 38.5645 48.937 38.5616M49.2884 38.6128C49.3135 38.6402 49.338 38.6678 49.362 38.6955M49.2884 38.6128C48.8951 38.1814 48.3802 37.7805 48.0244 37.5109C47.7772 37.3236 47.5043 37.1417 47.2119 36.9923M48.937 38.5616C48.7945 38.5582 48.6439 38.5748 48.4853 38.6148C48.2003 38.6868 47.9823 38.9083 47.8315 39.153M48.937 38.5616C49.0166 38.6547 49.0922 38.7494 49.1633 38.8454M48.937 38.5616C48.4039 37.9375 47.6913 37.3815 46.9404 36.9507M47.8315 39.153C47.7497 39.2857 47.6876 39.4251 47.6453 39.5512C47.514 39.9429 47.391 40.8253 47.7746 41.1424C47.9005 41.2465 48.0692 41.3199 48.2561 41.3661M47.8315 39.153C46.9776 38.8912 46.0964 38.492 46.0172 37.6632C45.9939 37.4204 45.9637 37.0766 46.0225 36.7827M47.8315 39.153C48.0897 39.2322 48.3454 39.2988 48.5757 39.3609C48.5964 39.3665 48.7041 39.3997 48.8484 39.4392M48.2561 41.3661C48.6571 41.4653 49.1417 41.4396 49.4673 41.3251C49.9009 41.1727 49.879 40.569 49.8162 40.2402C49.7743 40.0207 49.7029 39.8032 49.6065 39.5894M48.2561 41.3661C48.2804 41.2487 48.3064 41.1374 48.3302 41.0358C48.4463 40.5397 48.5987 40.0501 48.7954 39.5741C48.8123 39.5332 48.8298 39.4876 48.8484 39.4392M49.6065 39.5894C49.4918 39.335 49.3415 39.086 49.1633 38.8454M49.6065 39.5894C49.3942 39.5794 49.0758 39.5015 48.8484 39.4392M49.6065 39.5894C49.7548 39.5964 49.8514 39.5703 49.8292 39.4827C49.7641 39.2262 49.5882 38.9565 49.362 38.6955M49.1633 38.8454C49.2188 38.7839 49.2822 38.7329 49.3553 38.6986C49.3576 38.6975 49.3598 38.6965 49.362 38.6955M49.1633 38.8454C49.0153 39.0089 48.9227 39.2462 48.8484 39.4392M46.9404 36.9507C46.9032 36.9293 46.8659 36.9083 46.8285 36.8875M46.9404 36.9507C46.8658 36.9381 46.8107 36.9282 46.7882 36.9247C46.5438 36.8869 46.2833 36.8419 46.0225 36.7827M46.9404 36.9507C47.0156 36.9633 47.1106 36.9785 47.2119 36.9923M46.8285 36.8875C46.7217 36.8283 46.6142 36.7716 46.5066 36.7177M46.8285 36.8875C46.76 36.8702 46.692 36.8522 46.6245 36.8333C46.5211 36.8045 46.2432 36.6597 46.3488 36.6811C46.4018 36.6918 46.4544 36.704 46.5066 36.7177M46.8285 36.8875C46.9365 36.9148 47.0455 36.9403 47.1555 36.964M46.5066 36.7177C46.3728 36.6507 46.2387 36.5879 46.105 36.5296M46.5066 36.7177C46.7309 36.7765 46.9479 36.8618 47.1555 36.964M46.105 36.5296C45.8141 36.4028 45.5252 36.2975 45.2461 36.2167C45.1744 36.1959 44.3263 35.9999 44.4967 36.1367C44.9034 36.4635 45.4637 36.6557 46.0225 36.7827M46.105 36.5296C46.121 36.4972 46.139 36.4663 46.1593 36.4375C46.2479 36.3114 46.6941 36.4173 46.8011 36.4337C47.2185 36.4975 47.6066 36.618 47.9709 36.7798M46.105 36.5296C46.0672 36.6063 46.0406 36.6921 46.0225 36.7827M47.2119 36.9923C47.2778 37.0013 47.3462 37.0096 47.4137 37.0163M47.2119 36.9923C47.1932 36.9827 47.1744 36.9733 47.1555 36.964M47.4137 37.0163C47.6646 37.041 47.9013 37.0421 47.9339 36.9628C47.958 36.9042 47.9697 36.8429 47.9709 36.7798M47.4137 37.0163C47.3271 36.9998 47.241 36.9824 47.1555 36.964M47.4137 37.0163C47.8457 37.0982 48.2896 37.1558 48.736 37.1967M47.9709 36.7798C47.9801 36.3192 47.4359 35.765 47.15 35.5048C46.7475 35.1387 46.2852 34.8086 45.7868 34.5349M47.9709 36.7798C48.238 36.8985 48.4923 37.0394 48.736 37.1967M45.7868 34.5349C45.4752 34.3638 45.1494 34.2147 44.8154 34.0926C44.5738 34.0043 44.0903 33.789 43.8075 33.8604C43.737 33.8782 43.9212 33.945 43.9884 33.9708C44.5692 34.1942 45.1776 34.3726 45.7868 34.5349ZM45.7868 34.5349C45.9715 34.5841 46.1562 34.6318 46.3402 34.6788C47.9263 35.084 49.5956 35.4738 51.2705 35.6741M51.2705 35.6741C51.2799 35.6752 51.2892 35.6763 51.2986 35.6774M51.2705 35.6741C51.2472 35.7263 51.2247 35.7765 51.2032 35.8246L51.1991 35.8337C51.035 36.2002 50.8675 36.5741 50.6303 36.9095C50.6139 36.9327 50.4619 37.0818 50.458 37.1303C50.4555 37.1611 50.5477 37.2233 50.6719 37.2934M51.2705 35.6741C51.2744 35.6652 51.2784 35.6564 51.2823 35.6474M51.2986 35.6774C51.4657 35.6972 51.6329 35.715 51.8001 35.7308M51.2986 35.6774C51.2931 35.6674 51.2877 35.6574 51.2823 35.6474M51.2986 35.6774C51.4028 35.8681 51.521 36.0554 51.6526 36.24M51.8001 35.7308C52.3589 35.7837 52.9174 35.8134 53.4728 35.8135M51.8001 35.7308C51.8871 35.4631 52.0019 35.1453 52.1634 34.8515M51.8001 35.7308C51.7918 35.7562 51.7838 35.7812 51.7761 35.8056C51.7329 35.9413 51.6913 36.0868 51.6526 36.24M53.4728 35.8135C53.0347 35.5293 52.6222 35.2229 52.2413 34.9148C52.2154 34.8939 52.1895 34.8728 52.1634 34.8515M54.0114 35.7859C53.9923 35.9026 53.9848 36.0172 53.9879 36.1298M54.766 35.6212C54.6912 35.5894 54.619 35.5569 54.55 35.5239C54.4122 35.458 54.2761 35.3874 54.1423 35.3125M56.1675 34.9072C56.4941 34.6772 56.7991 34.4169 57.0817 34.143M56.1675 34.9072C56.2865 34.991 56.4014 35.0786 56.5122 35.1696M56.1675 34.9072C55.7838 34.6368 55.3574 34.4051 54.8888 34.2207M57.0817 34.143C57.1216 34.1044 57.161 34.0654 57.2 34.0263M57.0817 34.143C57.0894 34.1467 57.0969 34.1504 57.1044 34.1542M57.0817 34.143C56.593 33.906 55.8851 33.8709 55.3986 33.9784C55.2092 34.0202 55.0394 34.106 54.8888 34.2207M57.2 34.0263C57.2217 34.0045 57.2433 33.9826 57.2648 33.9606M57.2 34.0263C57.2179 34.0034 57.2359 33.9808 57.2541 33.9585M57.2 34.0263C57.1676 34.0679 57.1357 34.1105 57.1044 34.1542M57.2648 33.9606C57.3838 33.8387 57.4986 33.7149 57.609 33.5905M57.2648 33.9606C57.3574 33.979 57.4472 33.9993 57.5331 34.0217M57.2648 33.9606C57.2612 33.9599 57.2577 33.9592 57.2541 33.9585M57.609 33.5905C57.6829 33.5072 57.7549 33.4237 57.8249 33.3403M57.609 33.5905C57.6914 33.5192 57.7771 33.454 57.8664 33.3956M57.609 33.5905C57.4834 33.6993 57.3655 33.8225 57.2541 33.9585M57.8249 33.3403C57.8594 33.2992 57.8934 33.2581 57.927 33.2171C57.9374 33.2044 57.9476 33.1918 57.9577 33.1794M57.8249 33.3403C57.8388 33.3587 57.8526 33.3772 57.8664 33.3956M57.8249 33.3403C57.6222 33.0715 57.41 32.8072 57.1879 32.5508M57.9577 33.1794C58.0139 33.1102 58.0642 33.0456 58.101 32.9846M57.9577 33.1794C57.9644 33.0938 57.9732 33.0096 57.9834 32.9285M57.9577 33.1794C57.9534 33.2341 57.95 33.2895 57.9477 33.345M58.101 32.9846C58.1747 32.8625 58.1942 32.7548 58.0981 32.653M58.101 32.9846C58.0624 32.9674 58.023 32.9484 57.9834 32.9285M58.101 32.9846C58.402 33.1188 58.6531 33.1468 58.5388 32.7087M58.0981 32.653C58.0807 32.6346 58.0596 32.6163 58.0342 32.5982M58.0981 32.653C58.0741 32.6501 58.0501 32.6472 58.026 32.6443M58.0981 32.653C58.2452 32.6709 58.392 32.6894 58.5388 32.7087M58.0342 32.5982C57.9994 32.5733 57.9568 32.5487 57.9054 32.5243C57.5574 32.3587 57.3991 32.4324 57.4928 32.5832M58.0342 32.5982C58.0567 32.4744 58.0798 32.368 58.0993 32.2883C58.1197 32.2041 58.1711 32.1438 58.244 32.1028M58.0342 32.5982C58.0315 32.6133 58.0287 32.6287 58.026 32.6443M57.4928 32.5832C57.536 32.6527 57.6327 32.7386 57.7891 32.825C57.8523 32.8599 57.9181 32.8955 57.9834 32.9285M57.4928 32.5832C57.3912 32.5721 57.2896 32.5613 57.1879 32.5508M57.4928 32.5832C57.6707 32.6026 57.8485 32.623 58.026 32.6443M57.9834 32.9285C57.996 32.8281 58.0107 32.7324 58.026 32.6443M58.5388 32.7087C58.5361 32.6982 58.5331 32.6875 58.53 32.6766C58.4726 32.4761 58.3738 32.2834 58.244 32.1028M58.5388 32.7087C58.9218 32.7589 59.3038 32.814 59.6844 32.8745C59.8463 32.9002 60.008 32.9274 60.1693 32.9559M58.244 32.1028C57.7854 31.4651 56.9396 30.9794 56.1609 30.8418C55.8735 30.791 55.5439 30.7512 55.2075 30.7394M58.244 32.1028C58.5543 31.9282 59.254 32.1038 59.6153 32.2771M55.2075 30.7394C54.6867 30.7211 54.1496 30.7699 53.7273 30.9484C53.3489 31.1083 53.4773 31.3632 53.0381 31.2833C52.7457 31.2301 52.4389 31.16 52.1344 31.1301M55.2075 30.7394C55.9416 31.2472 56.5995 31.8715 57.1879 32.5508M55.2075 30.7394C55.0548 30.6338 54.8988 30.5333 54.7395 30.4383C54.1406 30.0813 52.9245 29.5707 52.224 30.0119C52.0219 30.1393 51.8471 30.3036 51.6959 30.491M52.1344 31.1301C52.0288 31.1197 51.9235 31.1141 51.8191 31.1159C51.3062 31.1242 51.5072 31.911 51.5607 32.1817C51.6507 32.6369 51.8353 33.0663 52.0904 33.4625M52.1344 31.1301C52.3944 31.7885 52.3067 32.6363 52.0904 33.4625M52.1344 31.1301C52.0389 30.888 51.8963 30.6715 51.6959 30.491M52.6831 34.2042C53.1012 34.6363 53.6028 35.0103 54.1423 35.3125M52.6831 34.2042C52.469 34.3733 52.2996 34.6039 52.1634 34.8515M56.1132 36.0244C56.0294 36.2256 55.9514 36.4312 55.8819 36.6393M56.9899 36.1161C57.135 36.1184 57.2779 36.1134 57.4169 36.1M57.5167 36.089C57.5981 36.0786 57.678 36.0653 57.756 36.0487M57.5167 36.089C57.485 36.0085 57.4573 35.9197 57.4339 35.8246M57.756 36.0487C57.8306 36.0329 57.9035 36.014 57.9743 35.9921C58.3202 35.8849 58.7288 35.6183 59.1013 35.2689M57.756 36.0487C57.7714 35.8907 57.7861 35.7217 57.7889 35.5508M59.1013 35.2689C59.4562 34.936 59.7783 34.528 59.9822 34.1111M59.1013 35.2689C59.1544 35.3594 59.2067 35.4495 59.2579 35.5391C59.3354 35.6746 59.4138 35.8143 59.4921 35.9577M59.1013 35.2689C58.9848 35.0708 58.8637 34.871 58.7378 34.6707M59.9822 34.1111C60.0171 34.0396 60.0487 33.9677 60.0762 33.896M59.9822 34.1111C60.0148 34.1511 60.0448 34.1896 60.072 34.2258C60.199 34.3951 60.312 34.5701 60.4123 34.7497M59.9822 34.1111C59.9655 34.0908 59.9482 34.07 59.9303 34.0489M60.0762 33.896C60.1594 33.6797 60.2069 33.4641 60.207 33.2584M60.0762 33.896C60.0292 33.9488 59.9805 33.9999 59.9303 34.0489M60.0762 33.896C60.2204 33.7341 60.3491 33.5559 60.4572 33.37M60.207 33.2584C60.207 33.1547 60.195 33.0535 60.1693 32.9559M60.207 33.2584C60.2922 33.2919 60.3756 33.3293 60.4572 33.37M60.207 33.2584C60.0771 33.2073 59.943 33.1651 59.805 33.1333C59.0415 32.9577 58.4402 33.0525 57.9477 33.345M60.1693 32.9559C60.1408 32.8477 60.0956 32.744 60.0315 32.6464M60.1693 32.9559C60.321 32.9828 60.4725 33.0108 60.6236 33.0401M60.0315 32.6464C59.9689 32.5511 59.8883 32.4617 59.7877 32.3796C59.7484 32.3475 59.6889 32.3124 59.6153 32.2771M60.0315 32.6464C59.8729 32.5399 59.7318 32.4159 59.6153 32.2771M60.0315 32.6464C60.2205 32.7733 60.4344 32.8752 60.6614 32.9476M59.6153 32.2771C59.3561 31.9682 59.2185 31.5861 59.2795 31.1615C59.369 30.5382 60.6636 31.5252 60.7526 31.782C60.8689 32.1177 60.8214 32.5351 60.6614 32.9476M57.9477 33.345C57.9467 33.3676 57.9459 33.3902 57.9454 33.4128M57.9477 33.345C57.9203 33.3613 57.8932 33.3781 57.8664 33.3956M57.9454 33.4128C57.9446 33.442 57.9442 33.4712 57.9441 33.5004M57.9454 33.4128C57.9726 33.3894 58.001 33.3673 58.0303 33.3465C58.7052 32.8694 59.5005 33.5442 59.9303 34.0489M57.9454 33.4128C57.9319 33.4244 57.9187 33.4362 57.9057 33.4484M57.9441 33.5004C57.9435 33.7566 57.9699 34.0075 58.0437 34.2113M57.9441 33.5004C58.2276 33.8858 58.4918 34.2791 58.7378 34.6707M57.9441 33.5004C57.9314 33.483 57.9186 33.4657 57.9057 33.4484M58.0437 34.2113C58.1127 34.402 58.2232 34.5514 58.3917 34.625M58.0437 34.2113C58.2429 34.3193 58.3722 34.4549 58.3917 34.625M58.0437 34.2113C57.9035 34.1353 57.7287 34.0729 57.5331 34.0217M58.3917 34.625C58.4861 34.6662 58.5987 34.6836 58.7324 34.6712L58.7378 34.6707M58.3917 34.625C58.398 34.6799 58.3928 34.7383 58.3749 34.8006C58.3 35.0613 58.0553 35.3255 57.7889 35.5508M58.7378 34.6707C59.1658 34.6292 59.5832 34.3882 59.9303 34.0489M60.4572 33.37C60.52 33.262 60.5758 33.1515 60.6236 33.0401M60.4572 33.37C60.6666 33.4745 60.8641 33.6013 61.0493 33.743M60.6236 33.0401C60.6368 33.0093 60.6495 32.9784 60.6614 32.9476M60.6236 33.0401C60.8654 33.0868 61.1064 33.1366 61.3466 33.1893M60.6614 32.9476C60.902 33.0242 61.1573 33.0676 61.4134 33.0723M61.4134 33.0723C61.4401 33.0727 61.4668 33.0728 61.4934 33.0724C61.8413 33.0676 62.0791 32.867 62.236 32.5865M61.4134 33.0723C61.5808 32.7825 61.7622 32.4971 61.9622 32.2286M61.4134 33.0723C61.3909 33.1112 61.3686 33.1502 61.3466 33.1893M62.236 32.5865C62.2965 32.4784 62.345 32.3584 62.3831 32.2332M62.236 32.5865C62.1334 32.4686 62.0422 32.3499 61.9622 32.2286M62.236 32.5865C62.322 32.6854 62.4162 32.7836 62.5186 32.8821C62.7891 33.1424 63.1395 33.5003 63.5325 33.7515M62.3831 32.2332C62.4147 32.1293 62.4392 32.0219 62.4576 31.9146M62.3831 32.2332C62.4767 32.2906 62.5706 32.3471 62.665 32.4025C63.3197 32.7868 63.9747 33.1469 64.6529 33.4642M62.3831 32.2332C62.2873 32.1744 62.1918 32.1148 62.0967 32.0544M62.4576 31.9146C62.4752 31.8117 62.4871 31.709 62.4941 31.6097M62.4576 31.9146C62.395 31.9102 62.3283 31.8897 62.261 31.8582M62.4576 31.9146C62.5387 31.9203 62.6131 31.8989 62.6737 31.8391C62.7776 31.7364 62.7785 31.5382 62.7669 31.3608M62.4941 31.6097C62.5106 31.3789 62.5009 31.1672 62.4755 31.0169C62.4173 30.6717 62.2774 30.0881 61.782 30.0881C61.561 30.0881 61.499 30.3464 61.5021 30.6231M62.4941 31.6097C62.5818 31.5227 62.6726 31.4395 62.7669 31.3608M62.4941 31.6097C62.4138 31.6895 62.3362 31.7725 62.261 31.8582M61.5021 30.6231C61.5031 30.7076 61.5101 30.7939 61.5205 30.875M61.5021 30.6231C61.4765 30.3951 61.4296 29.975 61.5279 29.8977C61.5702 29.8645 61.9565 30.0558 61.9931 30.0728C62.4896 30.3044 62.7512 30.631 62.7512 31.1159C62.7512 31.1807 62.7607 31.2679 62.7669 31.3608M61.5021 30.6231C61.509 30.6837 61.5143 30.7308 61.515 30.7542C61.5162 30.795 61.518 30.8353 61.5205 30.875M61.5205 30.875C61.5422 31.0439 61.5786 31.1904 61.6054 31.2529C61.6575 31.3738 61.9665 31.7205 62.261 31.8582M61.5205 30.875C61.5425 31.2256 61.6149 31.5364 61.7419 31.8258M62.261 31.8582C62.2049 31.9222 62.1501 31.9876 62.0967 32.0544M62.7669 31.3608C63.0524 31.1225 63.3693 30.9255 63.7246 30.7885L63.7277 30.7873M61.7419 31.8258C61.8027 31.9643 61.8759 32.0979 61.9622 32.2286M61.7419 31.8258C61.8599 31.9028 61.9781 31.9791 62.0967 32.0544M61.9622 32.2286C62.0061 32.1697 62.0509 32.1116 62.0967 32.0544M63.5325 33.7515C63.7756 33.9068 64.0349 34.0214 64.3018 34.0469C64.3694 34.0534 64.4311 34.0532 64.4874 34.0473M63.5325 33.7515C62.812 33.5395 62.083 33.3508 61.3466 33.1893M63.5325 33.7515C63.8525 33.8456 64.1709 33.9443 64.4874 34.0473M64.4874 34.0473C64.7363 34.0211 64.8812 33.8818 64.9698 33.699M64.4874 34.0473C65.072 34.2374 65.6505 34.442 66.2223 34.6589M64.9698 33.699C64.9818 33.6744 64.9927 33.649 65.0027 33.623M64.9698 33.699C64.9393 33.678 64.909 33.6569 64.879 33.6358C64.7993 33.5797 64.7239 33.5226 64.6529 33.4642M64.9698 33.699C65.3608 33.9677 65.7939 34.2264 66.2448 34.4562M65.0027 33.623C65.0682 33.4528 65.0951 33.256 65.1159 33.0801C65.2107 32.2799 65.319 31.4256 65.1407 30.6279M65.0027 33.623C65.4203 33.8067 65.8479 33.9734 66.2908 34.1189M65.0027 33.623C64.8853 33.5714 64.7688 33.5185 64.6529 33.4642M65.1407 30.6279C65.1397 30.6231 65.1386 30.6182 65.1375 30.6134C65.0496 30.228 64.8344 29.8901 64.3449 29.8901C63.9259 29.8901 63.7807 30.3629 63.7277 30.7873M65.1407 30.6279C65.304 30.6314 65.4659 30.6362 65.6242 30.6362C66.4181 30.6362 67.2123 30.6302 68.0061 30.6362C69.9497 30.6509 70.9031 32.5854 71.4142 34.1797M65.1407 30.6279C64.6595 30.6176 64.1674 30.6186 63.7277 30.7873M63.7277 30.7873C63.701 31.001 63.6976 31.2025 63.6945 31.3252C63.6719 32.2027 63.953 32.8895 64.6529 33.4642M66.2448 34.4562C66.696 34.6863 67.165 34.8873 67.6271 35.0404C67.6331 35.0424 67.6395 35.0446 67.6464 35.0469M66.2448 34.4562C66.2586 34.342 66.2741 34.2294 66.2908 34.1189M66.2448 34.4562C66.2367 34.5233 66.2291 34.5909 66.2223 34.6589M67.6464 35.0469C67.8792 35.1259 68.6196 35.3989 68.7212 35.0823C68.7366 35.0341 68.7508 34.9851 68.7638 34.9355M67.6464 35.0469C67.6584 34.9381 67.6724 34.8327 67.6874 34.7321C67.6944 34.6852 67.7029 34.6289 67.7134 34.5658M67.6464 35.0469C67.64 35.1051 67.6342 35.1642 67.6292 35.224M68.7638 34.9355C68.9167 34.3492 68.8939 33.6745 68.7372 33.0683M68.7638 34.9355C68.9292 35.0084 69.0885 35.0876 69.2424 35.1722M68.7638 34.9355C68.5586 34.845 68.3439 34.764 68.1181 34.694C67.9831 34.6522 67.8482 34.6092 67.7134 34.5658M68.7372 33.0683C68.6875 32.8758 68.6242 32.6903 68.5489 32.5167C68.3969 32.1665 68.0443 31.5846 67.5194 31.6145C66.6947 31.6615 66.4381 33.2725 66.3521 33.75C66.3306 33.8697 66.3099 33.9929 66.2908 34.1189M68.7372 33.0683C69.0797 33.1121 69.2149 33.4971 69.2983 33.75C69.4285 34.1444 69.4995 34.561 69.5331 34.9842M68.7372 33.0683C68.7076 33.0645 68.6764 33.0632 68.6436 33.0648C68.0178 33.0955 67.7989 34.0542 67.7134 34.5658M66.2908 34.1189C66.4162 34.1601 66.5429 34.1996 66.6709 34.2373C67.02 34.3401 67.3666 34.4541 67.7134 34.5658M66.2223 34.6589C66.135 35.5306 66.1613 36.4735 66.509 37.261M66.2223 34.6589C66.4969 34.763 66.7699 34.87 67.0413 34.9795C67.2384 35.0591 67.4345 35.1405 67.6292 35.224M66.509 37.261C66.57 37.399 66.6408 37.5322 66.7226 37.6594C66.8068 37.7905 66.9288 37.9308 67.0762 38.0662M66.509 37.261C66.864 36.9231 67.2506 36.6032 67.6507 36.2979M66.509 37.261C66.374 37.3895 66.2436 37.5206 66.1188 37.6545M67.0762 38.0662C67.1707 38.153 67.2757 38.2378 67.3879 38.3168M67.0762 38.0662C67.2096 37.9603 67.3464 37.8606 67.4924 37.7687M67.0762 38.0662C66.9975 38.1287 66.9199 38.1934 66.8423 38.26M67.3879 38.3168C67.8443 38.6381 68.4208 38.8642 68.9021 38.7443C69.0434 38.709 69.1496 38.6242 69.2298 38.5088M67.3879 38.3168C67.4171 38.1327 67.4516 37.9498 67.4924 37.7687M67.3879 38.3168C67.2459 39.2141 67.2322 40.1401 67.2481 41.0206C67.2534 41.3167 67.2875 41.5882 67.3607 41.831M69.2298 38.5088C69.299 38.4092 69.3487 38.2869 69.3848 38.1541M69.2298 38.5088C69.2118 38.3685 69.2017 38.2268 69.198 38.0853M69.2298 38.5088C69.2806 38.9062 69.3945 39.2926 69.6032 39.6348M69.3848 38.1541C69.4945 37.7507 69.4778 37.251 69.4965 37.0008C69.4981 36.9787 69.4998 36.9564 69.5014 36.9342M69.3848 38.1541C69.3222 38.1324 69.2598 38.1095 69.198 38.0853M69.3848 38.1541C69.5401 38.208 69.6967 38.2545 69.8497 38.2951C70.6582 38.5094 70.8725 37.9573 70.783 37.3861M69.5014 36.9342C69.5058 36.8748 69.5101 36.815 69.5143 36.7549M69.5014 36.9342C69.5599 36.9175 69.6185 36.9017 69.6774 36.8866C69.7075 36.879 69.7656 36.87 69.8336 36.8577M69.5014 36.9342C69.426 36.9556 69.3509 36.9784 69.2762 37.0023M69.5143 36.7549C69.5279 36.5577 69.5399 36.3571 69.5479 36.1546M69.5143 36.7549C69.5362 36.7584 69.5604 36.7642 69.5869 36.7724C69.6707 36.7984 69.753 36.8268 69.8336 36.8577M69.5143 36.7549C69.3418 36.7272 69.3029 36.8382 69.2762 37.0023M69.5479 36.1546C69.5515 36.0631 69.5543 35.9712 69.5561 35.8791M69.5479 36.1546C69.3248 36.0313 69.0989 35.9127 68.8704 35.7983M69.5479 36.1546C69.5508 36.1563 69.5538 36.1579 69.5568 36.1596C69.7626 36.2735 70.0747 36.4065 70.2201 36.5935C70.3431 36.7516 70.0418 36.8202 69.8336 36.8577M69.5561 35.8791C69.5594 35.7047 69.559 35.5296 69.5534 35.3548M69.5561 35.8791C70.0294 36.0488 70.3953 36.4352 70.6035 36.8372C70.6898 37.0039 70.7532 37.1961 70.783 37.3861M69.5561 35.8791C69.4627 35.8457 69.3652 35.8206 69.2639 35.8056C69.1215 35.7844 68.9907 35.783 68.8704 35.7983M69.5534 35.3548C69.5494 35.231 69.5428 35.1073 69.5331 34.9842M69.5534 35.3548C70.423 35.8982 71.1261 36.6156 71.833 37.3552M69.5534 35.3548C69.4521 35.2915 69.3485 35.2306 69.2424 35.1722M69.5331 34.9842C70.1375 34.6076 70.7148 34.343 71.4142 34.1797M69.5331 34.9842C69.4371 35.0441 69.3404 35.1067 69.2424 35.1722M67.6292 35.224C67.6 35.5707 67.5963 35.9426 67.6507 36.2979M67.6292 35.224C67.9409 35.3577 68.2492 35.4969 68.5535 35.6429M67.6507 36.2979C67.6778 36.4749 67.7193 36.6478 67.7793 36.8113M67.6507 36.2979C67.9467 36.072 68.2501 35.8541 68.5535 35.6429M67.7793 36.8113C67.8577 37.025 67.9677 37.2227 68.1181 37.3929C68.1304 37.4068 68.143 37.4206 68.1558 37.4341M67.7793 36.8113C67.9772 36.3087 68.3079 35.87 68.8704 35.7983M67.7793 36.8113C67.773 36.8275 67.7667 36.8437 67.7606 36.86C67.6501 37.1554 67.5621 37.4593 67.4924 37.7687M68.1558 37.4341C68.4265 37.7215 68.8016 37.93 69.198 38.0853M68.1558 37.4341C68.5207 37.2759 68.8936 37.1245 69.2762 37.0023M68.1558 37.4341C68.0884 37.4634 68.0213 37.4928 67.9545 37.5223C67.7878 37.596 67.6357 37.6786 67.4924 37.7687M69.198 38.0853C69.1891 37.7442 69.2176 37.4038 69.2639 37.0846L69.2647 37.0786C69.2686 37.0522 69.2723 37.0266 69.2762 37.0023M70.783 37.3861C71.2541 37.7458 71.6238 38.2063 71.8631 38.7235M70.783 37.3861C70.5009 37.1707 70.1824 36.9914 69.8336 36.8577M68.8704 35.7983C68.7653 35.7456 68.6596 35.6939 68.5535 35.6429M67.3607 41.831C67.5382 42.4205 67.9453 42.8414 68.7273 43.036M67.3607 41.831C67.9314 41.2048 68.5101 40.6058 69.3885 40.3283M67.3607 41.831C67.1845 42.0243 67.0091 42.2202 66.8259 42.41C66.2988 42.9561 65.4716 43.0429 64.7815 43.2901M68.7273 43.036C68.7863 43.0507 68.8474 43.0641 68.9107 43.0761C69.0396 43.1007 69.2002 43.13 69.3813 43.1583M68.7273 43.036C68.7994 43.0064 68.8748 42.9859 68.9538 42.9772C69.153 42.9552 69.3774 42.9686 69.5958 42.9962M68.7273 43.036C68.3651 43.1848 68.0886 43.563 67.8769 43.826C67.7604 43.9709 67.5436 44.3309 67.4107 44.6887M69.3813 43.1583C69.7471 43.2154 70.1966 43.2686 70.637 43.2716M69.3813 43.1583C68.7244 43.6678 68.1381 44.2356 67.4107 44.6887M69.3813 43.1583C69.4519 43.1035 69.5233 43.0494 69.5958 42.9962M70.637 43.2716C70.8318 43.273 71.0248 43.2645 71.208 43.2422M70.637 43.2716C70.7899 43.3621 70.8937 43.4753 70.959 43.6146M70.637 43.2716C70.4879 43.1834 70.292 43.1168 70.0392 43.0685C69.9018 43.0423 69.7503 43.0157 69.5958 42.9962M71.208 43.2422C71.8 43.1703 72.29 42.9543 72.4082 42.4595C72.5361 41.9241 72.4426 41.4365 72.1943 41.0125M71.208 43.2422C71.1266 43.3709 71.0429 43.4958 70.959 43.6146M71.208 43.2422C71.2289 43.2093 71.2496 43.1762 71.2701 43.1429M72.1943 41.0125C72.1869 41 72.1795 40.9875 72.1718 40.975M72.1943 41.0125C72.1738 41.2895 72.1362 41.5642 72.0852 41.8314C72.0055 42.2484 71.8205 43.0086 71.2701 43.1429M72.1943 41.0125C72.1963 40.9857 72.1981 40.9588 72.1998 40.9319M72.1718 40.975C71.9137 40.5537 71.502 40.1968 71.0041 39.9205C70.9533 39.8923 70.9023 39.863 70.851 39.8334M72.1718 40.975C72.0621 41.1473 71.9729 41.3232 71.9172 41.5002C71.8715 41.6457 71.9757 41.6688 71.8612 41.9722C71.7192 42.3488 71.5061 42.7594 71.2701 43.1429M72.1718 40.975C72.181 40.9606 72.1903 40.9462 72.1998 40.9319M70.851 39.8334C70.5951 39.6856 70.3309 39.5296 70.0392 39.4599C69.8092 39.405 69.6846 39.4925 69.6032 39.6348M70.851 39.8334C70.7158 39.9669 70.5809 40.0956 70.4372 40.1574M70.851 39.8334C70.9398 39.7457 71.0287 39.6559 71.1204 39.5817C71.2789 39.4532 71.437 39.3642 71.6243 39.2696C71.795 39.1834 71.852 38.9641 71.8631 38.7235M69.6032 39.6348C69.5419 39.742 69.5051 39.8801 69.4663 40.0118C69.4368 40.112 69.4106 40.218 69.3885 40.3283M69.6032 39.6348C69.6697 39.7438 69.7457 39.8482 69.8325 39.9471C69.9451 40.0756 70.0498 40.1475 70.1488 40.1779M69.3885 40.3283C69.2515 41.0103 69.2695 41.8519 69.6257 42.429C69.6997 42.5489 69.8029 42.6639 69.926 42.7662M69.3885 40.3283C69.492 40.2956 69.5996 40.2673 69.7119 40.244C69.8544 40.2145 70.0007 40.1928 70.1488 40.1779M69.926 42.7662C70.2817 43.0618 70.803 43.2513 71.2625 43.1447C71.265 43.1441 71.2676 43.1435 71.2701 43.1429M69.926 42.7662C69.813 42.8404 69.7033 42.9173 69.5958 42.9962M69.926 42.7662C70.0739 42.6691 70.2273 42.5764 70.3881 42.4899C71.3007 41.999 71.3573 41.4616 71.3573 40.5714C71.3573 40.3458 71.3785 40.1827 71.073 40.1641C70.8645 40.1514 70.6505 40.1481 70.4372 40.1574M72.1998 40.9319C72.2312 40.4241 72.2045 39.9103 72.0981 39.4218C72.0456 39.1808 71.9665 38.9469 71.8631 38.7235M72.1998 40.9319C72.4726 40.5175 72.8581 40.1249 73.1706 39.7873C73.3483 39.5954 73.3977 39.2985 73.3702 39.0156M71.8631 38.7235C71.8767 38.4309 71.8224 38.1069 71.8224 37.9525C71.8224 37.7561 71.8275 37.5565 71.833 37.3552M70.1488 40.1779C70.2501 40.2091 70.3454 40.1969 70.4372 40.1574M70.1488 40.1779C70.2444 40.1683 70.3407 40.1616 70.4372 40.1574M71.833 37.3552C71.8527 36.6313 71.8789 35.8858 71.7018 35.1927C71.6247 34.8908 71.531 34.5441 71.4142 34.1797M71.833 37.3552C71.9055 37.431 71.978 37.5071 72.0507 37.5832C72.4532 38.0044 73.0456 38.4856 73.3702 39.0156M71.4142 34.1797C71.5563 34.1465 71.7035 34.1175 71.8569 34.0926C71.9846 34.0719 72.4114 33.9676 72.5633 34.0431C72.724 34.123 72.6643 35.3025 72.6753 35.4706C72.7129 36.0438 72.7078 36.628 72.7701 37.1988C72.8221 37.6761 72.9893 38.0573 73.218 38.4854C73.2945 38.6286 73.351 38.8187 73.3702 39.0156M61.3466 33.1893C61.2426 33.3739 61.1439 33.5595 61.0493 33.743M61.0493 33.743C60.8712 34.0886 60.7077 34.4264 60.5506 34.7349M61.0493 33.743C61.4853 34.0766 61.8534 34.4928 62.1482 34.8958C62.2079 34.9775 62.276 35.0817 62.3462 35.2014M60.5506 34.7349L60.5501 34.7359C60.5262 34.783 60.5039 34.8315 60.4831 34.8811M60.5506 34.7349C60.9311 34.708 61.3494 34.7843 61.6356 34.873C61.8928 34.9527 62.1315 35.0639 62.3462 35.2014M60.5506 34.7349C60.5039 34.7382 60.4576 34.7431 60.4123 34.7497M60.4831 34.8811C60.4602 34.837 60.4366 34.7932 60.4123 34.7497M60.0566 37.0487C60.0561 37.0576 60.0557 37.0665 60.0553 37.0754M60.0566 37.0487C60.05 37.0443 60.0434 37.0398 60.0369 37.0354M60.0566 37.0487C60.317 37.2217 60.6443 37.3371 60.9806 37.4141M60.0553 37.0754C60.0412 37.3751 60.0495 37.6843 60.0888 37.9855M60.0553 37.0754C60.2078 37.4085 60.3501 37.752 60.4737 38.1005M60.0553 37.0754C60.0492 37.0621 60.043 37.0487 60.0369 37.0354M60.0888 37.9855C60.2176 38.0271 60.3463 38.0654 60.4737 38.1005M60.5675 39.3214C60.5883 39.3504 60.6097 39.3788 60.632 39.4066C60.7097 39.5037 60.791 39.5987 60.8757 39.6917M60.5675 39.3214C60.5527 39.6625 60.5597 40.0015 60.5773 40.3249M60.8757 39.6917C60.9522 39.7758 61.0314 39.8583 61.1129 39.9393M60.8757 39.6917C60.8997 39.868 60.9159 40.0437 60.9232 40.218M61.1129 39.9393C61.0665 40.0559 61.0047 40.1523 60.9232 40.218M62.9626 41.3719C63.0915 41.4546 63.2208 41.5353 63.3499 41.6144C63.3898 41.6389 63.4297 41.6632 63.4697 41.6872M62.9626 41.3719C62.9735 41.1547 62.9857 40.9459 62.9881 40.7541C62.9986 39.9296 63.0255 39.1042 63.1452 38.2882M62.9626 41.3719C62.9318 41.9827 62.9107 42.6602 63.142 43.2128M63.4697 41.6872C63.8877 41.9383 64.313 42.1623 64.8101 42.2692C64.8148 42.2702 64.8194 42.271 64.824 42.2718M63.4697 41.6872C63.5122 41.5225 63.5569 41.3586 63.604 41.1957C63.6202 41.1399 63.7591 40.5463 63.7591 40.8797C63.7591 40.927 63.7449 41.2558 63.8366 41.0891C64.1709 40.4819 64.286 39.7117 64.4655 39.064C64.5846 38.6344 64.714 38.2056 64.8451 37.7766M63.4697 41.6872C63.3401 42.1899 63.2316 42.7003 63.142 43.2128M64.824 42.2718C65.5504 42.3963 65.694 39.9115 65.7233 39.6122C65.7583 39.2533 65.7 38.9386 65.5706 38.6572M64.824 42.2718C65.0671 41.2665 65.2724 40.2471 65.4648 39.2391C65.5027 39.0405 65.5294 38.8459 65.5706 38.6572M64.824 42.2718C64.7564 42.5514 64.6859 42.8298 64.612 43.1066C64.6069 43.1256 64.6019 43.1446 64.597 43.1636M65.5706 38.6572C65.4168 38.3228 65.1625 38.0354 64.8451 37.7766M65.5706 38.6572C65.5741 38.6412 65.5776 38.6252 65.5814 38.6093M64.8451 37.7766C64.6917 37.6516 64.5236 37.5333 64.3449 37.4196C64.0739 37.2471 63.7209 36.8597 63.5014 36.9987M64.8451 37.7766C64.9159 37.5451 64.9872 37.3134 65.0576 37.0816M63.5014 36.9987C63.4405 37.0373 63.3899 37.1165 63.3542 37.2521C63.2638 37.5952 63.1961 37.9409 63.1452 38.2882M63.5014 36.9987C63.5712 37.4556 63.5494 38.0083 63.1819 38.2646C63.1701 38.2728 63.1579 38.2807 63.1452 38.2882M63.5014 36.9987C63.4752 36.8266 63.4359 36.668 63.3973 36.544C63.3964 36.5411 63.3954 36.5381 63.3945 36.5351M63.142 43.2128C63.2 43.3512 63.2737 43.4818 63.3671 43.6015C63.3735 43.6096 63.38 43.6174 63.3865 43.6248M63.142 43.2128C63.04 43.7963 62.9626 44.3827 62.9062 44.9642C62.8871 45.1615 62.871 45.3589 62.8585 45.5565M63.3865 43.6248C63.6347 43.9059 64.0421 43.7009 64.4932 43.2667M63.3865 43.6248C63.4106 43.4166 63.4211 43.2436 63.6988 43.2436C63.9248 43.2436 64.2003 43.2477 64.4932 43.2667M63.3865 43.6248C63.3834 43.6521 63.38 43.6799 63.3758 43.708C63.2919 44.2638 63.3026 44.8617 63.3942 45.4358M64.4932 43.2667C64.5276 43.2336 64.5622 43.1992 64.597 43.1636M64.4932 43.2667C64.5187 43.2684 64.5444 43.2701 64.5702 43.272M64.597 43.1636C65.5952 42.1425 66.7596 40.1223 66.8862 39.7796C67.129 39.1227 67.1498 38.6701 66.8423 38.26M64.597 43.1636C64.5878 43.1996 64.5789 43.2357 64.5702 43.272M66.8423 38.26C66.6998 38.07 66.4868 37.8891 66.1928 37.7012C66.1682 37.6856 66.1436 37.67 66.1188 37.6545M66.8423 38.26C66.7768 38.3161 66.7113 38.3736 66.645 38.4321C66.4449 38.609 66.0214 39.1426 65.7146 38.7975C65.6638 38.7404 65.6197 38.6772 65.5814 38.6093M66.1188 37.6545C65.8641 37.495 65.5963 37.3437 65.3194 37.2062M66.1188 37.6545C66.0634 37.7139 66.009 37.7739 65.9558 37.8345C65.7436 38.0763 65.645 38.3365 65.5814 38.6093M65.3194 37.2062C65.233 37.1632 65.1457 37.1217 65.0576 37.0816M65.3194 37.2062C65.3302 37.6533 65.357 38.2119 65.5814 38.6093M65.3194 37.2062C65.3174 37.126 65.316 37.0494 65.3141 36.978C65.308 36.7546 65.2948 36.5224 65.2923 36.2892M65.0576 37.0816C64.7613 36.9468 64.4562 36.8289 64.1468 36.7344C63.9699 36.6803 63.6991 36.6023 63.3945 36.5351M65.0576 37.0816C65.1377 36.8178 65.2166 36.5538 65.2923 36.2892M63.3945 36.5351C63.2208 36.4968 63.0362 36.462 62.8518 36.4373M63.3945 36.5351C63.2225 35.9914 62.8501 35.5241 62.3462 35.2014M62.8518 36.4373C62.3113 36.3647 61.7722 36.3778 61.515 36.6392C61.3618 36.7949 61.2317 36.9665 61.1216 37.1503M60.9806 37.4141C60.868 37.6512 60.7831 37.9038 60.72 38.165M60.9806 37.4141C61.0371 37.427 61.0939 37.4388 61.1506 37.4497M60.72 38.165C60.6857 38.3073 60.6579 38.4521 60.6357 38.5983M60.72 38.165C60.6387 38.1448 60.5565 38.1233 60.4737 38.1005M60.72 38.165C60.8454 38.1961 60.9687 38.2242 61.0886 38.2494C61.1236 38.2568 61.1623 38.2648 61.204 38.2733M60.6357 38.5983C60.5864 38.4316 60.5321 38.2655 60.4737 38.1005M60.5773 40.3249C60.1135 40.3566 59.5598 40.1803 59.1502 40.0689C59.0054 40.0296 58.8612 39.9877 58.718 39.9432M60.5773 40.3249C60.6313 40.3212 60.6841 40.3147 60.7353 40.305C60.8073 40.2912 60.8695 40.2613 60.9232 40.218M62.763 45.5812C62.7921 45.6142 62.8215 45.647 62.8512 45.6797M62.763 45.5812C62.7948 45.573 62.8267 45.5648 62.8585 45.5565M62.763 45.5812C62.4946 45.6504 62.2263 45.718 61.9586 45.7941C61.9154 45.8063 61.8717 45.818 61.8275 45.8291M62.8512 45.6797C63.1101 45.9649 63.3925 46.242 63.7004 46.4908M62.8512 45.6797C62.8535 45.6387 62.8559 45.5976 62.8585 45.5565M62.8512 45.6797C62.8429 45.8281 62.8368 45.9766 62.833 46.1252C62.8315 46.1862 62.814 46.311 62.8097 46.4372M63.7004 46.4908C63.7541 46.5342 63.8085 46.5767 63.8638 46.6182M63.7004 46.4908C63.6546 46.4288 63.6166 46.3531 63.5868 46.2585C63.5041 45.9952 63.4393 45.7184 63.3942 45.4358M63.7004 46.4908C63.7412 46.5459 63.7881 46.5902 63.8408 46.6275M63.8638 46.6182C63.9055 46.6496 63.9476 46.6804 63.9902 46.7106M63.8638 46.6182C63.8561 46.6213 63.8485 46.6244 63.8408 46.6275M63.8638 46.6182C64.242 46.4643 64.606 46.2926 64.9612 46.1091M63.9902 46.7106C64.4147 47.0118 64.8845 47.2541 65.4045 47.3928C65.8635 47.5152 66.0647 47.3763 66.2072 47.1093M63.9902 46.7106C63.9362 46.6866 63.8863 46.6597 63.8408 46.6275M63.9902 46.7106C64.1365 46.7758 64.3134 46.82 64.5172 46.8903C65.0256 47.0658 65.6216 47.1166 66.2072 47.1093M66.2072 47.1093C66.2619 47.007 66.3079 46.8858 66.3564 46.7533C66.4816 46.4119 66.5945 46.0522 66.6809 45.6883M66.2072 47.1093C66.5781 47.1047 66.9449 47.0769 67.2825 47.0426C68.3199 46.9374 69.049 46.8595 69.7894 46.2052C69.8937 46.113 69.9989 46.0175 70.1018 45.9184M66.6809 45.6883C66.7308 45.4779 66.7718 45.2662 66.8012 45.0557M66.6809 45.6883C66.6617 45.6944 66.6426 45.7004 66.6235 45.7065C66.1035 45.8713 65.5338 46.0464 64.9612 46.1091M66.6809 45.6883C66.9096 45.6153 67.1379 45.5392 67.3652 45.4601M66.8012 45.0557C66.8204 44.9178 66.8347 44.7805 66.8432 44.6445C66.9019 43.7024 65.8006 43.3908 64.7815 43.2901M66.8012 45.0557C66.1944 45.4212 65.5915 45.7836 64.9612 46.1091M66.8012 45.0557C66.9697 44.9541 67.1385 44.8523 67.3084 44.751C67.3428 44.7305 67.3769 44.7097 67.4107 44.6887M64.7815 43.2901C64.7105 43.2831 64.6399 43.2771 64.5702 43.272M64.7815 43.2901C64.7002 43.3193 64.6208 43.3506 64.544 43.3852M64.5702 43.272C64.5612 43.3096 64.5525 43.3473 64.544 43.3852M63.3942 45.4358C63.4079 45.4341 63.4219 45.4325 63.4361 45.4308M63.3942 45.4358C63.3082 45.4461 63.2332 45.4564 63.1819 45.4705C63.0741 45.5001 62.9663 45.5285 62.8585 45.5565M63.8408 46.6275C63.7569 46.6615 63.6722 46.6945 63.5868 46.7267C63.5394 46.7445 63.4731 46.7701 63.3988 46.7933M70.1018 45.9184C70.5729 45.4645 70.994 44.9357 71.0428 44.3095C71.0648 44.0272 71.0452 43.7982 70.959 43.6146M70.1018 45.9184C69.9251 45.9189 69.7442 45.9159 69.5568 45.9159C68.9927 45.9159 67.7375 45.9359 67.373 45.4705C67.3703 45.4671 67.3677 45.4636 67.3652 45.4601M70.1018 45.9184C70.5739 45.917 71.016 45.89 71.4736 45.7103C71.66 45.6371 71.8725 45.529 72.0163 45.402C72.1222 45.3084 72.1827 45.1864 72.2876 45.0936C72.4102 44.9853 72.6076 44.9524 72.7528 44.8043C73.1023 44.448 73.6057 43.85 73.6057 43.3464V41.6677C73.6057 40.9799 73.7438 40.1079 73.5626 39.4447C73.5227 39.2984 73.4557 39.1553 73.3702 39.0156M70.959 43.6146C70.9367 43.6462 70.9144 43.6774 70.8921 43.708C70.7362 43.9223 70.4932 44.0878 70.233 44.1724C69.9052 44.2792 69.6486 44.5468 69.3242 44.6901C68.6877 44.9714 68.0305 45.2286 67.3652 45.4601M67.4107 44.6887C67.2982 44.9915 67.2458 45.2926 67.3652 45.4601M69.2424 35.1722C69.2266 35.1828 69.2108 35.1934 69.195 35.2041C68.9829 35.3474 68.7682 35.4935 68.5535 35.6429M63.3988 46.7933C63.2024 46.6746 63.0059 46.5561 62.8097 46.4372M63.3988 46.7933C63.2156 46.8504 62.9842 46.8925 62.8718 46.7647C62.8152 46.7004 62.8053 46.568 62.8097 46.4372M62.8097 46.4372C62.4801 46.2373 62.1517 46.0359 61.8275 45.8291M61.8275 45.8291C60.94 46.0529 59.8659 46.0529 58.9653 46.0529H58.9607C58.7895 46.0529 58.8114 46.0958 58.7023 46.1747C58.5862 46.2587 58.1582 46.1899 58.0217 46.1899C57.0186 46.1899 56.2234 46.0691 55.3253 45.6418C54.0866 45.0523 52.5069 45.0677 51.354 44.3399M54.8466 42.1562C54.6049 42.0229 54.3438 41.8637 54.1486 41.668M54.8466 42.1562C54.7843 42.1041 54.7248 42.0576 54.6706 42.0179C54.5055 41.8969 54.3307 41.7796 54.1486 41.668M54.1486 41.668C53.8836 41.5055 53.6031 41.355 53.3137 41.2221M56.8832 41.9073C57.3757 42.151 57.8096 42.4624 58.3103 42.7488C58.6078 42.9189 58.5125 43.0011 58.2285 42.8249C57.7668 42.5384 57.3207 42.2284 56.8832 41.9073ZM51.4234 37.7035C51.3803 37.6734 51.337 37.6435 51.2937 37.6137C51.2498 37.5836 50.9047 37.4248 50.6719 37.2934M51.4234 37.7035C51.4314 37.5683 51.4433 37.4338 51.4585 37.301M51.4234 37.7035C51.3873 38.3164 51.4308 38.9458 51.6078 39.5057M50.6719 37.2934C50.041 37.2805 49.3859 37.2562 48.736 37.1967M50.6719 37.2934C50.7503 37.295 50.8284 37.2965 50.906 37.2977C51.0877 37.3008 51.2721 37.302 51.4585 37.301M51.2823 35.6474C51.4254 35.3258 51.5958 34.9326 51.7556 34.5043M51.7556 34.5043C51.8918 34.625 52.0285 34.7409 52.1634 34.8515M51.6959 30.491C51.2413 31.0545 50.9995 31.827 50.8672 32.4329C50.7885 32.7938 50.7477 33.1398 50.7429 33.4732M53.9879 36.1298C54.4363 36.3892 54.9069 36.6198 55.3939 36.8022M53.9879 36.1298C53.9971 36.4615 54.0982 36.7753 54.2642 37.0696M55.3939 36.8022C55.5244 36.851 55.656 36.8964 55.7887 36.938M55.3939 36.8022C55.0271 36.9124 54.6485 37.0003 54.2642 37.0696M55.3939 36.8022C55.5591 36.7525 55.722 36.6983 55.8819 36.6393M55.7887 36.938C55.8176 36.838 55.8488 36.7383 55.8819 36.6393M55.7887 36.938C55.6479 37.4244 55.5593 37.9203 55.5562 38.4044M57.7065 36.5073C57.7086 36.4927 57.7105 36.478 57.7124 36.4631M57.7889 35.5508C57.7957 35.1279 57.7297 34.6931 57.4233 34.382M57.7889 35.5508C57.6705 35.651 57.5479 35.7435 57.4339 35.8246M57.4233 34.382C57.4054 34.3637 57.3866 34.346 57.367 34.3286C57.2913 34.2617 57.2026 34.2038 57.1044 34.1542M57.4233 34.382C57.4514 34.2574 57.4877 34.1363 57.5331 34.0217M57.4233 34.382C57.3142 34.8674 57.3314 35.4066 57.4339 35.8246M57.1044 34.1542C57.0094 34.2867 56.9192 34.429 56.8329 34.5798C56.7262 34.7663 56.618 34.9637 56.5122 35.1696M54.8888 34.2207C54.7727 34.1751 54.654 34.1323 54.5328 34.0926C54.3538 34.034 54.1512 33.9803 53.9431 33.9483M54.2642 37.0696C54.5493 37.5751 55.0258 38.0228 55.5562 38.4044M55.5562 38.4044C55.5536 38.8062 55.6099 39.1999 55.7441 39.5731M61.204 38.2733C61.1944 38.1537 61.1859 38.0556 61.1833 37.9905C61.1761 37.8109 61.1656 37.6304 61.1506 37.4497M60.4123 34.7497C60.1861 34.7826 59.982 34.8586 59.8394 34.9986C59.6086 35.2252 59.4931 35.5969 59.4921 35.9577M57.9057 33.4484C57.7439 33.6003 57.6214 33.7987 57.5331 34.0217M57.9057 33.4484C57.8927 33.4308 57.8796 33.4132 57.8664 33.3956M57.4339 35.8246C57.3804 35.8627 57.3289 35.8983 57.2806 35.931M57.2541 33.9585C56.3448 33.7803 55.1686 33.7881 54.8257 33.7881C54.5199 33.7881 54.2671 33.806 53.99 33.9251C53.9806 33.9292 53.9641 33.9376 53.9431 33.9483M56.5122 35.1696C56.7952 35.4022 57.0514 35.6574 57.2806 35.931M57.1879 32.5508C56.2186 32.4506 55.2455 32.3765 54.2743 32.3187C54.179 32.3131 53.2471 32.2698 53.3095 32.3111C53.9356 32.7261 53.5505 33.3516 53.5949 33.9177M51.6526 36.24C51.9027 36.5908 52.2011 36.9318 52.5436 37.2674M51.6526 36.24C51.5703 36.566 51.5012 36.9266 51.4585 37.301M52.5436 37.2674C52.1778 37.2889 51.8145 37.2991 51.4585 37.301M53.9431 33.9483C53.8277 33.9305 53.7106 33.9194 53.5949 33.9177M53.9431 33.9483C53.8387 34.0012 53.6235 34.1091 53.6067 34.0127C53.6012 33.9812 53.5974 33.9495 53.5949 33.9177M51.6078 39.5057C51.3974 39.3791 51.1859 39.2599 50.9792 39.1478C50.9441 39.1287 50.9059 39.1074 50.865 39.0845M52.7598 40.9938C52.9151 41.0806 53.0864 41.1536 53.275 41.2109C53.2883 41.215 53.3012 41.2187 53.3137 41.2221M52.7598 40.9938C52.9468 41.062 53.132 41.1386 53.3137 41.2221M52.7598 40.9938C52.5741 40.9261 52.3866 40.8666 52.199 40.8167M50.865 39.0845C50.4514 38.6233 50.0097 38.1914 49.5449 37.8002C49.2872 37.5834 49.0187 37.3791 48.736 37.1967M50.6818 43.8577C50.9993 43.9151 51.3196 43.9614 51.6414 43.9985M50.6818 43.8577C50.7006 43.8988 50.7234 43.9356 50.7509 43.9669C50.9165 44.1551 51.3488 44.092 51.6414 43.9985M51.6414 43.9985C51.8084 44.0178 51.9759 44.0346 52.1435 44.0492M53.8156 44.147C53.7452 43.8866 53.6576 43.656 53.6379 43.6042L53.6368 43.6015C53.2809 42.6638 52.7923 41.7156 52.199 40.8167M52.199 40.8167C52.1872 40.8136 52.1755 40.8105 52.1637 40.8074C51.8904 40.7365 51.2637 40.5769 51.0481 40.8341C51.008 40.8819 50.9727 40.9339 50.9414 40.9893M50.9414 40.9893C50.791 41.2558 50.7355 41.6005 50.7087 41.9309M50.9414 40.9893C51.1377 41.0828 51.3453 41.2225 51.3669 41.2376C51.9084 41.6149 52.5504 42.0976 52.6203 42.7488C52.6705 43.2166 52.3747 43.6039 51.9562 43.8558M50.9414 40.9893C50.7645 40.9051 50.5968 40.8586 50.5829 40.9749C50.5455 41.2893 50.5993 41.6135 50.7087 41.9309M50.7087 41.9309C50.8971 42.4776 51.2504 43.0042 51.5866 43.4264C51.694 43.5613 51.8183 43.7078 51.9562 43.8558M65.2923 36.2892C65.2882 35.8896 65.3157 35.4869 65.4648 35.1204C65.5006 35.0325 65.7307 34.5305 65.6414 34.9339C65.5409 35.3877 65.4212 35.8392 65.2923 36.2892ZM64.9612 46.1091C64.6478 46.1435 64.3336 46.1441 64.0262 46.091C63.6155 46.02 63.4617 45.753 63.4361 45.4308M64.544 43.3852C64.1758 43.5511 63.8678 43.7914 63.6988 44.2181C63.5808 44.516 63.4035 45.0186 63.4361 45.4308M64.544 43.3852C64.4082 43.9931 64.335 44.6314 64.1511 45.2002C64.0995 45.3598 63.7217 45.3977 63.4361 45.4308" stroke="#FFB327" stroke-width="8" stroke-linecap="round"/>
</svg>
