<svg width="57" height="55" viewBox="0 0 57 55" fill="none" xmlns="http://www.w3.org/2000/svg">
<path d="M30.2875 21.5273C26.1443 21.5273 21.3831 21.642 18.2136 24.5865C16.4251 26.2482 17.9369 30.2569 18.5307 32.1325C20.1409 37.2185 26.0007 40.2904 31.3852 40.2904C34.108 40.2904 33.4937 37.7509 34.678 35.8942C36.4443 33.1252 35.9952 29.7598 35.9952 26.6487C35.9952 24.64 35.4522 22.4732 33.8975 21.0288C32.2918 19.537 30.3052 20.7116 28.5313 20.7116" stroke="black" stroke-width="3" stroke-linecap="round"/>
<path d="M30.2881 19.8952C25.1267 15.5797 17.7917 10.2786 25.2634 4.59925C29.0769 1.70048 34.0463 0.618204 37.5324 4.57659C39.5124 6.82491 42.7543 11.3198 39.0691 13.4596C37.6401 14.2893 37.2824 16.6353 35.7518 17.4479C34.4456 18.1413 33.3874 19.2713 32.0443 19.8952" stroke="black" stroke-width="3" stroke-linecap="round"/>
<path d="M35.1159 20.3026C35.1159 18.3499 36.7766 15.7092 37.9453 14.003C39.2541 12.0923 41.7677 10.4428 43.6774 9.06293C45.3367 7.86397 47.7817 7.596 49.385 9.08559C51.6278 11.1692 51.6769 11.9784 52.4584 14.5921C53.1805 17.0074 53.7038 19.3221 51.2632 20.8918C49.156 22.2471 47.4836 24.3816 44.775 24.3816C42.3197 24.3816 40.8478 22.9791 38.6283 22.75C37.3871 22.6219 34.7642 21.6886 34.2378 20.7105" stroke="black" stroke-width="3" stroke-linecap="round"/>
<path d="M36.4341 26.4218C36.9385 22.2042 44.424 20.7113 47.8738 20.7113C50.2101 20.7113 52.9439 20.1417 54.3376 22.3428C55.1019 23.5499 55.2534 25.8986 54.5327 27.2375C52.6312 30.7706 46.696 34.2282 42.3613 33.3333C39.7244 32.7889 40.2379 30.0233 39.166 28.7785C38.2482 27.7127 37.0945 26.0172 36.4341 24.7902" stroke="black" stroke-width="3" stroke-linecap="round"/>
<path d="M37.312 32.1318C39.6755 32.1318 41.2203 30.5131 43.2391 29.5032C44.3216 28.9617 48.2594 28.8887 49.1663 29.6845C52.8433 32.9107 51.5979 37.6228 48.2882 40.6976C44.7272 44.0059 38.8288 45.092 36.5314 40.2897C35.2079 37.5231 37.7334 34.5629 35.1167 32.1318" stroke="black" stroke-width="3" stroke-linecap="round"/>
<path d="M32.9209 39.4744C32.9209 40.7049 33.623 41.6559 34.1405 42.7375C34.7123 43.933 34.6771 46.3118 34.6771 47.6096C34.6771 51.9364 29.6663 54.0028 25.5546 52.5269C20.3122 50.6452 19.9901 46.2667 23.0422 42.171C23.6578 41.345 24.8509 40.088 25.6765 39.4744C26.5532 38.8228 26.6316 37.4296 27.2132 36.6191" stroke="black" stroke-width="3" stroke-linecap="round"/>
<path d="M21.9451 36.619C21.9451 39.4407 21.1387 44.1446 19.5303 46.635C18.1189 48.8205 17.7176 49.4541 14.6763 49.6489C12.1219 49.8126 9.73129 49.8117 8.55403 47.4055C4.96305 40.066 13.848 32.948 21.067 32.948" stroke="black" stroke-width="3" stroke-linecap="round"/>
<path d="M18.4316 29.6849C13.9975 29.6849 10.6373 32.3781 6.1382 32.1322C4.70143 32.0537 4.4753 29.3133 4.3576 28.4385C3.95382 25.4375 3.97305 23.8731 5.45523 21.1191C6.58344 19.0228 11.883 16.7724 14.2606 18.4905C16.0084 19.7534 17.1145 22.8321 17.1145 24.7901" stroke="black" stroke-width="3" stroke-linecap="round"/>
<path d="M25.4563 20.7115C21.3793 20.7115 16.8739 21.1378 12.9433 20.3263C10.4625 19.8141 10.9676 18.3996 10.9676 16.2247C10.9676 12.6832 13.0876 11.3312 16.5777 10.1063C19.3964 9.11705 28.5296 7.68247 28.5296 12.3724C28.5296 14.0416 28.9678 16.3293 28.432 17.9469C27.9142 19.5105 27.2125 20.6812 27.2125 22.3431" stroke="black" stroke-width="3" stroke-linecap="round"/>
<path d="M18.4326 27.2375C14.2305 27.2375 9.99548 27.6454 5.91968 27.6454C5.02686 27.6454 2.18775 27.1971 2.18775 28.2573C2.18775 29.0752 1.70631 31.8518 2.28532 32.4495C4.6974 34.9394 6.1985 36.2112 9.87114 36.2112C12.3084 36.2112 14.3116 35.6866 16.6764 35.3727C18.5577 35.1231 18.9015 33.3143 19.7498 32.1323" stroke="black" stroke-width="3" stroke-linecap="round"/>
<path d="M26.3429 26.9621C24.8595 26.9621 24.8507 28.0922 25.6191 29.2059C26.8256 30.9545 30.0146 30.7852 31.2397 29.1784C31.6331 28.6624 32.4042 27.1274 31.8379 26.523C31.0584 25.6909 29.0234 25.9741 27.9678 25.9741C26.9221 25.9741 26.5986 25.9475 26.5054 27.0445C26.3874 28.4335 26.4722 29.7733 27.4065 30.9144C28.9484 32.7979 31.0617 30.4421 30.9738 28.7667C30.9269 27.8735 29.9984 27.7032 29.2086 27.7032C28.162 27.7032 28.2612 29.2164 28.2041 29.9058C28.1769 30.2339 27.8158 31.3241 28.2632 31.532C28.6611 31.7168 30.0166 31.8582 30.2721 31.4084C31.1955 29.7831 26.6645 28.5564 25.8702 30.2008C25.6745 30.606 25.4085 31.8418 25.9145 32.1426C26.5729 32.5341 28.1223 32.6183 28.5956 31.9368C30.0174 29.8893 27.5826 26.6993 25.0873 26.8592C24.0066 26.9284 24.0623 28.7298 24.1124 29.4049C24.2002 30.5876 24.5015 31.3922 25.9145 31.4084C27.1835 31.423 27.6743 30.6767 27.7757 29.5558C27.9206 27.9561 26.8989 27.0888 25.2794 26.7426C24.2921 26.5314 23.063 26.3304 22.0444 26.4818C21.4235 26.5741 21.4002 27.7557 21.4314 28.1904C21.5162 29.3719 24.6285 29.9196 24.7402 28.6226C24.7775 28.1892 24.9127 27.3582 24.4226 27.1131C23.7834 26.7933 22.7376 26.6097 22.0149 26.5916C21.2455 26.5723 21.4021 27.8142 21.6603 28.3207C22.0981 29.1793 22.6205 27.9054 22.6205 27.5179C22.6205 26.5929 21.9676 25.9422 20.9587 25.7339C20.2275 25.583 19.1914 26.5397 19.0015 27.1131C18.6769 28.0929 18.682 28.824 19.2304 29.7411C19.4228 30.0628 19.3779 30.4481 19.5332 30.7909C19.6694 31.0913 19.9424 31.7226 19.9616 32.026C19.9959 32.5674 20.7268 34.1964 21.3649 34.3658C22.3729 34.6334 23.4119 35.3359 24.1863 36.0057C25.126 36.8186 25.6594 37.4604 27.015 37.4604C27.8384 37.4604 28.3598 37.475 29.0756 37.8378C30.0036 38.308 30.0653 38.8808 30.0653 37.33C30.0653 35.9672 30.2294 34.5118 29.7994 33.1925C29.5831 32.5287 29.3612 31.4903 28.4995 31.3124C27.3978 31.0849 26.9533 32.0134 26.7713 32.8768C26.5816 33.7766 26.5135 34.72 26.4832 35.6352C26.4693 36.0555 26.3705 36.6967 26.6679 37.0624C27.2996 37.8392 29.1526 36.4764 28.5069 35.7381C28.127 35.3037 24.8638 34.9494 25.0282 35.4842C25.1569 35.9025 26.3304 35.9863 26.7122 35.9783C27.6598 35.9583 26.2347 34.3129 26.077 34.1531C25.3466 33.4128 24.2338 32.5027 23.1818 32.1769C23.0129 32.1246 23.4463 32.3683 23.684 32.2456C24.3301 31.9121 22.6252 29.2668 22.4875 28.6913C22.3134 27.9634 22.4937 27.5793 22.6279 26.8935C22.9556 25.2189 24.9768 24.7389 26.4758 24.341C27.5486 24.0563 28.4625 23.595 29.5336 23.3186C30.2703 23.1285 30.4986 23.1557 30.9959 22.6393C31.2267 22.3997 31.9783 21.9037 31.764 21.5277C31.3554 20.8107 29.429 21.4699 28.8688 21.5277C28.375 21.5787 27.4538 22.1598 27.0667 22.4541C26.4788 22.9009 25.4456 22.9726 24.7402 23.202C23.8546 23.4899 23.0506 23.7137 22.2217 24.1214C21.053 24.6962 21.3627 25.6859 21.4535 26.8386C21.5716 28.3373 22.2365 29.5069 23.0784 30.736C23.2677 31.0123 23.3974 31.2629 23.6249 31.532C24.2057 32.2187 25.8592 32.387 26.7196 32.5132C28.2626 32.7395 28.77 32.3232 29.637 31.1065C30.5512 29.8235 31.9265 28.3573 31.9265 26.7563C31.9265 25.5888 31.7114 24.7992 30.3903 24.5537C29.6768 24.4211 28.599 24.0407 28.3961 24.8213C27.6413 27.7268 27.6723 30.756 27.6723 33.7277C27.6723 34.551 27.8337 35.0826 28.0712 35.8548C28.3211 36.6673 30.1472 36.4168 30.7153 36.2116C32.0667 35.7233 32.6616 34.849 33.0492 33.563C33.372 32.4919 33.3889 31.3442 33.3889 30.242C33.3889 29.6233 33.4019 28.8047 33.5514 28.1972C33.8025 27.1765 33.6548 26.0346 33.6548 24.986C33.6548 24.5773 33.7939 23.6468 33.4406 23.3186C32.9064 22.8223 32.0361 22.7628 31.3357 22.7628C29.8827 22.7628 29.6566 24.3995 29.3711 25.48C28.9367 27.1241 28.8688 28.7334 28.8688 30.4204C28.8688 31.8072 28.7809 33.2148 28.9722 34.5922C29.089 35.4327 29.8426 35.6581 30.6636 35.0931C31.737 34.3544 32.8807 32.6399 32.9827 31.3604C33.0729 30.2296 33.0445 29.0702 33.2264 27.9502C33.3644 27.1011 33.6212 26.1042 33.6548 25.2604C33.6757 24.7365 33.8056 24.2193 33.3151 23.9293C32.4707 23.4301 31.2827 23.5039 30.3312 23.5039C29.0559 23.5039 27.7807 23.5039 26.5054 23.5039C26.1159 23.5039 25.6646 23.5656 25.2794 23.5039C24.4693 23.3741 23.8146 22.7912 22.9898 22.7628C21.8931 22.7251 21.0036 22.4971 20.0281 23.202C18.7095 24.1548 17.8659 25.3574 17.8345 26.9621C17.7949 28.9861 17.8304 31.2811 19.4889 32.8219C20.4656 33.7293 21.491 34.5934 22.458 35.5117C23.2933 36.305 24.2695 37.3369 25.5748 37.3369C26.1918 37.3369 26.2567 37.2334 26.7417 37.5839C27.1922 37.9094 27.6711 38.1905 28.1303 38.5033C28.6836 38.8804 29.3794 38.9072 30.0062 38.6955C30.8561 38.4084 31.7846 37.5701 32.4288 36.9938C33.0696 36.4205 33.5648 36.0816 33.8173 35.2372C34.1971 33.9671 35.3807 32.9199 35.6416 31.5868C35.9594 29.963 35.9148 28.2734 35.9148 26.619C35.9148 26.263 36.1413 24.9071 35.8853 24.6429C35.4848 24.2295 34.9738 23.8202 34.482 23.5039C33.1584 22.6526 30.8364 22.8339 29.408 23.3804C27.2863 24.192 26.2448 25.4772 25.8407 27.5797C25.6024 28.8191 25.6226 30.1508 25.6782 31.4084C25.7532 33.1036 28.4582 33.1681 29.7699 33.2336C30.7832 33.2842 32.0376 33.4251 33.0492 33.2542C33.4303 33.1898 33.4089 32.1524 33.4628 31.9093C33.5752 31.4022 33.7102 30.9451 33.6474 30.4204C33.5613 29.7003 32.456 29.2887 31.8453 29.0618C30.8635 28.6969 29.826 28.4564 28.7654 28.4442C28.1414 28.4371 27.1716 28.279 26.5792 28.4991C25.5411 28.8849 25.0447 30.1626 24.6737 31.0242C24.3019 31.8879 24.067 32.7288 24.0829 33.6591C24.095 34.3681 24.3847 34.8886 25.0799 35.2235C25.5199 35.4354 26.5417 35.7019 26.8008 35.1549C28.0363 32.5462 26.8986 29.6868 24.2232 28.3962C23.1489 27.878 21.9641 27.641 20.7593 27.7032C19.8063 27.7524 20.1852 29.4291 20.257 30.0224C20.5886 32.7608 23.1268 34.9916 25.5969 36.2665C26.1821 36.5685 27.4314 37.0491 27.9308 36.3762C28.3441 35.8195 28.3864 35.0189 28.47 34.3727C28.5799 33.524 28.7409 32.6497 28.7137 31.7927C28.6212 28.8687 24.4631 27.2645 21.7785 27.0925C20.8885 27.0355 20.3437 27.6663 20.5672 28.5266C21.0185 30.2634 23.7414 32.5048 25.6782 31.2575C27.7569 29.9188 28.1594 25.4942 25.0135 25.1369C24.5942 25.0893 23.2661 24.8954 22.9528 25.2536C22.3956 25.8908 22.2604 26.9209 22.1552 27.7032C21.836 30.0755 23.4339 31.1772 25.693 32.1152C28.0201 33.0814 30.531 33.4075 33.0492 33.6042C34.3199 33.7034 35.7364 33.8858 37.0079 33.6728C39.2448 33.298 39.3323 29.4031 37.4068 28.5952C36.0564 28.0286 34.0585 27.9317 32.7242 28.5403C29.8701 29.842 33.0379 32.5238 34.7479 33.3571C35.2492 33.6014 36.1807 34.1432 36.1807 33.3434C36.1807 31.2591 35.75 29.381 34.5189 27.6071C33.9653 26.8093 33.1193 25.714 32.089 25.384C31.774 25.283 31.3493 25.324 31.0255 25.281C30.213 25.1732 29.4228 24.9509 28.6029 24.8899C27.1076 24.7788 25.887 24.9004 24.8805 26.0289C24.2101 26.7807 23.3913 28.2194 23.7136 29.2539C24.0533 30.3442 27.6006 28.7698 28.049 28.5472C29.1475 28.0017 30.1675 27.326 31.1732 26.6465C31.3607 26.5198 31.8694 26.2829 31.9192 26.0289C32.0438 25.3919 30.7115 24.9364 30.2574 24.739C28.9895 24.1876 27.729 23.919 26.3577 23.696C26.0391 23.6442 25.4148 23.4877 25.1464 23.7509C24.4771 24.4073 24.6879 26.0989 24.8362 26.8661C25.2579 29.0469 27.5431 30.0953 29.6813 30.5439C30.8639 30.792 30.4666 30.0405 29.9767 29.2539C28.2446 26.4726 25.2421 24.8143 21.8228 24.986C20.9984 25.0274 21.291 26.6738 21.291 27.2091" stroke="#E6FE33" stroke-width="3" stroke-linecap="round"/>
</svg>
