<svg width="46" height="52" viewBox="0 0 46 52" fill="none" xmlns="http://www.w3.org/2000/svg">
<path d="M19.7237 24.0142C17.0443 24.2993 13.8301 25.7446 11.5849 27.5879C8.75625 29.9103 8.39506 33.5721 8.72743 37.6046C8.98353 40.7118 10.449 43.8516 12.3534 45.8092C13.8671 47.3652 16.1741 46.9709 17.9501 46.6649C19.5979 46.381 20.9146 46.1606 21.7535 44.1607C22.6427 42.0409 23.0035 39.6068 23.2709 37.2523C23.5453 34.8363 23.7222 32.3492 23.6158 29.9034C23.567 28.782 23.0804 28.0073 22.9162 26.9588" stroke="black" stroke-width="3" stroke-linecap="round"/>
<path d="M23.6263 16.3133C23.278 15.9179 22.5283 15.8688 22.0891 15.8603C20.6283 15.832 19.1655 15.8603 17.7044 15.8603C16.1393 15.8603 15.2146 17.3039 15.5071 19.3585C16.3816 25.5008 22.6963 28.5813 26.8976 27.8148C29.0108 27.4293 30.2029 26.9777 30.3561 24.1404C30.4409 22.5699 30.0202 19.236 29.1244 18.0247C28.2548 16.8487 26.8384 15.9534 25.5871 15.6338C24.7962 15.4317 24.1066 14.5012 23.2715 14.5012" stroke="black" stroke-width="3" stroke-linecap="round"/>
<path d="M29.1243 16.0867C30.4159 15.7061 31.6624 14.2907 32.8882 13.6455C34.3655 12.8679 36.5154 11.7874 38.1696 12.0222C39.2212 12.1714 40.1973 14.0424 40.7118 15.0423C41.3461 16.2751 41.9127 17.3194 41.6774 18.8552C41.3258 21.1498 40.2991 21.5229 38.6327 21.5229C37.6948 21.5229 36.5086 20.5451 35.6767 20.038C34.4164 19.2698 33.3282 19.0541 31.962 18.8048" stroke="black" stroke-width="3" stroke-linecap="round"/>
<path d="M28.7695 15.86C29.9566 14.6938 31.1089 14.2109 31.8832 12.4875C32.5913 10.9113 32.7723 8.85225 32.8389 7.06395C32.8868 5.78056 32.7943 5.04822 32.3167 3.98093C32.0097 3.29487 29.4807 3.58872 28.9863 3.67892C26.6518 4.10483 25.5281 7.46585 25.1534 10.0715C24.8129 12.4387 25.2223 14.4223 25.2223 16.766" stroke="black" stroke-width="3" stroke-linecap="round"/>
<path d="M21.4978 14.7273C22.9342 12.8929 24.0847 11.1866 25.183 8.98911C25.7734 7.80786 26.6413 6.43518 26.6413 4.93714C26.6413 0.765903 22.9422 1.96951 20.9264 2.94891C17.9504 4.39479 16.8834 7.84356 17.7733 11.6317C17.9954 12.5771 19.8569 16.0489 20.611 15.4068" stroke="black" stroke-width="3" stroke-linecap="round"/>
<path d="M16.355 15.6337C17.4187 13.4761 18.9561 8.43551 17.2418 6.24623C15.0528 3.45056 10.2665 6.61533 8.49208 8.72522C7.40824 10.0139 7.13232 11.4457 7.13232 13.2302C7.13232 14.8121 8.97822 15.5254 9.97008 15.9609C11.5071 16.6356 14.0844 16.5854 15.4682 15.4072" stroke="black" stroke-width="3" stroke-linecap="round"/>
<path d="M15.1966 21.8795C15.1966 18.9365 11.2585 15.6898 9.17624 15.5498C6.17953 15.3484 1.30834 16.2092 2.08186 21.3132C2.97246 27.1897 9.24222 27.5563 12.6742 25.7301C13.5957 25.2397 14.11 23.8496 14.5266 22.7855C14.8087 22.0649 15.374 21.3686 15.374 20.5204" stroke="black" stroke-width="3" stroke-linecap="round"/>
<path d="M27.8833 27.412C25.8886 28.0296 24.3714 30.3717 23.272 32.4958C21.8033 35.3334 19.8728 38.2875 20.3653 41.9211C20.6435 43.9744 21.5754 45.9736 22.3852 47.7599C22.7236 48.5064 23.2112 49.5283 23.9125 49.723C25.2274 50.088 26.7428 49.7809 28.0213 49.3455C29.2892 48.9137 31.5763 48.212 31.9626 46.2876C32.2907 44.6536 32.2675 42.98 32.4947 41.3296C32.6473 40.2209 32.8997 38.9606 32.81 37.8313C32.6447 35.7506 32.0225 33.7215 31.5291 31.7408C30.9108 29.2594 29.7072 26.959 27.5286 26.959" stroke="black" stroke-width="3" stroke-linecap="round"/>
<path d="M30.7204 24.2411C29.9496 24.3641 31.7377 29.2784 32.0013 29.8282C33.43 32.8084 34.7929 35.7665 37.2432 37.5547C38.7751 38.6726 41.3389 40.2879 42.9976 38.4104C44.4535 36.7623 44.425 33.1662 43.8055 31.0363C42.6486 27.0584 39.08 24.1558 36.12 22.7058C34.5102 21.9173 33.2709 21.7151 31.548 21.7495C30.8079 21.7642 30.0622 21.8275 29.4394 22.3283C29.1897 22.5292 28.884 22.6555 28.592 22.6555" stroke="black" stroke-width="3" stroke-linecap="round"/>
<path d="M21.0164 19.88C20.6031 19.836 19.8501 19.4498 19.6911 20.1881C19.5876 20.669 19.545 21.5444 19.8321 21.9393C20.2009 22.4465 20.8997 22.3411 21.2917 21.9523C22.2263 21.0254 23.0494 18.4718 21.5992 17.6666C21.3125 17.5074 20.6937 17.2777 20.4489 17.6493C20.2669 17.9257 20.2547 18.3666 20.262 18.706C20.2771 19.4027 20.4766 20.0067 20.8499 20.518C21.3608 21.2179 22.3039 21.9793 23.1013 21.7397C23.6171 21.5847 23.7408 20.624 23.5617 20.084C23.2495 19.1421 22.2035 18.8682 21.499 18.8145C20.7429 18.757 20.1279 19.0045 19.8763 19.9842C19.7821 20.3508 19.7446 20.7239 19.7353 21.1082C19.7274 21.4319 19.6803 21.9176 19.8882 22.1672C20.2492 22.6006 20.8916 22.3777 21.2509 22.0717C21.5982 21.776 21.4138 21.4463 21.1456 21.1343C20.4819 20.3619 19.5533 19.6887 18.658 19.4981C18.3609 19.4348 18.1378 19.4075 18.0701 19.8475C18.0348 20.0774 17.9768 20.6556 18.1687 20.8088C18.4199 21.0093 18.7758 20.8298 18.9605 20.5809C19.3343 20.0769 18.9298 19.3857 18.6495 18.999C18.2476 18.4445 17.7644 17.9375 17.207 17.6623C17.0817 17.6004 16.9543 17.6183 16.823 17.595C16.5954 17.5546 16.2728 17.515 16.0617 17.6536C15.8849 17.7698 15.8501 18.1316 15.8476 18.3567C15.8422 18.8546 15.8029 19.4089 15.8952 19.8974C15.9454 20.1628 16.1057 20.3746 16.2588 20.5527C16.4945 20.8267 16.806 21.2295 17.139 21.2862C18.1021 21.4502 19.0954 21.5986 20.0683 21.5986" stroke="#FFB327" stroke-width="3" stroke-linecap="round"/>
<path d="M25.2983 20.4268C24.9002 20.4268 24.5083 20.3538 24.1123 20.3487C23.8997 20.346 23.7668 20.3601 23.6484 20.6135C23.4545 21.0287 23.383 21.5474 23.3732 22.0239C23.3677 22.2901 23.3308 22.6816 23.5074 22.8789C23.698 23.0919 24.0193 23.062 24.2431 22.9766C25.0043 22.6862 25.3073 21.5632 24.5813 20.9433C24.173 20.5947 23.1838 20.0761 22.8345 20.7957C22.6228 21.2321 22.5826 21.9111 22.6188 22.4102C22.6727 23.154 23.2404 23.3938 23.747 23.4453C24.0784 23.479 24.4505 23.4336 24.6051 22.9961C24.7918 22.4675 24.3642 21.8977 24.1038 21.5574C23.6457 20.9585 23.0532 20.4243 22.42 20.1795C22.1994 20.0942 21.7274 19.9366 21.5432 20.2098C21.3679 20.4699 21.3798 20.9879 21.3903 21.3057C21.4092 21.8805 21.6749 22.2565 22.1141 22.3842C22.4599 22.4847 23.028 22.5645 23.3613 22.3516C23.7195 22.1228 23.6041 21.3672 23.4751 21.0084C23.1696 20.1585 22.3339 19.4293 21.6418 19.1943C21.2921 19.0755 20.897 19.0442 20.5356 19.0619C20.4768 19.0648 20.4122 19.0674 20.3572 19.0988C20.3472 19.1045 20.3132 19.1477 20.313 19.1422C20.3015 18.8319 20.3273 18.5192 20.3062 18.2091C20.2597 17.5237 19.716 17.2984 19.2664 17.1458C18.89 17.0182 18.6241 17.3154 18.5561 17.7968C18.4808 18.3303 18.5165 19.1033 19.0591 19.1726C19.5122 19.2305 19.5966 18.7335 19.4431 18.2785C19.2346 17.6607 18.7132 17.3477 18.2095 17.3411C17.961 17.3379 17.622 17.2573 17.7065 17.7187C17.7691 18.0602 18.0215 18.2686 18.2503 18.4174C18.33 18.4693 18.4906 18.5952 18.585 18.5303C18.9461 18.2819 18.6022 17.5398 18.3862 17.3498C18.1074 17.1045 17.7595 17.1458 17.4381 17.1458C17.2183 17.1458 16.9445 17.0902 16.7363 17.2066C16.579 17.2945 16.5948 17.6977 16.5817 17.8684C16.5476 18.3153 16.5511 18.7582 16.5511 19.2073C16.5511 19.6594 16.5511 20.1115 16.5511 20.5635C16.5511 20.6717 16.6429 20.6341 16.6429 20.7437C16.6429 21.0066 16.7393 21.2667 16.789 21.5205C16.8651 21.909 17.0061 22.1796 17.2257 22.4601C17.3297 22.5929 17.4756 22.7067 17.5604 22.8572C17.6836 23.0757 17.8104 23.2656 17.9903 23.4149C18.1968 23.5863 18.4277 23.6437 18.6003 23.8641C18.7278 24.027 18.9271 24.1138 19.0964 24.1766C19.2783 24.244 19.4836 24.3822 19.6708 24.4088C20.1173 24.4721 20.5584 24.6214 20.9927 24.7798C21.1353 24.8319 21.2532 24.9231 21.3818 25.012C21.5855 25.1529 21.9062 25.141 22.1277 25.2095C22.6671 25.3762 23.2055 25.5455 23.7538 25.6587C24.0251 25.7147 24.4465 25.8713 24.7155 25.7281C24.9983 25.5776 25.0796 25.0607 25.0366 24.7147C24.9647 24.136 24.3475 23.7517 23.9832 23.5191C23.6352 23.2969 23.2501 23.0933 22.8583 23.0525C22.6396 23.0298 22.3906 23.006 22.2772 23.2956C22.0119 23.9732 22.2381 24.9637 22.8379 25.1661C22.9602 25.2073 23.1453 25.2326 23.2152 25.0641C23.3837 24.6575 23.0783 24.2058 22.8702 23.94C22.2924 23.2021 21.5068 22.7928 20.6902 22.8507C20.6538 22.8533 20.5612 22.8593 20.5577 22.9267C20.5469 23.1339 20.4213 22.5494 20.3504 22.3625C20.1973 21.9588 19.9332 21.5928 19.5484 21.7332C19.3751 21.7964 19.2645 22.0625 19.2171 22.267C19.1653 22.4902 19.1168 22.9933 19.2681 23.174C19.4243 23.3607 19.7475 23.3739 19.9358 23.2782C20.1068 23.1913 20.0982 22.8472 20.0734 22.6598C19.9373 21.6298 19.0148 20.6774 18.2707 20.3661C18.2424 20.3542 17.9078 20.2425 17.975 20.3205C18.2103 20.5937 18.576 20.702 18.879 20.7697C18.9242 20.7798 19.304 20.886 19.3309 20.7914C19.4098 20.5142 19.1499 20.1289 19.0217 19.9603C18.7636 19.621 18.4432 19.3361 18.1007 19.1552C18.0054 19.1049 17.8147 18.9821 17.7031 19.0229C17.6754 19.033 17.748 19.0711 17.7745 19.0858C18.0731 19.2517 18.3901 19.3742 18.7022 19.4894C19.6156 19.8266 20.5988 20.145 21.5568 20.1361C22.2873 20.1292 22.8694 19.3689 23.2729 18.6561C23.3654 18.4927 23.4291 18.3744 23.2644 18.2612C23.0639 18.1233 23.023 18.2766 23.2186 18.4326C23.3791 18.5608 23.5818 18.7061 23.5108 18.348C23.4081 17.83 22.9704 17.4027 22.5763 17.3021C22.2873 17.2283 21.8905 17.1953 21.6163 17.3628C21.467 17.454 21.5176 17.5993 21.3444 17.5538C21.189 17.5129 21.0233 17.4545 20.8635 17.4583C20.6612 17.4631 20.7405 17.9116 20.7616 18.0659C20.8755 18.8981 21.3731 19.5786 21.9408 19.9711C22.3036 20.2219 22.8838 20.4207 23.2916 20.238C23.7561 20.03 24.5073 18.7686 24.007 18.1787C23.8972 18.0494 23.3904 17.8327 23.3409 18.1266C23.2864 18.45 23.1567 19.5434 23.5907 19.4851C24.0752 19.4199 24.5262 18.4162 24.3876 17.838C24.3525 17.6917 23.8418 17.129 23.8065 17.4843C23.7436 18.1162 24.2148 18.5829 24.6798 18.5737C25.0538 18.5662 25.1054 17.7292 25.0672 17.4019C25.0443 17.2051 24.9891 16.8724 24.7937 16.8724C24.6243 16.8724 24.6916 17.4278 24.724 17.5364C24.7553 17.6415 25.0224 18.0461 25.1454 17.8706C25.2079 17.7814 25.176 17.5657 25.176 17.4583C25.176 17.1819 25.0728 16.9957 24.8769 16.8637C24.8625 16.854 24.7101 16.745 24.6934 16.7639C24.6443 16.8197 24.687 17.1887 24.6883 17.2521C24.6984 17.7462 24.8228 18.1017 25.0842 18.4652C25.2569 18.7053 25.5121 19.0911 25.7877 19.1292C26.0515 19.1656 26.0879 18.8333 26.1088 18.578C26.1464 18.1191 26.1894 17.629 26.1173 17.1719C26.0826 16.9522 25.9978 16.7596 25.8046 16.7596C25.5561 16.7596 25.5518 17.3688 25.5481 17.5776C25.5383 18.1286 25.6738 18.5477 26.0153 18.8948C26.3304 19.2151 26.7208 19.5142 27.0994 19.6956C27.1813 19.7348 27.4897 19.9052 27.531 19.7194C27.6321 19.2638 27.5943 18.694 27.463 18.2568C27.403 18.0572 27.264 17.7255 27.0569 17.7426C26.7316 17.7694 26.6304 18.6877 26.5964 18.9599C26.5101 19.6527 26.4594 20.5521 26.7426 21.1885C26.8838 21.5058 27.2929 21.9184 27.6023 21.8069C27.8524 21.7169 27.8242 21.057 27.8368 20.8131C27.8679 20.2135 27.892 19.544 27.7587 18.9599C27.7229 18.8033 27.663 18.5578 27.5004 18.5693C27.2231 18.589 27.1483 19.2762 27.1232 19.5198C27.0748 19.9892 27.0519 20.6424 27.2931 21.0366C27.4566 21.3039 27.7283 21.4559 27.9761 21.5509C28.4012 21.7137 28.41 21.1006 28.2735 20.7198C28.1752 20.4455 27.9876 20.1838 27.7451 20.1317C27.4177 20.0614 27.2452 20.3731 27.1521 20.7328C26.9586 21.4799 26.9402 22.3236 26.9499 23.1046C26.9574 23.7139 27.1132 24.1406 27.6057 24.2764C27.9514 24.3717 28.8756 24.5895 28.9854 23.9249C29.088 23.3046 28.8297 22.7967 28.4315 22.4775C28.3115 22.3813 28.1891 22.2626 28.0509 22.2149C27.8919 22.16 27.8606 22.3547 27.8249 22.5296C27.7413 22.9397 27.7246 23.5253 27.8878 23.9075C28.0013 24.1732 28.2895 24.3972 28.5335 24.3155C28.7529 24.2419 28.8264 23.8056 28.858 23.5668C28.9169 23.1209 28.9302 22.6385 28.8631 22.1932C28.7591 21.5032 28.3903 20.9144 27.8725 20.6829C27.7667 20.6356 27.7582 20.7296 27.7451 20.8608C27.691 21.4005 27.6983 22.0461 27.9693 22.4927C28.1772 22.8352 28.3167 22.4724 28.4774 22.2843C28.5399 22.2111 28.6023 22.1603 28.6762 22.1064C28.8254 21.9975 28.7543 21.516 28.7543 21.3556C28.7543 20.8412 28.7961 20.2873 28.7068 19.7823C28.5432 18.8573 28.1908 17.1952 27.2489 17.1849C26.9358 17.1815 26.6225 17.1849 26.3093 17.1849C26.0624 17.1849 25.7925 17.1421 25.56 17.2717C24.9063 17.636 24.582 18.7434 24.3077 19.522C24.2191 19.7735 24.1891 20.0942 24.1531 20.3639C24.0777 20.9279 24.0791 21.7134 24.34 22.1845C24.6189 22.6882 25.0188 23.0949 25.4121 23.4431C25.5924 23.6027 25.7733 23.7496 25.9882 23.8164C26.2795 23.9069 26.3367 22.4734 26.3484 22.3017C26.3866 21.7367 26.1438 21.3636 25.8046 21.0518C25.6681 20.9262 25.4787 20.6006 25.4138 20.9563C25.2944 21.6115 25.2753 22.2826 25.2694 22.9527C25.2651 23.4462 25.1826 24.1382 25.4189 24.5759C25.7296 25.1511 26.732 22.6911 26.8071 22.3972C26.9473 21.8491 26.8999 21.5506 26.5336 21.2124C26.2891 20.9866 26.0124 20.7875 25.7265 20.6612C25.5004 20.5613 24.8851 20.3179 24.6883 20.6069C24.251 21.2493 24.2907 22.3674 24.3417 23.1437C24.3979 23.999 24.6496 24.7598 25.0366 25.4569C25.3311 25.9873 25.7165 26.5421 26.2226 26.7372C26.4731 26.8337 26.529 26.6452 26.5981 26.3726C26.6947 25.9918 26.7728 25.5713 26.7901 25.1704C26.8224 24.4236 25.9697 24.3719 25.5498 24.3719C25.4259 24.3719 25.4368 24.4979 25.4223 24.6366C25.373 25.1094 25.4067 25.6357 25.5056 26.0905C25.561 26.3452 25.6892 26.3592 25.8726 26.4507C26.2001 26.6141 26.6199 26.5879 26.9635 26.5375C27.3727 26.4775 27.6603 26.4331 27.9524 26.0601C28.1819 25.7669 28.4233 25.4144 28.4468 24.9795C28.4685 24.5775 28.3877 24.3649 28.0509 24.2721C27.9201 24.236 27.7569 24.1985 27.6227 24.22C27.4349 24.25 27.298 24.5241 27.1979 24.7039C27.1122 24.8578 26.889 25.4382 26.9991 25.6413C27.143 25.9066 27.6381 25.8952 27.8606 25.8952C28.1321 25.8952 28.3687 25.9188 28.6167 25.778C28.6903 25.7363 28.7741 25.6747 28.8308 25.6023C28.8726 25.5489 28.8965 25.4794 28.9379 25.4265C28.9862 25.3647 29.0641 25.346 29.1214 25.2616C29.2592 25.0584 29.4578 24.7175 29.4578 24.4305C29.4578 24.1115 29.4578 23.7925 29.4578 23.4735C29.4578 23.0814 29.5123 22.5843 29.4408 22.2062C29.3653 21.8065 29.045 21.4485 28.8444 21.1451C28.3972 20.4688 27.9714 19.8019 27.2931 19.4981C27.1027 19.4128 26.9134 19.3191 26.7222 19.2377C26.1501 18.9941 25.6458 18.6192 25.142 18.1917C24.4934 17.6416 23.9014 16.9056 23.1455 16.5838C23.0691 16.5513 23.0438 16.5589 22.9977 16.4818C22.9377 16.3817 22.6612 16.4427 22.578 16.4427C22.0935 16.4427 21.6188 16.4138 21.1388 16.3256C20.6989 16.2447 20.2653 16.1896 19.8237 16.1389C19.6879 16.1234 19.5504 16.1303 19.4142 16.1303C19.358 16.1303 19.322 16.0807 19.2698 16.0955C19.1129 16.14 18.9517 16.3027 18.8144 16.4037C18.6242 16.5436 18.4118 16.6592 18.2044 16.7509C17.9552 16.8611 17.6981 16.9666 17.4449 17.059C17.1789 17.1561 17.112 17.1412 17.0541 17.5429C16.9755 18.0878 16.9447 18.7635 17.1475 19.2702C17.2918 19.6307 17.3788 20.0856 17.4313 20.4876C17.5561 21.4438 17.9589 22.515 18.6513 23.0178C18.7823 23.1129 19.061 23.1209 19.0964 23.3433C19.1115 23.4376 19.1101 23.5389 19.1355 23.6297C19.1693 23.7503 19.1679 23.8469 19.2426 23.9422C19.5065 24.2793 19.7001 24.7591 19.9834 25.0749C20.2174 25.3359 20.4491 25.4808 20.7412 25.574C21.0015 25.6571 21.2826 25.6768 21.5347 25.7976C21.7224 25.8875 21.87 25.8952 22.0699 25.8952C22.3366 25.8952 22.5012 26.1084 22.7224 26.2684C22.9338 26.4214 23.2821 26.4254 23.5176 26.4724C23.6854 26.5059 23.8469 26.5789 24.0154 26.6004C24.2808 26.6343 24.5126 26.7456 24.7631 26.8522C25.038 26.9692 25.2826 26.9889 25.5736 26.9889C25.7146 26.9889 25.8556 26.9889 25.9966 26.9889C26.1159 26.9889 26.0477 26.9509 25.9678 26.876C25.565 26.4992 25.1435 26.1568 24.741 25.7802C24.3681 25.4313 24.0417 24.9995 23.628 24.7256C23.1185 24.3881 22.5626 24.1498 22.0733 23.7643C21.9448 23.663 21.7988 23.5351 21.7199 23.365C21.6863 23.2926 22.4379 23.4003 22.5015 23.4214C22.8708 23.5442 23.1152 23.8345 23.4241 24.0898C23.5415 24.1867 23.5039 24.2336 23.3919 24.1332C22.9071 23.6985 22.466 23.1685 22.0156 22.6793C21.5598 22.1844 21.1284 21.6303 20.6563 21.1625C20.6297 21.1362 20.3238 20.9373 20.3266 20.8869C20.3282 20.8593 20.3881 20.7742 20.3946 20.761C20.4889 20.5682 20.5553 20.3531 20.6206 20.1426C20.8855 19.2878 21.5091 17.2569 20.4795 16.8507C20.2415 16.7568 20.0906 16.808 20.0446 17.148C19.9127 18.122 20.5125 19.019 21.0301 19.6239C21.519 20.1954 22.14 20.7563 22.8091 20.9064C23.1658 20.9864 23.1741 20.7228 23.2016 20.327C23.2248 19.9927 23.2568 19.5512 23.052 19.2898C22.8733 19.0615 22.5096 19.0154 22.2755 19.0901C21.9753 19.186 21.7999 19.6862 21.7403 20.0362C21.5761 21.0009 22.3884 21.7362 22.9535 22.1324C23.2078 22.3107 23.4785 22.4532 23.7555 22.5621C23.9359 22.633 24.1871 22.75 24.3808 22.6966C24.6645 22.6185 24.5641 21.614 24.5575 21.3773C24.5368 20.634 24.4474 19.8634 24.1191 19.2312C23.9719 18.9477 23.6129 18.4243 23.3137 18.7299C23.0108 19.0394 22.9953 19.879 23.1132 20.301C23.31 21.0052 23.9962 21.3658 24.5201 21.5248C24.7099 21.5825 25.1658 21.715 25.3459 21.5335C25.5454 21.3323 25.4865 20.811 25.4308 20.5527C25.335 20.1082 25.0767 19.7527 24.7359 19.6001C24.5398 19.5123 24.1865 19.4459 24.0273 19.6717C23.8676 19.8983 23.848 20.3793 23.9662 20.6352C24.133 20.9961 24.562 21.0971 24.8633 21.1256C25.5285 21.1885 25.1273 19.9869 24.9381 19.6131C24.7238 19.1897 24.4113 18.7405 24.0138 18.6084C23.4386 18.4172 23.0967 18.7881 22.8413 19.433C22.4888 20.3232 22.0967 21.6489 22.5253 22.612C22.7848 23.1951 23.3629 23.5684 23.871 23.6514C24.1354 23.6946 24.3444 23.7137 24.4097 23.339C24.6 22.245 24.174 20.9295 23.798 19.9798C23.3795 18.9229 22.801 17.7487 22.0156 17.072C21.7793 16.8685 21.2996 16.5774 21.0233 16.829C20.7038 17.1198 20.5575 17.7488 20.488 18.2091C20.3131 19.3673 20.6131 20.2581 21.2476 21.0995C21.7916 21.8211 22.4821 22.4197 23.2152 22.7834C23.4412 22.8956 23.5763 22.9942 23.5839 22.6272C23.6141 21.1621 23.0529 19.6848 21.934 19.1552C21.7565 19.0712 21.5202 19.0051 21.3376 19.1075C21.0538 19.2666 20.9222 19.7882 20.8466 20.1317C20.6409 21.0661 20.5262 22.8129 21.4379 23.2131C21.5423 23.259 21.5856 23.2331 21.5092 23.0959C21.2678 22.6622 20.8829 22.3118 20.5322 22.037C20.3822 21.9194 20.0867 21.6486 19.8916 21.7809C19.7667 21.8656 19.7141 22.1285 19.6708 22.28C19.5932 22.5514 19.5331 22.8305 19.4872 23.1133C19.43 23.4666 19.3394 24.0275 19.5773 24.3089C19.7486 24.5116 20.0056 24.5974 20.2247 24.667C20.6318 24.7963 21.0533 24.8521 21.4718 24.871C21.644 24.8787 22.2326 24.9848 22.3554 24.7321C22.5296 24.3737 22.1773 23.8732 21.9884 23.6731C21.7061 23.3742 21.3529 23.1156 20.9995 22.9831C20.8916 22.9426 20.6444 22.8517 20.5594 22.9983C20.4171 23.2437 20.4251 23.6836 20.4116 23.9726C20.4027 24.1631 20.3391 24.615 20.4422 24.7842C20.5268 24.9231 20.7878 24.8218 20.8771 24.7538C21.0632 24.6122 21.201 24.3777 21.1796 24.0898C21.152 23.7186 20.8988 23.4434 20.6851 23.2283C20.669 23.212 20.3874 22.9386 20.3759 23.0786C20.3357 23.5665 20.5622 24.0957 20.7718 24.476C20.9528 24.8045 21.2556 25.2534 21.5738 25.3766C21.8174 25.4708 21.5988 24.6454 21.5806 24.5759C21.2651 23.3749 20.6856 22.1436 19.9664 21.2688C19.6576 20.8932 19.3095 20.5838 18.884 20.4898C18.8419 20.4804 18.6658 20.4201 18.6309 20.4919C18.5427 20.6734 18.5616 20.9916 18.5748 21.1907C18.6155 21.8061 19.1928 22.006 19.5841 22.1585C19.6141 22.1702 20.1078 22.3948 20.0785 22.2279C20.0074 21.8225 19.6002 21.3596 19.3666 21.1039C19.1782 20.8976 18.9519 20.7027 18.7056 20.6308C18.664 20.6187 18.7736 20.7012 18.8144 20.7176C19.3457 20.9317 19.952 20.969 20.5033 20.9824C21.337 21.0025 22.3153 20.8844 23.0045 20.2163C23.1547 20.0707 23.3993 19.8119 23.4496 19.5588C23.5672 18.9676 22.2898 18.9816 22.0495 18.9816C21.9289 18.9816 21.8292 18.9918 21.7199 19.0597C21.6976 19.0736 21.5766 19.1757 21.5687 19.1097C21.5282 18.7733 21.7123 18.3895 21.4514 18.1397C21.4268 18.1161 21.7944 18.1408 21.8321 18.144C22.5456 18.2053 23.2619 18.299 23.9662 18.4608C24.9695 18.6913 25.9425 19.1208 26.8683 19.6608C27.2096 19.8599 27.5425 20.079 27.8606 20.3335C27.9418 20.3985 28.0649 20.4743 28.1223 20.5809C28.1866 20.7005 27.9563 20.7303 27.9082 20.748C27.6729 20.8347 27.4472 20.9708 27.2285 21.1104C27.0228 21.2417 26.8731 21.4233 26.712 21.629C26.633 21.7298 26.466 22.034 26.345 21.8373C26.1867 21.5801 26.1927 21.1068 26.1869 20.8001C26.1804 20.4545 26.1533 20.072 26.2464 19.7411C26.2605 19.691 26.3513 19.4049 26.3161 19.6348C26.1948 20.4266 26.0025 21.2056 25.8522 21.9892C25.7814 22.3585 25.736 22.7975 25.6041 23.1437C25.5679 23.2387 25.5736 23.0512 25.5736 23.0243C25.5736 22.8342 25.5188 23.1726 25.5124 23.2044C25.3726 23.9034 25.2853 24.6346 25.2371 25.3527C25.2224 25.573 25.2121 25.7935 25.2082 26.0146C25.207 26.0854 25.1797 26.3071 25.2235 26.3791C25.2859 26.4814 25.4408 26.3926 25.5056 26.3574C26.0392 26.0674 26.4967 25.6423 26.9737 25.2312C27.4184 24.8478 27.7254 24.3023 28.1885 23.9422C28.5485 23.6624 28.5708 23.356 28.5708 22.8485C28.5708 22.7199 28.5792 22.627 28.4587 22.6164C28.2817 22.6008 28.0946 22.6101 27.9218 22.6619C27.3855 22.8227 27.1173 23.3966 26.7833 23.8966C26.4334 24.4206 25.7483 24.2029 25.5498 24.9274C25.4669 25.2299 25.3096 25.9027 25.6789 25.995C26.0217 26.0807 26.3861 25.9212 26.7035 25.7759C27.0654 25.6102 27.4248 25.4162 27.7688 25.1965C27.8968 25.1148 27.998 24.9622 28.1274 24.9013C28.23 24.8531 28.3258 24.7588 28.3873 24.6366C28.535 24.3432 28.6846 23.9729 28.7696 23.6471C28.8148 23.4741 28.7737 23.461 28.7917 23.378C28.8685 23.025 29.1075 22.6804 29.2862 22.4015C29.405 22.216 29.3784 21.8582 29.3049 21.6594C29.2146 21.4153 29.1487 21.198 29.1282 20.9259C29.1036 20.6006 29.1056 20.2675 29.0908 19.9408C29.0864 19.8449 29.11 19.1726 29.0466 19.127C28.9867 19.084 28.8183 19.1434 28.7679 19.1552C28.3546 19.2522 28.057 19.458 27.7179 19.7889C27.2685 20.2274 26.7894 20.7133 26.4401 21.2883C26.2939 21.5291 26.2844 21.8017 26.2464 22.089C26.1494 22.8234 26.0441 23.5685 25.91 24.2938C25.8375 24.686 25.8119 25.113 25.7282 25.4872C25.7005 25.6112 25.434 25.6064 25.3459 25.6413C25.1849 25.7051 25.0239 25.7599 24.8633 25.8258C24.5033 25.9736 24.054 25.9733 23.6807 25.9733C23.6132 25.9733 23.6218 25.9978 23.5788 26.0428C23.533 26.0906 23.3642 26.0514 23.3103 26.0514C22.9146 26.0514 22.6009 25.9826 22.2466 25.739C21.758 25.4029 21.1348 25.4117 20.68 24.9968" stroke="#FFB327" stroke-width="8" stroke-linecap="round"/>
</svg>
