<svg width="44" height="50" viewBox="0 0 44 50" fill="none" xmlns="http://www.w3.org/2000/svg">
<path d="M18.724 23.0142C16.0445 23.2993 12.8303 24.7446 10.5851 26.5879C7.7565 28.9103 7.39531 32.5721 7.72768 36.6046C7.98378 39.7118 9.44927 42.8516 11.3537 44.8092C12.8674 46.3652 15.1744 45.9709 16.9504 45.6649C18.5982 45.381 19.9149 45.1606 20.7537 43.1607C21.643 41.0409 22.0038 38.6068 22.2712 36.2523C22.5455 33.8363 22.7224 31.3492 22.616 28.9034C22.5672 27.782 22.0806 27.0073 21.9164 25.9588" stroke="black" stroke-linecap="round"/>
<path d="M22.6265 15.3133C22.2782 14.9179 21.5286 14.8688 21.0894 14.8603C19.6286 14.832 18.1657 14.8603 16.7047 14.8603C15.1395 14.8603 14.2149 16.3039 14.5074 18.3585C15.3818 24.5008 21.6965 27.5813 25.8978 26.8148C28.011 26.4293 29.2031 25.9777 29.3563 23.1404C29.4411 21.5699 29.0204 18.236 28.1247 17.0247C27.255 15.8487 25.8386 14.9534 24.5873 14.6338C23.7964 14.4317 23.1068 13.5012 22.2718 13.5012" stroke="black" stroke-width="3" stroke-linecap="round"/>
<path d="M28.124 15.0867C29.4156 14.7061 30.6621 13.2907 31.888 12.6455C33.3652 11.8679 35.5151 10.7874 37.1694 11.0222C38.221 11.1714 39.197 13.0424 39.7115 14.0423C40.3459 15.2751 40.9124 16.3194 40.6771 17.8552C40.3256 20.1498 39.2988 20.5229 37.6325 20.5229C36.6946 20.5229 35.5083 19.5451 34.6765 19.038C33.4162 18.2698 32.3279 18.0541 30.9618 17.8048" stroke="black" stroke-linecap="round"/>
<path d="M27.7695 14.86C28.9566 13.6938 30.1089 13.2109 30.8832 11.4875C31.5913 9.91129 31.7723 7.85225 31.8389 6.06395C31.8868 4.78056 31.7943 4.04822 31.3167 2.98093C31.0097 2.29487 28.4807 2.58872 27.9863 2.67892C25.6518 3.10483 24.5281 6.46585 24.1534 9.07146C23.8129 11.4387 24.2223 13.4223 24.2223 15.766" stroke="black" stroke-linecap="round"/>
<path d="M20.4978 13.7273C21.9342 11.8929 23.0847 10.1866 24.183 7.98911C24.7734 6.80786 25.6413 5.43518 25.6413 3.93714C25.6413 -0.234097 21.9422 0.96951 19.9264 1.94891C16.9504 3.39479 15.8834 6.84356 16.7733 10.6317C16.9954 11.5771 18.8569 15.0489 19.611 14.4068" stroke="black" stroke-linecap="round"/>
<path d="M15.355 14.6337C16.4187 12.4761 17.9561 7.43551 16.2418 5.24623C14.0528 2.45056 9.26654 5.61533 7.49208 7.72522C6.40824 9.01395 6.13232 10.4457 6.13232 12.2302C6.13232 13.8121 7.97822 14.5254 8.97008 14.9609C10.5071 15.6356 13.0844 15.5854 14.4682 14.4072" stroke="black" stroke-linecap="round"/>
<path d="M14.1969 20.8795C14.1969 17.9365 10.2587 14.6898 8.17648 14.5498C5.17978 14.3484 0.308579 15.2092 1.0821 20.3132C1.9727 26.1897 8.24246 26.5563 11.6744 24.7301C12.5959 24.2397 13.1102 22.8496 13.5268 21.7855C13.809 21.0649 14.3742 20.3686 14.3742 19.5204" stroke="black" stroke-linecap="round"/>
<path d="M26.8836 26.412C24.8888 27.0296 23.3716 29.3717 22.2722 31.4958C20.8036 34.3334 18.8731 37.2875 19.3655 40.9211C19.6438 42.9744 20.5757 44.9736 21.3854 46.7599C21.7238 47.5064 22.2115 48.5283 22.9127 48.723C24.2276 49.088 25.7431 48.7809 27.0215 48.3455C28.2894 47.9137 30.5765 47.212 30.9629 45.2876C31.2909 43.6536 31.2677 41.98 31.4949 40.3296C31.6476 39.2209 31.8999 37.9606 31.8102 36.8313C31.645 34.7506 31.0228 32.7215 30.5293 30.7408C29.9111 28.2594 28.7075 25.959 26.5289 25.959" stroke="black" stroke-linecap="round"/>
<path d="M29.7201 23.2411C28.9493 23.3641 30.7374 28.2784 31.001 28.8282C32.4297 31.8084 33.7927 34.7665 36.243 36.5547C37.7748 37.6726 40.3387 39.2879 41.9973 37.4104C43.4533 35.7623 43.4248 32.1662 42.8053 30.0363C41.6484 26.0584 38.0797 23.1558 35.1197 21.7058C33.51 20.9173 32.2707 20.7151 30.5478 20.7495C29.8077 20.7642 29.062 20.8275 28.4392 21.3283C28.1894 21.5292 27.8837 21.6555 27.5918 21.6555" stroke="black" stroke-linecap="round"/>
<path d="M20.0162 18.88C19.6029 18.836 18.8498 18.4498 18.6909 19.1881C18.5873 19.669 18.5448 20.5444 18.8319 20.9393C19.2006 21.4465 19.8995 21.3411 20.2914 20.9523C21.2261 20.0254 22.0492 17.4718 20.599 16.6666C20.3122 16.5074 19.6934 16.2777 19.4487 16.6493C19.2666 16.9257 19.2544 17.3666 19.2618 17.706C19.2768 18.4027 19.4764 19.0067 19.8497 19.518C20.3606 20.2179 21.3036 20.9793 22.101 20.7397C22.6169 20.5847 22.7406 19.624 22.5615 19.084C22.2492 18.1421 21.2032 17.8682 20.4987 17.8145C19.7426 17.757 19.1277 18.0045 18.8761 18.9842C18.7819 19.3508 18.7444 19.7239 18.735 20.1082C18.7272 20.4319 18.6801 20.9176 18.888 21.1672C19.2489 21.6006 19.8913 21.3777 20.2507 21.0717C20.5979 20.776 20.4135 20.4463 20.1453 20.1343C19.4816 19.3619 18.5531 18.6887 17.6578 18.4981C17.3607 18.4348 17.1376 18.4075 17.0699 18.8475C17.0345 19.0774 16.9766 19.6556 17.1684 19.8088C17.4196 20.0093 17.7756 19.8298 17.9602 19.5809C18.3341 19.0769 17.9295 18.3857 17.6493 17.999C17.2474 17.4445 16.7641 16.9375 16.2067 16.6623C16.0815 16.6004 15.954 16.6183 15.8227 16.595C15.5952 16.5546 15.2726 16.515 15.0615 16.6536C14.8846 16.7698 14.8499 17.1316 14.8474 17.3567C14.842 17.8546 14.8027 18.4089 14.895 18.8974C14.9451 19.1628 15.1055 19.3746 15.2586 19.5527C15.4942 19.8267 15.8058 20.2295 16.1388 20.2862C17.1019 20.4502 18.0952 20.5986 19.0681 20.5986" stroke="#FFB327" stroke-width="3" stroke-linecap="round"/>
<path d="M24.2985 19.4268C23.9005 19.4268 23.5086 19.3538 23.1125 19.3487C22.9 19.346 22.767 19.3601 22.6487 19.6135C22.4547 20.0287 22.3832 20.5474 22.3734 21.0239C22.3679 21.2901 22.331 21.6816 22.5077 21.8789C22.6982 22.0919 23.0195 22.062 23.2434 21.9766C24.0045 21.6862 24.3076 20.5632 23.5815 19.9433C23.1733 19.5947 22.184 19.0761 21.8348 19.7957C21.6231 20.2321 21.5828 20.9111 21.619 21.4102C21.6729 22.154 22.2406 22.3938 22.7472 22.4453C23.0786 22.479 23.4507 22.4336 23.6053 21.9961C23.792 21.4675 23.3644 20.8977 23.104 20.5574C22.6459 19.9585 22.0535 19.4243 21.4202 19.1795C21.1996 19.0942 20.7277 18.9366 20.5434 19.2098C20.3681 19.4699 20.38 19.9879 20.3905 20.3057C20.4095 20.8805 20.6751 21.2565 21.1144 21.3842C21.4601 21.4847 22.0282 21.5645 22.3615 21.3516C22.7198 21.1228 22.6043 20.3672 22.4754 20.0084C22.1699 19.1585 21.3342 18.4293 20.642 18.1943C20.2923 18.0755 19.8972 18.0442 19.5359 18.0619C19.4771 18.0648 19.4124 18.0674 19.3574 18.0988C19.3475 18.1045 19.3135 18.1477 19.3133 18.1422C19.3017 17.8319 19.3275 17.5192 19.3065 17.2091C19.26 16.5237 18.7163 16.2984 18.2666 16.1458C17.8903 16.0182 17.6243 16.3154 17.5564 16.7968C17.481 17.3303 17.5167 18.1033 18.0593 18.1726C18.5124 18.2305 18.5968 17.7335 18.4433 17.2785C18.2349 16.6607 17.7135 16.3477 17.2097 16.3411C16.9612 16.3379 16.6222 16.2573 16.7068 16.7187C16.7694 17.0602 17.0218 17.2686 17.2505 17.4174C17.3302 17.4693 17.4908 17.5952 17.5852 17.5303C17.9464 17.2819 17.6024 16.5398 17.3864 16.3498C17.1077 16.1045 16.7598 16.1458 16.4383 16.1458C16.2186 16.1458 15.9448 16.0902 15.7366 16.2066C15.5793 16.2945 15.595 16.6977 15.582 16.8684C15.5478 17.3153 15.5514 17.7582 15.5514 18.2073C15.5514 18.6594 15.5514 19.1115 15.5514 19.5635C15.5514 19.6717 15.6431 19.6341 15.6431 19.7437C15.6431 20.0066 15.7396 20.2667 15.7893 20.5205C15.8653 20.909 16.0063 21.1796 16.2259 21.4601C16.3299 21.5929 16.4758 21.7067 16.5607 21.8572C16.6838 22.0757 16.8106 22.2656 16.9905 22.4149C17.197 22.5863 17.428 22.6437 17.6005 22.8641C17.7281 23.027 17.9274 23.1138 18.0967 23.1766C18.2785 23.244 18.4838 23.3822 18.671 23.4088C19.1176 23.4721 19.5587 23.6214 19.9929 23.7798C20.1356 23.8319 20.2535 23.9231 20.382 24.012C20.5857 24.1529 20.9065 24.141 21.128 24.2095C21.6673 24.3762 22.2057 24.5455 22.754 24.6587C23.0254 24.7147 23.4467 24.8713 23.7157 24.7281C23.9985 24.5776 24.0799 24.0607 24.0369 23.7147C23.965 23.136 23.3477 22.7517 22.9834 22.5191C22.6355 22.2969 22.2503 22.0933 21.8586 22.0525C21.6399 22.0298 21.3909 22.006 21.2775 22.2956C21.0122 22.9732 21.2383 23.9637 21.8382 24.1661C21.9604 24.2073 22.1456 24.2326 22.2154 24.0641C22.384 23.6575 22.0785 23.2058 21.8705 22.94C21.2927 22.2021 20.507 21.7928 19.6905 21.8507C19.6541 21.8533 19.5615 21.8593 19.5579 21.9267C19.5471 22.1339 19.4215 21.5494 19.3507 21.3625C19.1976 20.9588 18.9335 20.5928 18.5487 20.7332C18.3753 20.7964 18.2648 21.0625 18.2173 21.267C18.1655 21.4902 18.117 21.9933 18.2683 22.174C18.4246 22.3607 18.7477 22.3739 18.9361 22.2782C19.1071 22.1913 19.0985 21.8472 19.0737 21.6598C18.9375 20.6298 18.0151 19.6774 17.2709 19.3661C17.2426 19.3542 16.908 19.2425 16.9753 19.3205C17.2106 19.5937 17.5762 19.702 17.8792 19.7697C17.9244 19.7798 18.3042 19.886 18.3312 19.7914C18.4101 19.5142 18.1502 19.1289 18.0219 18.9603C17.7639 18.621 17.4435 18.3361 17.101 18.1552C17.0057 18.1049 16.815 17.9821 16.7034 18.0229C16.6756 18.033 16.7482 18.0711 16.7748 18.0858C17.0733 18.2517 17.3904 18.3742 17.7025 18.4894C18.6158 18.8266 19.5991 19.145 20.557 19.1361C21.2875 19.1292 21.8696 18.3689 22.2732 17.6561C22.3657 17.4927 22.4293 17.3744 22.2647 17.2612C22.0641 17.1233 22.0233 17.2766 22.2188 17.4326C22.3794 17.5608 22.582 17.7061 22.511 17.348C22.4084 16.83 21.9706 16.4027 21.5765 16.3021C21.2876 16.2283 20.8907 16.1953 20.6165 16.3628C20.4672 16.454 20.5179 16.5993 20.3446 16.5538C20.1893 16.5129 20.0236 16.4545 19.8638 16.4583C19.6615 16.4631 19.7407 16.9116 19.7618 17.0659C19.8757 17.8981 20.3733 18.5786 20.941 18.9711C21.3038 19.2219 21.884 19.4207 22.2919 19.238C22.7564 19.03 23.5076 17.7686 23.0072 17.1787C22.8975 17.0494 22.3907 16.8327 22.3411 17.1266C22.2867 17.45 22.157 18.5434 22.5909 18.4851C23.0755 18.4199 23.5264 17.4162 23.3878 16.838C23.3527 16.6917 22.842 16.129 22.8067 16.4843C22.7439 17.1162 23.2151 17.5829 23.6801 17.5737C24.0541 17.5662 24.1056 16.7292 24.0675 16.4019C24.0445 16.2051 23.9893 15.8724 23.7939 15.8724C23.6246 15.8724 23.6919 16.4278 23.7242 16.5364C23.7555 16.6415 24.0226 17.0461 24.1456 16.8706C24.2081 16.7814 24.1762 16.5657 24.1762 16.4583C24.1762 16.1819 24.073 15.9957 23.8772 15.8637C23.8627 15.854 23.7103 15.745 23.6937 15.7639C23.6445 15.8197 23.6873 16.1887 23.6886 16.2521C23.6986 16.7462 23.823 17.1017 24.0845 17.4652C24.2572 17.7053 24.5124 18.0911 24.7879 18.1292C25.0517 18.1656 25.0881 17.8333 25.109 17.578C25.1466 17.1191 25.1896 16.629 25.1175 16.1719C25.0829 15.9522 24.998 15.7596 24.8049 15.7596C24.5564 15.7596 24.552 16.3688 24.5483 16.5776C24.5385 17.1286 24.674 17.5477 25.0156 17.8948C25.3307 18.2151 25.7211 18.5142 26.0996 18.6956C26.1815 18.7348 26.4899 18.9052 26.5312 18.7194C26.6324 18.2638 26.5946 17.694 26.4632 17.2568C26.4033 17.0572 26.2642 16.7255 26.0572 16.7426C25.7318 16.7694 25.6306 17.6877 25.5967 17.9599C25.5104 18.6527 25.4597 19.5521 25.7428 20.1885C25.884 20.5058 26.2932 20.9184 26.6026 20.8069C26.8527 20.7169 26.8244 20.057 26.8371 19.8131C26.8681 19.2135 26.8923 18.544 26.7589 17.9599C26.7231 17.8033 26.6633 17.5578 26.5006 17.5693C26.2233 17.589 26.1485 18.2762 26.1234 18.5198C26.075 18.9892 26.0522 19.6424 26.2933 20.0366C26.4569 20.3039 26.7285 20.4559 26.9764 20.5509C27.4014 20.7137 27.4102 20.1006 27.2737 19.7198C27.1754 19.4455 26.9879 19.1838 26.7453 19.1317C26.4179 19.0614 26.2454 19.3731 26.1523 19.7328C25.9589 20.4799 25.9404 21.3236 25.9501 22.1046C25.9577 22.7139 26.1135 23.1406 26.606 23.2764C26.9516 23.3717 27.8758 23.5895 27.9857 22.9249C28.0882 22.3046 27.8299 21.7967 27.4318 21.4775C27.3118 21.3813 27.1893 21.2626 27.0511 21.2149C26.8921 21.16 26.8608 21.3547 26.8252 21.5296C26.7416 21.9397 26.7248 22.5253 26.888 22.9075C27.0015 23.1732 27.2897 23.3972 27.5337 23.3155C27.7531 23.2419 27.8267 22.8056 27.8582 22.5668C27.9172 22.1209 27.9305 21.6385 27.8633 21.1932C27.7593 20.5032 27.3906 19.9144 26.8727 19.6829C26.7669 19.6356 26.7585 19.7296 26.7453 19.8608C26.6912 20.4005 26.6986 21.0461 26.9696 21.4927C27.1774 21.8352 27.317 21.4724 27.4776 21.2843C27.5402 21.2111 27.6025 21.1603 27.6764 21.1064C27.8257 20.9975 27.7546 20.516 27.7546 20.3556C27.7546 19.8412 27.7963 19.2873 27.707 18.7823C27.5435 17.8573 27.1911 16.1952 26.2492 16.1849C25.936 16.1815 25.6227 16.1849 25.3095 16.1849C25.0626 16.1849 24.7928 16.1421 24.5602 16.2717C23.9065 16.636 23.5823 17.7434 23.3079 18.522C23.2193 18.7735 23.1894 19.0942 23.1533 19.3639C23.0779 19.9279 23.0793 20.7134 23.3402 21.1845C23.6192 21.6882 24.019 22.0949 24.4124 22.4431C24.5927 22.6027 24.7735 22.7496 24.9884 22.8164C25.2797 22.9069 25.337 21.4734 25.3486 21.3017C25.3868 20.7367 25.144 20.3636 24.8049 20.0518C24.6683 19.9262 24.4789 19.6006 24.4141 19.9563C24.2947 20.6115 24.2756 21.2826 24.2697 21.9527C24.2653 22.4462 24.1828 23.1382 24.4192 23.5759C24.7298 24.1511 25.7322 21.6911 25.8074 21.3972C25.9475 20.8491 25.9002 20.5506 25.5338 20.2124C25.2893 19.9866 25.0127 19.7875 24.7267 19.6612C24.5006 19.5613 23.8854 19.3179 23.6886 19.6069C23.2512 20.2493 23.291 21.3674 23.3419 22.1437C23.3981 22.999 23.6498 23.7598 24.0369 24.4569C24.3314 24.9873 24.7167 25.5421 25.2229 25.7372C25.4733 25.8337 25.5292 25.6452 25.5984 25.3726C25.695 24.9918 25.7731 24.5713 25.7904 24.1704C25.8226 23.4236 24.9699 23.3719 24.55 23.3719C24.4261 23.3719 24.4371 23.4979 24.4226 23.6366C24.3732 24.1094 24.4069 24.6357 24.5058 25.0905C24.5612 25.3452 24.6894 25.3592 24.8729 25.4507C25.2004 25.6141 25.6202 25.5879 25.9637 25.5375C26.3729 25.4775 26.6605 25.4331 26.9526 25.0601C27.1822 24.7669 27.4236 24.4144 27.447 23.9795C27.4688 23.5775 27.3879 23.3649 27.0511 23.2721C26.9203 23.236 26.7572 23.1985 26.623 23.22C26.4352 23.25 26.2983 23.5241 26.1982 23.7039C26.1125 23.8578 25.8893 24.4382 25.9994 24.6413C26.1432 24.9066 26.6383 24.8952 26.8608 24.8952C27.1324 24.8952 27.3689 24.9188 27.617 24.778C27.6905 24.7363 27.7743 24.6747 27.8311 24.6023C27.8728 24.5489 27.8967 24.4794 27.9381 24.4265C27.9865 24.3647 28.0643 24.346 28.1216 24.2616C28.2595 24.0584 28.458 23.7175 28.458 23.4305C28.458 23.1115 28.458 22.7925 28.458 22.4735C28.458 22.0814 28.5125 21.5843 28.441 21.2062C28.3655 20.8065 28.0452 20.4485 27.8446 20.1451C27.3975 19.4688 26.9717 18.8019 26.2933 18.4981C26.103 18.4128 25.9137 18.3191 25.7224 18.2377C25.1503 17.9941 24.6461 17.6192 24.1422 17.1917C23.4937 16.6416 22.9016 15.9056 22.1457 15.5838C22.0694 15.5513 22.0441 15.5589 21.9979 15.4818C21.938 15.3817 21.6614 15.4427 21.5782 15.4427C21.0938 15.4427 20.6191 15.4138 20.1391 15.3256C19.6992 15.2447 19.2655 15.1896 18.8239 15.1389C18.6881 15.1234 18.5507 15.1303 18.4144 15.1303C18.3583 15.1303 18.3222 15.0807 18.27 15.0955C18.1132 15.14 17.9519 15.3027 17.8146 15.4037C17.6244 15.5436 17.4121 15.6592 17.2046 15.7509C16.9554 15.8611 16.6984 15.9666 16.4451 16.059C16.1791 16.1561 16.1123 16.1412 16.0543 16.5429C15.9757 17.0878 15.945 17.7635 16.1478 18.2702C16.292 18.6307 16.3791 19.0856 16.4315 19.4876C16.5563 20.4438 16.9592 21.515 17.6515 22.0178C17.7825 22.1129 18.0613 22.1209 18.0967 22.3433C18.1117 22.4376 18.1104 22.5389 18.1358 22.6297C18.1695 22.7503 18.1681 22.8469 18.2428 22.9422C18.5068 23.2793 18.7003 23.7591 18.9836 24.0749C19.2177 24.3359 19.4493 24.4808 19.7415 24.574C20.0017 24.6571 20.2828 24.6768 20.535 24.7976C20.7227 24.8875 20.8702 24.8952 21.0702 24.8952C21.3368 24.8952 21.5015 25.1084 21.7226 25.2684C21.9341 25.4214 22.2823 25.4254 22.5178 25.4724C22.6856 25.5059 22.8471 25.5789 23.0157 25.6004C23.281 25.6343 23.5129 25.7456 23.7633 25.8522C24.0382 25.9692 24.2829 25.9889 24.5738 25.9889C24.7148 25.9889 24.8559 25.9889 24.9969 25.9889C25.1162 25.9889 25.048 25.9509 24.968 25.876C24.5653 25.4992 24.1437 25.1568 23.7412 24.7802C23.3683 24.4313 23.0419 23.9995 22.6283 23.7256C22.1187 23.3881 21.5628 23.1498 21.0736 22.7643C20.9451 22.663 20.7991 22.5351 20.7202 22.365C20.6866 22.2926 21.4381 22.4003 21.5018 22.4214C21.871 22.5442 22.1155 22.8345 22.4244 23.0898C22.5417 23.1867 22.5041 23.2336 22.3921 23.1332C21.9074 22.6985 21.4663 22.1685 21.0158 21.6793C20.5601 21.1844 20.1286 20.6303 19.6565 20.1625C19.63 20.1362 19.324 19.9373 19.3269 19.8869C19.3284 19.8593 19.3884 19.7742 19.3948 19.761C19.4892 19.5682 19.5556 19.3531 19.6208 19.1426C19.8857 18.2878 20.5094 16.2569 19.4798 15.8507C19.2418 15.7568 19.0908 15.808 19.0448 16.148C18.913 17.122 19.5128 18.019 20.0303 18.6239C20.5192 19.1954 21.1403 19.7563 21.8093 19.9064C22.1661 19.9864 22.1743 19.7228 22.2018 19.327C22.225 18.9927 22.257 18.5512 22.0523 18.2898C21.8736 18.0615 21.5098 18.0154 21.2758 18.0901C20.9756 18.186 20.8001 18.6862 20.7405 19.0362C20.5763 20.0009 21.3887 20.7362 21.9537 21.1324C22.208 21.3107 22.4787 21.4532 22.7557 21.5621C22.9361 21.633 23.1873 21.75 23.381 21.6966C23.6647 21.6185 23.5643 20.614 23.5577 20.3773C23.5371 19.634 23.4476 18.8634 23.1193 18.2312C22.9722 17.9477 22.6131 17.4243 22.3139 17.7299C22.011 18.0394 21.9955 18.879 22.1135 19.301C22.3102 20.0052 22.9965 20.3658 23.5203 20.5248C23.7102 20.5825 24.1661 20.715 24.3461 20.5335C24.5457 20.3323 24.4868 19.811 24.4311 19.5527C24.3352 19.1082 24.0769 18.7527 23.7361 18.6001C23.54 18.5123 23.1867 18.4459 23.0276 18.6717C22.8679 18.8983 22.8482 19.3793 22.9664 19.6352C23.1332 19.9961 23.5623 20.0971 23.8636 20.1256C24.5287 20.1885 24.1276 18.9869 23.9383 18.6131C23.724 18.1897 23.4115 17.7405 23.014 17.6084C22.4388 17.4172 22.097 17.7881 21.8416 18.433C21.489 19.3232 21.097 20.6489 21.5255 21.612C21.785 22.1951 22.3632 22.5684 22.8713 22.6514C23.1356 22.6946 23.3447 22.7137 23.4099 22.339C23.6002 21.245 23.1742 19.9295 22.7982 18.9798C22.3798 17.9229 21.8013 16.7487 21.0158 16.072C20.7796 15.8685 20.2998 15.5774 20.0235 15.829C19.7041 16.1198 19.5578 16.7488 19.4883 17.2091C19.3134 18.3673 19.6134 19.2581 20.2478 20.0995C20.7918 20.8211 21.4823 21.4197 22.2154 21.7834C22.4414 21.8956 22.5765 21.9942 22.5841 21.6272C22.6143 20.1621 22.0532 18.6848 20.9342 18.1552C20.7567 18.0712 20.5205 18.0051 20.3379 18.1075C20.054 18.2666 19.9224 18.7882 19.8468 19.1317C19.6411 20.0661 19.5264 21.8129 20.4381 22.2131C20.5426 22.259 20.5858 22.2331 20.5095 22.0959C20.268 21.6622 19.8832 21.3118 19.5325 21.037C19.3824 20.9194 19.0869 20.6486 18.8919 20.7809C18.767 20.8656 18.7143 21.1285 18.671 21.28C18.5934 21.5514 18.5333 21.8305 18.4875 22.1133C18.4302 22.4666 18.3397 23.0275 18.5775 23.3089C18.7488 23.5116 19.0059 23.5974 19.2249 23.667C19.6321 23.7963 20.0536 23.8521 20.4721 23.871C20.6442 23.8787 21.2328 23.9848 21.3556 23.7321C21.5298 23.3737 21.1776 22.8732 20.9886 22.6731C20.7064 22.3742 20.3531 22.1156 19.9997 21.9831C19.8919 21.9426 19.6447 21.8517 19.5596 21.9983C19.4173 22.2437 19.4253 22.6836 19.4118 22.9726C19.4029 23.1631 19.3394 23.615 19.4424 23.7842C19.527 23.9231 19.788 23.8218 19.8774 23.7538C20.0634 23.6122 20.2012 23.3777 20.1798 23.0898C20.1523 22.7186 19.899 22.4434 19.6854 22.2283C19.6692 22.212 19.3877 21.9386 19.3761 22.0786C19.3359 22.5665 19.5625 23.0957 19.772 23.476C19.953 23.8045 20.2559 24.2534 20.574 24.3766C20.8176 24.4708 20.5991 23.6454 20.5808 23.5759C20.2653 22.3749 19.6859 21.1436 18.9666 20.2688C18.6579 19.8932 18.3098 19.5838 17.8843 19.4898C17.8421 19.4804 17.6661 19.4201 17.6311 19.4919C17.5429 19.6734 17.5619 19.9916 17.575 20.1907C17.6158 20.8061 18.1931 21.006 18.5843 21.1585C18.6144 21.1702 19.1081 21.3948 19.0788 21.2279C19.0076 20.8225 18.6004 20.3596 18.3668 20.1039C18.1784 19.8976 17.9522 19.7027 17.7059 19.6308C17.6642 19.6187 17.7739 19.7012 17.8146 19.7176C18.346 19.9317 18.9523 19.969 19.5036 19.9824C20.3373 20.0025 21.3156 19.8844 22.0047 19.2163C22.155 19.0707 22.3996 18.8119 22.4499 18.5588C22.5675 17.9676 21.2901 17.9816 21.0498 17.9816C20.9292 17.9816 20.8295 17.9918 20.7202 18.0597C20.6978 18.0736 20.5769 18.1757 20.5689 18.1097C20.5284 17.7733 20.7126 17.3895 20.4517 17.1397C20.4271 17.1161 20.7947 17.1408 20.8323 17.144C21.5459 17.2053 22.2622 17.299 22.9664 17.4608C23.9697 17.6913 24.9427 18.1208 25.8685 18.6608C26.2099 18.8599 26.5428 19.079 26.8608 19.3335C26.942 19.3985 27.0651 19.4743 27.1225 19.5809C27.1869 19.7005 26.9565 19.7303 26.9084 19.748C26.6731 19.8347 26.4474 19.9708 26.2288 20.1104C26.0231 20.2417 25.8733 20.4233 25.7122 20.629C25.6333 20.7298 25.4662 21.034 25.3452 20.8373C25.1869 20.5801 25.193 20.1068 25.1872 19.8001C25.1807 19.4545 25.1535 19.072 25.2467 18.7411C25.2608 18.691 25.3516 18.4049 25.3163 18.6348C25.195 19.4266 25.0027 20.2056 24.8525 20.9892C24.7817 21.3585 24.7363 21.7975 24.6044 22.1437C24.5682 22.2387 24.5738 22.0512 24.5738 22.0243C24.5738 21.8342 24.519 22.1726 24.5126 22.2044C24.3728 22.9034 24.2855 23.6346 24.2374 24.3527C24.2226 24.573 24.2124 24.7935 24.2085 25.0146C24.2072 25.0854 24.1799 25.3071 24.2238 25.3791C24.2861 25.4814 24.441 25.3926 24.5058 25.3574C25.0395 25.0674 25.4969 24.6423 25.9739 24.2312C26.4187 23.8478 26.7256 23.3023 27.1888 22.9422C27.5488 22.6624 27.5711 22.356 27.5711 21.8485C27.5711 21.7199 27.5794 21.627 27.4589 21.6164C27.2819 21.6008 27.0948 21.6101 26.922 21.6619C26.3857 21.8227 26.1176 22.3966 25.7836 22.8966C25.4337 23.4206 24.7486 23.2029 24.55 23.9274C24.4671 24.2299 24.3098 24.9027 24.6792 24.995C25.022 25.0807 25.3863 24.9212 25.7037 24.7759C26.0657 24.6102 26.4251 24.4162 26.7691 24.1965C26.8971 24.1148 26.9983 23.9622 27.1276 23.9013C27.2302 23.8531 27.3261 23.7588 27.3876 23.6366C27.5353 23.3432 27.6849 22.9729 27.7699 22.6471C27.815 22.4741 27.7739 22.461 27.792 22.378C27.8688 22.025 28.1078 21.6804 28.2864 21.4015C28.4053 21.216 28.3786 20.8582 28.3051 20.6594C28.2149 20.4153 28.1489 20.198 28.1284 19.9259C28.1038 19.6006 28.1059 19.2675 28.091 18.9408C28.0867 18.8449 28.1102 18.1726 28.0468 18.127C27.9869 18.084 27.8185 18.1434 27.7682 18.1552C27.3548 18.2522 27.0572 18.458 26.7181 18.7889C26.2688 19.2274 25.7896 19.7133 25.4404 20.2883C25.2941 20.5291 25.2846 20.8017 25.2467 21.089C25.1497 21.8234 25.0443 22.5685 24.9102 23.2938C24.8377 23.686 24.8121 24.113 24.7284 24.4872C24.7007 24.6112 24.4342 24.6064 24.3461 24.6413C24.1851 24.7051 24.0241 24.7599 23.8636 24.8258C23.5035 24.9736 23.0543 24.9733 22.681 24.9733C22.6134 24.9733 22.622 24.9978 22.579 25.0428C22.5332 25.0906 22.3644 25.0514 22.3106 25.0514C21.9149 25.0514 21.6012 24.9826 21.2469 24.739C20.7582 24.4029 20.1351 24.4117 19.6803 23.9968" stroke="#FFB327" stroke-width="8" stroke-linecap="round"/>
<path d="M29.0787 34.4968C28.1468 34.9354 26.9601 35.1005 26.6606 36.2651C26.5594 36.6588 26.6304 37.1491 26.6304 37.5573C26.6304 38.2857 27.237 38.0333 27.8621 38.0333C28.5401 38.0333 28.8727 38.205 28.5346 37.4892C28.302 36.9967 27.939 36.5248 27.7488 36.0233C27.6643 35.8006 27.7042 35.608 27.4465 35.4792C26.5208 35.0163 25.7465 36.9811 25.6858 37.5573C25.6111 38.2666 26.2204 38.5767 26.9024 38.2449C27.7108 37.8516 27.8546 36.2913 27.8546 35.5396C27.8546 34.8938 25.3681 34.8032 24.8621 35.0711C24.3305 35.3526 24.0998 36.6603 23.706 37.1416C23.2624 37.6838 22.5498 37.965 22.5498 38.7134" stroke="#FFD66F" stroke-width="3" stroke-linecap="round"/>
<path d="M22.9361 35.7097C22.4643 36.055 22.0018 36.434 21.5112 36.7534C21.4759 36.7764 21.4409 36.7779 21.4174 36.8179C21.3402 36.9492 21.324 37.0995 21.2738 37.2401C21.1874 37.4818 21.1946 37.7511 21.1946 38.0053C21.1946 38.7303 20.8252 39.4462 20.8252 40.1425C20.8252 40.8509 20.9389 41.4442 21.0773 42.1361C21.1394 42.4466 21.2395 42.6768 21.394 42.9394C21.4335 43.0066 21.4954 43.0045 21.5611 42.9717C21.5987 42.9528 21.5623 43.0559 21.5669 43.0977C21.5776 43.1935 21.6272 43.2769 21.6695 43.3616C21.947 43.9164 22.3813 44.4045 22.593 44.9975C22.636 45.1177 22.6647 45.2401 22.6722 45.3669C22.677 45.4493 22.7947 45.439 22.8305 45.5017C22.9409 45.6949 23.0348 45.7618 23.2263 45.8682C23.9004 46.2427 24.7351 46.4223 25.5219 46.4223C26.0742 46.4223 26.5921 46.2295 27.0464 45.9239C27.6203 45.5378 28.1982 45.118 28.6881 44.6281C28.8703 44.4459 29.288 44.1201 29.3214 43.8365C29.3423 43.6589 29.4345 43.5802 29.2657 43.4114C28.9037 43.0494 28.5569 42.6777 28.1809 42.3296C27.3143 41.5272 25.976 41.1357 24.8446 40.8842C24.4566 40.798 24.0973 40.6541 23.71 40.5647C23.5274 40.5225 23.2875 40.4443 23.1237 40.3507C22.8064 40.1693 22.7777 39.7354 22.7777 39.4154C22.7777 39.0666 22.9765 39.4977 23.0123 39.6265C23.2009 40.3056 23.3178 41.0063 23.4872 41.6905C23.705 42.57 23.9638 43.4522 24.1381 44.3408C24.2569 44.9469 24.9412 45.1767 25.4691 45.3024C26.411 45.5267 27.2017 45.196 27.6855 44.3525C28.1846 43.4822 28.1497 42.4274 28.1604 41.4618C28.1669 40.8797 28.2254 40.2287 28.4477 39.6852C28.6177 39.2697 28.6881 38.9254 28.6881 38.4773C28.6881 38.1883 28.9365 38.8703 28.9549 38.9317C29.038 39.2085 29.2159 39.4552 29.2159 39.7467C29.2159 39.9417 28.9551 40.1931 29.0077 40.3771C29.0292 40.4524 29.1747 40.4798 29.2041 40.3946C29.27 40.2044 29.2467 39.9163 29.2716 39.7174C29.3739 38.8987 29.6308 38.1057 29.7318 37.287C29.8012 36.7251 29.7963 36.1695 29.7963 35.6042C29.7963 35.3029 29.9092 34.7201 29.7846 34.4432C29.6828 34.217 29.5493 34.0378 29.3742 33.8627C28.7964 33.2849 29.0048 32.3615 29.0048 31.617C29.0048 31.4004 28.952 31.2016 28.952 30.9896C28.952 30.9275 28.8645 30.5652 28.8171 30.5381C28.598 30.4129 28.6083 30.2731 28.2953 30.33C28.1166 30.3624 27.953 30.4546 27.7676 30.4883C27.0395 30.6207 26.2743 30.6437 25.5219 30.6437C24.287 30.6437 23.9378 32.1482 23.2937 32.9656C22.7781 33.62 22.3347 34.3339 21.8015 34.9738C21.6982 35.0977 21.5699 35.5273 21.5699 35.6804C21.5699 35.7934 21.7756 35.5819 21.863 35.5104C22.1778 35.2528 22.4098 34.9376 22.6429 34.6074C23.4022 33.5316 24.1342 32.4059 25.0967 31.4968C25.665 30.9601 26.3396 30.6964 27.1167 30.6964C27.5826 30.6964 28.0589 30.9015 28.5474 30.9075C28.7859 30.9105 29.0023 30.8937 29.2364 30.8577C29.4762 30.8208 29.1117 31.8298 29.081 31.8984C28.673 32.8108 28.1054 33.6606 27.4656 34.4256C27.1774 34.7702 26.8956 35.1464 26.5069 35.3814C26.2185 35.5557 26.1023 35.5211 26.1023 35.182C26.1023 34.8712 26.0455 34.5484 26.0496 34.2263C26.0538 33.884 26.2079 33.5293 26.2079 33.2177C26.2079 32.9754 26.2079 32.733 26.2079 32.4907" stroke="#FFD66F" stroke-width="3" stroke-linecap="round"/>
<path d="M16.2866 29.7994C15.96 29.4206 15.6914 29.0357 15.3982 28.6326C15.2831 28.4743 15.0774 28.3906 14.9409 28.2397C14.6277 27.8936 14.5639 27.3991 14.3076 27.0289C14.2316 26.9191 14.2031 26.5276 14.0438 26.5276C13.7178 26.5276 13.6336 26.6541 13.3607 26.8178C12.8453 27.1271 12.435 27.6415 12.0824 28.1166C11.4075 29.026 10.8186 29.9602 10.2589 30.9428C9.92808 31.5236 9.59897 31.9478 9.52009 32.6315C9.4611 33.1427 9.42627 33.6368 9.42627 34.1501C9.42627 34.9361 9.54766 35.7221 9.92467 36.4222C10.0138 36.5878 9.98307 36.9188 10.0068 37.1024C10.0381 37.3451 10.0433 37.6517 10.1416 37.8764C10.2127 38.0389 10.2752 38.1602 10.3762 38.3044C10.626 38.6613 10.6795 39.235 10.7426 39.6559C10.8466 40.3494 11.0388 40.8692 11.4433 41.4209C11.5429 41.5567 11.7529 41.8578 11.9183 41.9251C11.9977 41.9575 12.1117 41.9837 12.1968 41.9837C12.2783 41.9837 12.3619 41.8354 12.4225 41.8899C12.5015 41.961 12.5443 42.5513 12.5691 42.6581C12.613 42.8473 12.6165 43.026 12.7098 43.2034C12.8084 43.3906 13.0443 43.3959 13.1848 43.5083C13.4634 43.7311 14.0884 43.5265 14.4396 43.6519C14.8918 43.8134 15.2471 43.9949 15.7354 43.9949C16.1804 43.9949 16.7675 44.1333 17.0781 43.7838C17.1927 43.6549 17.2651 43.4156 17.3537 43.2561C17.5545 42.8947 17.4058 42.5001 17.2482 42.1303C17.0317 41.6225 16.7595 41.2867 16.3921 40.8785C15.9761 40.4162 15.8116 40.0933 15.8116 39.483C15.8116 39.1901 15.8435 38.9195 15.9435 38.6416C15.9913 38.5088 16.0755 38.373 16.0755 38.2311C16.0755 37.4388 16.3915 36.4542 16.8729 35.8124C17.1682 35.4186 17.4388 35.0233 17.7642 34.6515C18.0012 34.3806 18.2134 34.1312 18.374 33.81C18.6369 33.2841 19.0246 32.8548 19.189 32.2797C19.2407 32.0985 19.2418 31.9424 19.2418 31.752C19.2418 31.3962 19.0009 31.2078 18.7258 30.9838C18.2655 30.6092 17.6604 30.426 17.1309 30.1688C16.9665 30.0889 16.8284 30.106 16.6735 30.1923C16.0937 30.5154 15.4506 30.7165 14.8383 30.9721C14.4365 31.1398 13.9759 31.274 13.6275 31.5438C13.2837 31.8099 13.2307 32.1711 13.1467 32.5728C13.0142 33.2055 12.8896 33.8359 12.7773 34.4726C12.6547 35.1668 12.6981 35.8784 12.6981 36.5805C12.6981 37.1667 12.6751 37.7528 12.83 38.3249C12.9569 38.7934 13.1718 39.2476 13.3255 39.7087C13.6322 40.6289 13.7307 41.5861 13.991 42.5115C14.0551 42.7392 14.1443 42.8294 14.3868 42.834C14.9485 42.8446 15.3835 42.1227 15.5478 41.6495C16.0611 40.1705 15.8753 38.4861 15.6533 36.9763C15.4676 35.7135 15.1676 34.4621 15.0845 33.1885C15.0294 32.3428 14.9506 31.3151 15.1373 30.4854C15.2392 30.0327 15.2311 29.6042 15.2311 29.1398C15.2311 28.9535 15.2207 28.6066 15.0963 28.4596C14.8914 28.2175 14.511 28.4755 14.3633 28.6384C14.0775 28.9538 13.5958 29.8522 13.0939 29.8522C12.5464 29.8522 12.37 30.4337 12.3052 30.8871C12.2012 31.6157 12.0596 33.1194 13.1027 33.2413C13.5759 33.2966 13.8222 33.2031 14.1229 32.8074C14.3688 32.4838 14.5887 32.1169 14.7679 31.752C15.015 31.2487 15.1511 30.7253 15.2722 30.1805C15.3363 29.8919 15.4217 29.6209 15.7061 29.4945C15.8687 29.4222 16.0879 29.5282 16.2572 29.4799C16.5746 29.3892 16.9483 29.43 17.2892 29.43C17.7015 29.43 18.2648 29.3396 18.6378 29.5092C18.988 29.6683 19.3479 29.7934 19.5467 30.1688C19.7929 30.634 19.6483 31.1132 19.4528 31.5761C19.2037 32.1661 18.4797 32.4906 17.9987 32.8602C17.3042 33.3937 16.8124 33.9745 16.7205 34.8713C16.6109 35.9399 16.7187 37.0522 16.7087 38.1256C16.7043 38.608 16.6526 39.0938 16.4449 39.5094" stroke="#FFD66F" stroke-width="3" stroke-linecap="round"/>
<path d="M7.89625 19.72C7.89967 20.0621 7.81905 20.6307 7.96661 20.966C8.02436 21.0973 8.29668 21.0413 8.40637 21.0364C8.57635 21.0288 8.92792 21.0575 9.01617 20.881C9.14428 20.6248 9.0478 20.2395 8.8989 20.0161C8.28825 19.1002 7.11505 18.5266 6.03752 18.5063C5.21377 18.4907 4.58164 18.867 4.1612 19.6145C3.95846 19.9749 3.93726 20.8131 4.2902 21.0686C4.65348 21.3317 5.1176 21.4087 5.55378 21.4087C5.84862 21.4087 6.27456 21.4766 6.51246 21.2387C6.90701 20.8441 7.00709 20.1189 7.04018 19.5969C7.0786 18.9907 6.86176 18.6065 6.49487 18.1369C5.90617 17.3834 5.15044 17.3654 4.26675 17.3981C3.76806 17.4166 3.85391 18.4895 3.75369 18.7701C3.67702 18.9848 3.72731 19.2808 3.72731 19.506C3.72731 19.6297 3.72169 19.7548 3.72731 19.8783C3.73268 19.9966 3.82395 20.0721 3.83285 20.1832C3.86751 20.6165 4.5802 21.1006 4.86189 21.3823C5.0658 21.5862 5.358 21.6832 5.60069 21.8309C5.81614 21.962 6.00641 22.1221 6.21929 22.2531C6.65412 22.5206 7.34325 22.7223 7.84348 22.7778C8.02151 22.7976 8.26565 22.7733 8.26565 22.9831C8.26565 23.0523 8.27057 22.8942 8.27737 22.8746C8.31651 22.7615 8.41929 22.6919 8.46501 22.5814C8.59686 22.2628 8.8677 22.0125 9.00445 21.6843C9.13885 21.3617 9.22628 21.0892 9.27124 20.752C9.32033 20.3838 9.45251 20.057 9.57321 19.7083C9.73412 19.2434 9.74325 18.7802 9.74325 18.2952C9.74325 17.8917 9.49496 17.6708 9.18622 17.4743C8.70497 17.1681 7.89864 17.1515 7.35094 17.0932C6.55235 17.0082 5.68929 16.7791 4.96157 17.2486C4.37952 17.6241 4.15849 18.077 3.78008 18.6236C3.37313 19.2114 2.93003 19.8551 2.83312 20.582C2.76587 21.0864 2.96654 21.5402 3.14682 22.0009C3.45127 22.779 3.91232 23.2824 4.49835 23.8685C4.78628 24.1564 5.04559 24.438 5.45117 24.5486C5.83316 24.6528 6.26998 24.7245 6.66491 24.7333C7.30145 24.7475 7.97223 24.452 8.50019 24.1001C8.90204 23.8322 9.20728 23.6147 9.42662 23.1502C9.57107 22.8443 9.63369 22.4881 9.7022 22.1592C9.7364 21.9951 9.83209 21.2842 9.98365 21.1976C10.2528 21.0438 10.5348 20.5552 10.5348 20.2477C10.5348 19.507 10.0971 19.0185 9.5908 18.5122C9.35886 18.2802 9.18653 17.9809 8.94288 17.7616C8.62891 17.4791 8.27371 17.3279 7.89625 17.146C6.92722 16.6787 5.90558 16.501 4.83844 16.501C4.19238 16.501 4.01786 16.9625 3.51622 17.228C3.25543 17.3661 2.98851 17.3688 2.98851 17.7147" stroke="#FFD66F" stroke-width="3" stroke-linecap="round"/>
<path d="M11.6428 22.6751C11.1609 22.6149 11.675 21.4011 11.7894 21.1682C11.8652 21.0139 11.9797 20.8557 12.0152 20.6962C12.064 20.4762 11.9234 20.7058 11.8275 20.8017C11.5862 21.043 11.6003 20.3203 11.5783 20.1948C11.5064 19.7851 11.4579 19.331 11.2734 18.9518C11.176 18.7516 11.0854 18.3976 10.8278 18.3508C10.5049 18.2921 10.2218 18.084 9.90137 18.084" stroke="#FFD66F" stroke-width="3" stroke-linecap="round"/>
<path d="M11.5374 10.4322C11.6748 10.6975 11.8232 11.2851 12.2058 11.0508C12.4694 10.8895 12.6575 10.6637 12.8626 10.4381C13.3881 9.86003 13.96 9.26769 14.217 8.51487C14.4007 7.97687 14.4518 7.24859 14.0177 6.81446C13.4153 6.21213 12.1981 6.09315 11.5315 6.63855C11.2137 6.89861 10.8787 7.17673 10.5348 7.39787C10.1407 7.65118 9.87212 8.31831 9.69041 8.72302C9.42606 9.31181 9.21669 10.0157 8.86952 10.5612C8.6659 10.8812 8.60155 11.1201 8.58221 11.4877C8.57452 11.6337 8.51368 11.6235 8.63498 11.7515C8.75128 11.8743 8.82618 12.0369 8.93402 12.1678C9.23211 12.5298 9.46183 12.5949 9.88977 12.7424C10.242 12.8639 10.5998 12.8224 10.9569 12.9008C11.4887 13.0175 12.2419 13.1379 12.7746 12.9887C13.2769 12.8481 13.4727 12.2965 13.8095 11.9597C14.0914 11.6778 14.3435 11.3729 14.6245 11.0919C15.0223 10.6941 14.9273 9.90861 14.6509 9.49407C14.3881 9.09985 14.4648 8.81012 14.3753 8.37414C14.3244 8.12574 14.2953 7.83071 14.2815 7.58257C14.2714 7.40082 14.1403 7.18817 14.0822 7.01381C14.0033 6.77734 13.9761 6.49113 13.8594 6.28674C13.6987 6.00562 13.2325 6.0522 12.9652 6.0522C12.4595 6.0522 12.0087 6.07858 11.514 6.15775C11.0799 6.22719 10.6082 6.55467 10.4556 6.97863C10.3867 7.17004 10.0894 7.97848 10.3764 8.12201C10.7144 8.29098 11.6573 8.33626 12.0006 8.09856C12.2337 7.93718 12.338 8.13195 12.1296 8.3331C11.5747 8.86891 10.6442 8.97908 9.92495 9.10122C9.64907 9.14807 9.40948 9.07164 9.1627 9.19503C8.85409 9.34934 8.62732 9.9043 8.50305 10.2006C8.36444 10.5312 8.16955 10.8279 8.03397 11.1593C8.00099 11.2399 7.97589 11.3738 7.92257 11.4378C7.76522 11.6266 7.97044 11.8901 8.13365 11.9626C8.50626 12.1282 8.90904 12.2792 9.32101 12.2792" stroke="#FFD66F" stroke-width="3" stroke-linecap="round"/>
<path d="M23.0413 3.04443C21.8658 3.14892 20.7348 3.28355 19.7285 3.94155C19.1766 4.30236 18.92 4.87481 18.7375 5.47192C18.5412 6.11461 18.2717 6.68256 18.3476 7.36583C18.4005 7.84227 18.4502 8.30424 18.4502 8.79652" stroke="#FFD66F" stroke-width="3" stroke-linecap="round"/>
<path d="M19.0834 5.68271C19.0834 6.82036 19.1087 7.96304 19.0834 9.10112C19.0811 9.20322 18.9312 9.7253 19.06 9.79888C19.2817 9.92561 19.4532 9.78091 19.6551 9.66988C19.884 9.544 20.1679 9.35172 20.3617 9.17735C20.458 9.09066 20.6127 9.05833 20.7193 8.99558C20.8987 8.89008 21.0147 8.54441 21.0653 8.35646C21.2321 7.73664 21.313 7.09999 21.4288 6.47135C21.5181 5.98684 21.5055 5.48131 21.6575 5.00841C21.8084 4.53896 22.0249 4.19629 22.3259 3.80932C22.4036 3.7095 22.497 3.46631 22.6455 3.46631C22.9432 3.46631 22.6506 4.00302 22.6308 4.16993C22.5688 4.69383 22.6501 5.23293 22.6162 5.75893C22.5862 6.22332 22.2473 6.48396 22.1442 6.89645" stroke="#FFD66F" stroke-width="3" stroke-linecap="round"/>
<path d="M29.0048 5.10226C28.4034 5.6546 27.6851 6.15142 27.237 6.84078C27.0449 7.13626 26.8204 7.43152 26.5774 7.68806C26.4245 7.84935 26.2868 8.0128 26.2021 8.22457C26.1116 8.45091 25.8386 8.70232 25.8386 8.95457C25.8386 9.44829 25.6724 10.0164 25.8503 10.4967C25.9472 10.7583 26.5965 11.0086 26.8412 11.1065C27.2889 11.2855 28.0722 10.6451 28.2778 10.2914C28.6614 9.63152 28.8539 8.97553 29.0166 8.2275C29.162 7.55863 29.3205 6.84331 29.5736 6.21046C29.7077 5.8751 29.6785 5.27871 29.5589 4.94394C29.4346 4.5957 29.2431 4.0996 28.8201 4.0996C28.6534 4.0996 28.3145 4.02979 28.1605 4.11133C27.901 4.24871 27.9494 4.89046 27.9494 5.12278C27.9494 6.23926 27.6856 7.32681 27.6856 8.44738C27.6856 9.40801 27.6856 10.3686 27.6856 11.3293C27.6856 11.6508 27.9711 12.1833 28.3716 11.9831C28.6015 11.8681 28.7574 11.6405 28.8993 11.4378C28.9915 11.306 29.1372 10.9483 29.2687 10.8661C29.384 10.794 29.3333 10.3542 29.3185 10.2211C29.2712 9.79507 29.2159 9.40254 29.2159 8.9663C29.2159 8.7083 29.2159 8.45031 29.2159 8.19232C29.2159 8.01332 29.3175 7.13197 29.1632 7.0548" stroke="#FFD66F" stroke-width="3" stroke-linecap="round"/>
<path d="M38.3452 14.6013C37.7054 14.1704 37.1275 13.6574 36.4923 13.2234C36.3326 13.1142 36.1068 12.99 35.9118 12.9683C35.6108 12.9349 35.3286 12.9126 35.0206 12.9126C34.6431 12.9126 34.3387 12.9439 34.0179 13.1501C33.7834 13.3008 33.4363 13.3936 33.3319 13.6807C33.2214 13.9845 33.0348 14.2543 32.9507 14.572C32.869 14.8809 32.8569 15.1228 32.8569 15.4486C32.8569 15.7579 33.1533 16.0418 33.3846 16.2255C33.8071 16.561 34.2733 16.6815 34.7567 16.9232C35.3014 17.1956 35.7735 17.3741 36.3662 17.5301C36.6537 17.6057 36.6967 17.8881 36.9203 18.0197C37.4895 18.3545 38.3911 18.4221 38.6354 17.662C38.7893 17.1833 38.9379 16.4263 38.4624 16.0789C38.1482 15.8492 37.8712 15.6571 37.5008 15.5248C37.0412 15.3606 36.4614 15.5533 35.9822 15.4046C35.6115 15.2895 35.2784 15.0918 34.915 14.9707" stroke="#FFD66F" stroke-width="3" stroke-linecap="round"/>
<path d="M33.0681 22.2002C33.0681 23.2644 33.1209 24.427 32.8307 25.472C32.7421 25.7909 32.6737 26.0497 32.4642 26.3164C32.3367 26.4786 32.0127 26.731 32.0127 26.9496C32.0127 27.1959 32.0127 27.4422 32.0127 27.6884C32.0127 27.9157 32.2025 27.9176 32.2766 28.0842C32.3799 28.3168 32.6126 28.5256 32.7749 28.7175C33.0532 29.0463 33.3743 29.3654 33.8362 29.3214C34.0143 29.3044 34.0109 29.1059 34.0591 29.3361C34.1013 29.5379 34.1628 29.7195 34.2555 29.9048C34.3947 30.1832 34.675 30.5155 34.7568 30.8019C34.8184 31.0176 35.1201 31.1844 35.2581 31.3531C35.5426 31.7008 35.756 32.0324 36.2373 32.1447C36.4895 32.2035 36.551 32.1393 36.551 32.4261C36.551 32.6163 36.5794 32.7972 36.6038 32.9861C36.649 33.3363 36.7212 33.7788 36.8911 34.0943C36.9699 34.2405 36.9586 34.4843 37.1051 34.6015C37.2127 34.6875 37.2012 34.9351 37.3162 35.05C37.4619 35.1957 37.6098 35.3135 37.8176 35.3432C38.0677 35.3789 38.3193 35.5459 38.5564 35.6305C38.7544 35.7013 38.9637 35.6738 39.1632 35.7624C39.8591 36.0717 40.3494 34.9957 40.4825 34.493C40.6798 33.7477 40.817 33.0117 40.9575 32.2531C41.0814 31.5839 40.9058 30.9013 40.8255 30.239C40.7418 29.548 40.5846 28.9761 40.2187 28.3774C39.7737 27.6493 39.4149 26.8642 38.8026 26.2519C38.3236 25.7728 37.604 25.6819 37.026 25.3929C36.7824 25.2711 36.5301 25.1126 36.2608 25.0528C36.1508 25.0283 35.8807 24.9507 35.8122 24.8652C35.7604 24.8003 35.6319 24.839 35.6129 24.915C35.5013 25.3613 35.5484 25.9193 35.5484 26.3691C35.5484 27.0677 35.5393 27.7724 35.6129 28.4683C35.6492 28.8115 35.851 29.1198 35.9969 29.4269C36.2732 30.0086 36.5844 30.5687 36.9204 31.1186C37.2664 31.6846 37.7417 32.251 38.184 32.7486C38.4671 33.0671 38.7558 33.3761 39.0577 33.678C39.1786 33.7989 39.0523 32.9586 39.0284 32.8659C38.8696 32.2508 38.7148 31.6278 38.5153 31.0247C38.3691 30.5829 38.2046 30.1189 37.9231 29.7436C37.6848 29.4259 37.4423 29.0629 37.2781 28.7028C37.015 28.1257 36.9428 27.5546 36.8032 26.9496C36.6909 26.4633 36.4047 25.9217 35.9823 25.6303C35.7178 25.448 35.3092 25.4766 35.1262 25.7359C34.8371 26.1454 34.5056 26.6171 34.3757 27.1079C34.1989 27.7759 34.1236 28.4321 34.1236 29.125C34.1236 29.5063 34.1245 29.8498 34.2174 30.2215C34.2652 30.4128 34.3718 30.8088 34.493 30.9603C34.665 31.1753 34.7329 31.5309 34.8506 31.7811C34.9848 32.0663 35.1495 32.3174 35.2963 32.5962C35.5159 33.0134 35.6905 33.5366 36.0526 33.851C36.1798 33.9614 36.3916 34.1352 36.5745 34.1177C36.7657 34.0995 36.7084 33.8224 36.8149 34.0855C37.0254 34.6056 37.3241 34.966 37.8293 35.1409C38.0731 35.2253 38.329 35.423 38.5153 35.5924C38.9118 35.9528 39.6796 36.0791 40.1923 36.0791C40.4408 36.0791 40.5514 35.6377 40.6672 35.4575C40.8629 35.1532 41.0328 34.7418 41.1304 34.3904C41.2484 33.9656 41.3633 33.5272 41.3532 33.0828C41.3465 32.7847 41.1777 32.4979 41.0659 32.2297C40.8761 31.7742 40.6926 31.3212 40.4854 30.8723C40.2 30.2539 39.9001 29.6323 39.5473 29.0488C39.2726 28.5944 38.8809 28.1943 38.5739 27.7588C38.2505 27.3 37.9328 26.8377 37.6065 26.3809C37.4626 26.1794 37.3139 25.9251 37.1432 25.7476C36.7917 25.382 36.8005 24.7716 36.4455 24.4166C36.3184 24.2895 36.1869 24.1211 36.0233 24.0355C35.4988 23.7607 35.0919 23.2699 34.493 23.1501" stroke="#FFD66F" stroke-width="3" stroke-linecap="round"/>
<path d="M19.2949 32.1741C19.1382 32.6441 19.0291 33.1973 18.7496 33.6165C18.5483 33.9184 18.3339 34.2224 18.1134 34.5107C17.9974 34.6624 17.9234 34.8512 17.8466 35.0267C17.6567 35.4608 17.5759 35.9627 17.3834 36.3958C17.1662 36.8844 17.4947 37.551 17.1313 38.0053C16.9358 38.2497 15.9972 36.6672 15.8647 36.5131C15.5969 36.2013 15.2109 35.7602 14.8357 35.5808C14.4532 35.3978 14.058 35.2418 13.6689 35.0736C13.2692 34.9007 12.9038 34.7248 12.5929 34.4139C12.4271 34.2481 12.3576 34.0365 12.2118 33.8745C12.0696 33.7165 11.8696 33.6858 11.6958 33.5989" stroke="#FFD66F" stroke-width="3" stroke-linecap="round"/>
</svg>
